<ttFont>
        <CharString name=".notdef">
          596 -6 20 -15 15 -6 -21 30 12 69 9 94 22 hstemhm
          315 28 51 16 30 17 24 17 -14 45 30 13 44 17 24 14 33 13 hintmask 0100101010010110
          495 98 rmoveto
          200 -1 120 168 78 80 42 43 154 -8 61 56 9 8 -5 16 -10 -2 rrcurveto
          -7 -278 -30 -2 -42 hvcurveto
          -227 45 -199 8 -29 42 rrcurveto
          70 -40 -39 28 -57 hhcurveto
          -65 -43 -53 -49 hvcurveto
          -62 -29 rlineto
          -3 -5 6 0 0 vvcurveto
          85 -16 44 -26 4 -54 5 -76 rlinecurve
          -145 10 99 -68 189 hhcurveto
          -85 9 rmoveto
          -1 1 -28 17 hhcurveto
          12 -12 -30 -10 -35 -13 -30 -15 rlinecurve
          -21 -32 4 -22 -30 hvcurveto
          -5 1 0 3 -2 vhcurveto
          18 9 15 6 25 -2 -13 -6 -14 -8 -10 -16 2 -4 4 -1 3 -1 18 18 21 15 25 -1 22 -1 6 -2 23 -11 3 2 2 -2 1 6 -13 14 -10 1 -20 6 rrcurveto
          43 23 44 8 7 vvcurveto
          5 -5 5 -6 5 vhcurveto
          11 8 16 4 hvcurveto
          26 4 -25 -1 50 -1 rrcurveto
          hintmask 0000111100000000
          16 -4 5 -3 19 hvcurveto
          2 -7 9 -19 16 2 7 -4 6 -3 2 -3 -26 -17 -30 -18 -28 -22 -21 -5 -28 3 -23 -31 rrcurveto
          -5 2 0 3 -2 vhcurveto
          16 14 7 5 26 4 -13 -8 -9 -13 -5 -18 1 -4 2 -1 5 1 13 21 16 21 24 5 23 3 22 -2 25 -6 rrcurveto
          3 4 0 1 3 vvcurveto
          -16 10 -20 1 -21 1 rrcurveto
          34 29 41 17 11 vvcurveto
          6 -5 2 -8 6 vhcurveto
          12 13 -7 24 1 hhcurveto
          0 -10 9 0 vhcurveto
          0 -100 -23 0 vhcurveto
          0 -88 0 -1 vhcurveto
          302 118 rmoveto
          -14 -11 5 12 -6 hvcurveto
          -9 -3 -6 -8 -10 hhcurveto
          hintmask 0100101010010110
          -11 -9 9 8 -3 hvcurveto
          -8 -2 -10 -6 -7 hhcurveto
          hintmask 0000100001000100
          -15 -1 -8 8 -3 10 -5 -8 -8 -8 -13 -1 rrcurveto
          -30 -10 25 28 1 hvcurveto
          1 21 4 25 7 12 rrcurveto
          25 2 18 -10 -29 vvcurveto
          -19 -9 -22 -16 -5 vhcurveto
          2 -8 3 -8 5 -4 10 5 7 13 4 10 rrcurveto
          hintmask 0000100000100000
          15 vlineto
          1 21 4 19 14 14 rrcurveto
          hintmask 0000100010000000
          6 8 -1 -2 7 hvcurveto
          hintmask 0100101010010110
          3 4 15 1 2 vhcurveto
          7 1 14 -5 5 -5 -5 -30 -2 -47 8 -29 6 -1 6 13 3 5 -1 3 rcurveline
          -11 54 7 71 22 41 rrcurveto
          34 -5 9 -15 -35 vvcurveto
          -33 -12 -40 -21 -9 vhcurveto
          -20 4 -16 9 -13 vhcurveto
          12 10 10 18 5 29 1 2 1 3 1 -5 rrcurveto
          -21 3 -3 -46 -35 hhcurveto
          -275 111 rmoveto
          -91 11 -17 -102 -56 hhcurveto
          -21 -5 11 21 9 2 9 2 8 hvcurveto
          hintmask 0001000010000000
          10 11 -3 -8 8 hvcurveto
          -2 -11 -2 -14 3 -12 24 16 1 25 4 38 rrcurveto
          -2 -1 -4 -3 -3 hhcurveto
          -14 -10 8 13 -6 hvcurveto
          hintmask 0010001000000000
          -12 -4 -9 -13 -19 hhcurveto
          -45 -16 42 41 -1 hvcurveto
          hintmask 0001000010000000
          -1 46 11 48 32 27 rrcurveto
          hintmask 0100100000010000
          18 -3 26 -7 -36 vvcurveto
          -13 -8 -12 -11 -9 vhcurveto
          -3 -4 0 3 1 2 2 15 -6 24 -5 7 -19 -19 -13 -116 36 -26 15 5 10 16 3 10 rrcurveto
          -3 13 -1 16 15 vvcurveto
          14 2 11 3 6 vhcurveto
          hintmask 1000100010000000
          6 -1 14 -3 7 -7 -1 -31 0 -29 8 -27 4 1 1 5 1 2 8 36 -9 43 -3 22 10 1 16 -6 8 -9 rrcurveto
          4 5 rmoveto
          hintmask 0100000000010000
          8 6 -1 -1 5 hvcurveto
          5 -1 4 -2 3 -3 5 -8 3 -11 1 -16 rrcurveto
          hintmask 1000000000010000
          7 13 4 8 2 8 rrcurveto
          5 3 9 2 4 vhcurveto
          hintmask 0100100010000000
          12 11 -4 -7 5 hvcurveto
          -3 -14 -1 -19 2 -14 -15 -4 -10 6 -2 16 -4 -8 -7 -8 -3 -11 rrcurveto
          -9 0 -17 -3 -8 vhcurveto
          -3 -12 -8 -8 -13 2 rrcurveto
          hintmask 0100101010010110
          -2 34 -1 51 -13 30 rrcurveto
          178 -103 rmoveto
          5 4 8 8 1 8 -6 21 0 27 1 10 -9 -10 -7 -44 7 -24 rrcurveto
          85 59 rmoveto
          13 19 4 46 -4 23 -6 -24 -6 -34 -1 -30 rrcurveto
          hintmask 0000100000001000
          -138 20 rmoveto
          -5 -15 -2 -17 -19 vvcurveto
          8 2 5 16 14 vvcurveto
          9 -3 7 -3 3 vhcurveto
          endchar
        </CharString>
        <CharString name=".null">
          -614 endchar
        </CharString>
        <CharString name="A">
          61 21 -21 190 52 467 -20 hstem
          42 587 vstem
          181 190 rmoveto
          281 hlineto
          53 -137 rlineto
          -47 17 39 -6 19 hhcurveto
          29 10 16 17 5 -1 5 -1 5 hvcurveto
          -229 634 rlineto
          18 -6 -28 9 -27 hhcurveto
          -25 -24 -8 -16 -6 hvcurveto
          -235 -633 rlineto
          -3 -8 -2 -9 -8 vvcurveto
          -15 8 -12 19 19 24 6 47 18 vhcurveto
          317 189 rmoveto
          -250 hlineto
          123 349 rlineto
          6 hlineto
          endchar
        </CharString>
        <CharString name="AE">
          308 0 53 137 52 97 55 262 53 hstemhm
          431 108 227 101 -86 101 hintmask 11111010
          hintmask 11111100
          824 535 rmoveto
          29 14 15 35 hvcurveto
          87 vlineto
          30 -21 7 -39 vhcurveto
          -345 hlineto
          -26 -24 -9 -15 -9 hvcurveto
          -373 -633 rlineto
          -5 -9 -5 -11 -8 vvcurveto
          -13 9 -11 19 21 21 6 34 19 vhcurveto
          84 150 rlineto
          238 -140 hlineto
          -35 15 -15 31 vhcurveto
          hintmask 11111010
          345 hlineto
          39 21 7 30 hvcurveto
          87 vlineto
          35 -14 15 -29 -38 -20 -17 -48 vhcurveto
          -56 -242 286 200 vlineto
          14 14 14 13 14 -9 14 -19 hvcurveto
          -200 262 hlineto
          hintmask 11111100
          227 -56 hlineto
          -48 20 -17 38 vhcurveto
          -393 -293 rmoveto
          -212 hlineto
          206 348 rlineto
          6 hlineto
          endchar
        </CharString>
        <CharString name="Aacute">
          61 21 -21 190 52 467 -20 hstem
          42 587 vstem
          181 190 rmoveto
          281 hlineto
          53 -137 rlineto
          -47 17 39 -6 19 hhcurveto
          29 10 16 17 5 -1 5 -1 5 hvcurveto
          -229 634 rlineto
          18 -6 -28 9 -27 hhcurveto
          -25 -24 -8 -16 -6 hvcurveto
          -235 -633 rlineto
          -3 -8 -2 -9 -8 vvcurveto
          -15 8 -12 19 19 24 6 47 18 vhcurveto
          317 189 rmoveto
          -250 hlineto
          123 349 rlineto
          6 hlineto
          130 338 rmoveto
          2 3 1 4 3 vvcurveto
          14 -20 10 -36 -25 -26 -8 -18 -8 vhcurveto
          -57 -142 rlineto
          -2 -4 0 -3 -3 vvcurveto
          -12 12 -7 16 14 15 6 10 8 vhcurveto
          endchar
        </CharString>
        <CharString name="Accent">
          -604 765 217 hstem
          -229 929 rmoveto
          2 3 1 4 3 vvcurveto
          14 -20 10 -36 -25 -26 -8 -18 -8 vhcurveto
          -57 -142 rlineto
          -2 -4 0 -3 -3 vvcurveto
          -12 12 -7 16 14 15 6 10 8 vhcurveto
          endchar
        </CharString>
        <CharString name="Acircumflex">
          61 21 -21 190 52 467 -20 hstem
          42 587 vstem
          181 190 rmoveto
          281 hlineto
          53 -137 rlineto
          -47 17 39 -6 19 hhcurveto
          29 10 16 17 5 -1 5 -1 5 hvcurveto
          -229 634 rlineto
          18 -6 -28 9 -27 hhcurveto
          -25 -24 -8 -16 -6 hvcurveto
          -235 -633 rlineto
          -3 -8 -2 -9 -8 vvcurveto
          -15 8 -12 19 19 24 6 47 18 vhcurveto
          317 189 rmoveto
          -250 hlineto
          123 349 rlineto
          6 hlineto
          61 204 rmoveto
          -22 21 24 -8 20 hhcurveto
          22 16 10 11 3 -1 3 -3 3 hvcurveto
          -102 106 rlineto
          12 -11 -19 6 -19 hhcurveto
          -19 -19 -6 -12 -11 hvcurveto
          -102 -106 rlineto
          -3 -3 -1 -3 -3 vvcurveto
          -11 16 -10 22 20 24 8 22 21 vhcurveto
          52 52 rlineto
          endchar
        </CharString>
        <CharString name="Acute">
          160 766 197 hstem
          300 174 vstem
          471 929 rmoveto
          2 3 1 4 3 vvcurveto
          14 -20 10 -36 -25 -26 -8 -18 -8 vhcurveto
          -57 -142 rlineto
          -2 -4 0 -3 -3 vvcurveto
          -12 12 -7 16 14 15 6 10 8 vhcurveto
          endchar
        </CharString>
        <CharString name="Adieresis">
          61 21 -21 190 52 467 -20 94 137 hstem
          163 137 70 137 vstem
          181 190 rmoveto
          281 hlineto
          53 -137 rlineto
          -47 17 39 -6 19 hhcurveto
          29 10 16 17 5 -1 5 -1 5 hvcurveto
          -229 634 rlineto
          18 -6 -28 9 -27 hhcurveto
          -25 -24 -8 -16 -6 hvcurveto
          -235 -633 rlineto
          -3 -8 -2 -9 -8 vvcurveto
          -15 8 -12 19 19 24 6 47 18 vhcurveto
          317 189 rmoveto
          -250 hlineto
          123 349 rlineto
          6 hlineto
          44 260 rmoveto
          -35 32 -33 36 36 33 33 35 38 -33 31 -36 -36 -32 -31 -38 vhcurveto
          -207 1 rmoveto
          -35 33 -33 34 38 32 33 35 37 -32 32 -38 -34 -33 -32 -37 vhcurveto
          endchar
        </CharString>
        <CharString name="Agrave">
          61 21 -21 190 52 467 -20 hstem
          42 587 vstem
          181 190 rmoveto
          281 hlineto
          53 -137 rlineto
          -47 17 39 -6 19 hhcurveto
          29 10 16 17 5 -1 5 -1 5 hvcurveto
          -229 634 rlineto
          18 -6 -28 9 -27 hhcurveto
          -25 -24 -8 -16 -6 hvcurveto
          -235 -633 rlineto
          -3 -8 -2 -9 -8 vvcurveto
          -15 8 -12 19 19 24 6 47 18 vhcurveto
          317 189 rmoveto
          -250 hlineto
          123 349 rlineto
          6 hlineto
          3 191 rmoveto
          -10 8 15 -6 14 hhcurveto
          16 12 7 12 3 0 3 -2 4 hvcurveto
          -57 142 rlineto
          18 -8 -26 8 -25 hhcurveto
          -36 -20 -10 -14 -3 1 -4 2 -3 hvcurveto
          endchar
        </CharString>
        <CharString name="Aring">
          61 21 -21 190 52 467 -20 63 59 101 59 hstem
          231 59 101 59 vstem
          181 190 rmoveto
          281 hlineto
          53 -137 rlineto
          -47 17 39 -6 19 hhcurveto
          29 10 16 17 5 -1 5 -1 5 hvcurveto
          -229 634 rlineto
          18 -6 -28 9 -27 hhcurveto
          -25 -24 -8 -16 -6 hvcurveto
          -235 -633 rlineto
          -3 -8 -2 -9 -8 vvcurveto
          -15 8 -12 19 19 24 6 47 18 vhcurveto
          317 189 rmoveto
          -250 hlineto
          123 349 rlineto
          6 hlineto
          -95 270 rmoveto
          -61 49 -48 61 61 48 48 61 61 -48 49 -61 -61 -49 -49 -61 vhcurveto
          59 hmoveto
          27 24 24 27 26 24 -24 -27 -26 -24 -24 -26 -27 -24 24 26 vhcurveto
          endchar
        </CharString>
        <CharString name="Atilde">
          61 21 -21 190 52 467 -20 105 75 -40 75 hstemhm
          42 587 hintmask 11101100
          181 190 rmoveto
          281 hlineto
          53 -137 rlineto
          -47 17 39 -6 19 hhcurveto
          29 10 16 17 5 -1 5 -1 5 hvcurveto
          -229 634 rlineto
          18 -6 -28 9 -27 hhcurveto
          -25 -24 -8 -16 -6 hvcurveto
          -235 -633 rlineto
          -3 -8 -2 -9 -8 vvcurveto
          -15 8 -12 19 19 24 6 47 18 vhcurveto
          317 189 rmoveto
          -250 hlineto
          123 349 rlineto
          6 hlineto
          -46 238 rmoveto
          13 16 -4 -13 33 hvcurveto
          hintmask 11110100
          -9 23 23 -9 26 hhcurveto
          31 34 18 52 23 hvcurveto
          5 8 3 11 9 vvcurveto
          11 -7 9 -16 -24 -3 -14 -11 -7 vhcurveto
          -9 -5 -7 -9 -19 hhcurveto
          -23 -18 10 9 -23 hvcurveto
          hintmask 11101100
          -35 13 -20 2 -11 1 rrcurveto
          -68 -36 -62 -36 -12 5 -9 24 hvcurveto
          39 -22 44 46 hhcurveto
          endchar
        </CharString>
        <CharString name="B">
          56 0 53 292 53 258 53 hstemhm
          100 108 252 113 -76 113 hintmask 11110100
          100 659 rmoveto
          -609 vlineto
          -35 15 -15 31 vhcurveto
          210 hlineto
          93 161 30 182 77 -44 69 -106 18 hvcurveto
          5 vlineto
          hintmask 11111000
          72 18 41 69 63 vvcurveto
          120 -77 58 -145 vhcurveto
          -205 hlineto
          hintmask 11110100
          -31 -15 -15 -35 hvcurveto
          232 -314 rmoveto
          71 94 -36 -107 -120 -94 -29 -61 hvcurveto
          -134 292 hlineto
          107 311 rmoveto
          hintmask 11111000
          58 87 -26 -96 -102 -80 -34 -57 hvcurveto
          -115 258 hlineto
          endchar
        </CharString>
        <CharString name="Breve">
          105 768 67 hstem
          198 323 vstem
          521 894 rmoveto
          14 -9 14 -21 -17 -16 -12 -15 -7 vhcurveto
          -50 -20 -32 -10 -40 hhcurveto
          -39 -32 10 50 -20 hvcurveto
          15 -7 -16 12 -17 hhcurveto
          -21 -9 -14 -14 -69 64 -57 97 98 64 57 69 hvcurveto
          endchar
        </CharString>
        <CharString name="C">
          -33 0 52 606 51 hstem
          53 113 279 101 vstem
          503 529 rmoveto
          29 14 15 35 hvcurveto
          60 vlineto
          31 -10 8 -31 10 vhcurveto
          15 -47 -49 6 -50 hhcurveto
          -173 -133 -111 -250 -216 90 -132 208 80 51 14 20 49 hvcurveto
          17 7 rlineto
          9 4 4 8 8 vvcurveto
          14 -10 16 -14 -3 -2 -1 -1 -3 vhcurveto
          -19 -8 rlineto
          -18 -43 -47 -11 -41 hhcurveto
          -130 -83 64 230 209 83 103 123 26 24 -3 -5 23 hvcurveto
          -56 vlineto
          -48 20 -17 38 vhcurveto
          endchar
        </CharString>
        <CharString name="Caron">
          99 760 159 hstem
          190 333 vstem
          301 888 rmoveto
          23 -24 -25 8 -21 hhcurveto
          -24 -17 -10 -12 -3 1 -3 3 -3 hvcurveto
          110 -109 rlineto
          -14 14 19 -5 23 hhcurveto
          19 18 7 12 12 hvcurveto
          110 109 rlineto
          3 3 1 3 3 vvcurveto
          12 -17 10 -24 -21 -26 -9 -22 -23 vhcurveto
          -56 -54 rlineto
          endchar
        </CharString>
        <CharString name="Ccedilla">
          -33 -210 51 78 39 42 52 606 51 hstemhm
          53 113 153 55 26 80 -35 101 hintmask 11111101
          503 529 rmoveto
          29 14 15 35 hvcurveto
          60 vlineto
          31 -10 8 -31 10 vhcurveto
          15 -47 -49 6 -50 hhcurveto
          -173 -133 -111 -250 -205 80 -129 186 -13 hvcurveto
          -82 vlineto
          hintmask 11111110
          52 29 -4 -38 -17 -13 -19 -36 hvcurveto
          -22 -24 12 -15 hhcurveto
          -14 -8 -10 -10 -29 60 -14 35 67 50 34 56 hvcurveto
          hintmask 11111101
          62 -53 16 -53 vhcurveto
          42 vlineto
          67 2 46 14 44 18 17 7 rcurveline
          9 4 4 8 8 vvcurveto
          14 -10 16 -14 -3 -2 -1 -1 -3 vhcurveto
          -19 -8 rlineto
          -18 -43 -47 -11 -41 hhcurveto
          -130 -83 64 230 209 83 103 123 26 24 -3 -5 23 hvcurveto
          -56 vlineto
          -48 20 -17 38 vhcurveto
          endchar
        </CharString>
        <CharString name="Cedilla">
          118 -210 51 78 89 hstemhm
          311 55 26 80 hintmask 11100000
          366 8 rmoveto
          -55 -89 hlineto
          hintmask 11110000
          52 29 -4 -38 -17 -13 -19 -36 hvcurveto
          -22 -24 12 -15 hhcurveto
          -14 -8 -10 -10 -29 60 -14 35 67 50 34 56 hvcurveto
          hintmask 11100000
          62 -53 16 -53 vhcurveto
          endchar
        </CharString>
        <CharString name="Circumflex">
          99 760 159 hstem
          190 333 vstem
          412 791 rmoveto
          -23 24 25 -8 21 hhcurveto
          24 17 10 12 3 -1 3 -3 3 hvcurveto
          -110 109 rlineto
          14 -14 -19 5 -23 hhcurveto
          -19 -18 -7 -12 -12 hvcurveto
          -110 -109 rlineto
          -3 -3 -1 -3 -3 vvcurveto
          -12 17 -10 24 21 26 9 22 23 vhcurveto
          56 54 rlineto
          endchar
        </CharString>
        <CharString name="D">
          79 0 54 602 53 hstem
          100 108 319 113 vstem
          100 659 rmoveto
          -609 vlineto
          -35 15 -15 31 vhcurveto
          148 hlineto
          137 209 75 283 307 -204 44 -147 hvcurveto
          -143 hlineto
          -31 -15 -15 -35 hvcurveto
          177 -3 rmoveto
          138 112 -77 -221 -216 -112 -88 -138 hvcurveto
          -47 -1 -22 603 hlineto
          endchar
        </CharString>
        <CharString name="Dieresis">
          22 783 137 hstem
          146 137 70 137 vstem
          353 851 rmoveto
          -35 32 -33 36 36 33 33 35 38 -33 31 -36 -36 -32 -31 -38 vhcurveto
          -207 1 rmoveto
          -35 33 -33 34 38 32 33 35 37 -32 32 -38 -34 -33 -32 -37 vhcurveto
          endchar
        </CharString>
        <CharString name="Dotaccent">
          -317 783 137 hstem
          80 137 vstem
          80 851 rmoveto
          -35 32 -33 36 36 33 33 35 38 -33 31 -36 -36 -32 -31 -38 vhcurveto
          endchar
        </CharString>
        <CharString name="E">
          -13 0 53 286 55 262 53 hstemhm
          100 108 237 101 -86 101 hintmask 11110100
          hintmask 11111000
          503 535 rmoveto
          29 14 15 35 hvcurveto
          87 vlineto
          30 -21 7 -39 vhcurveto
          -340 hlineto
          -31 -15 -15 -35 hvcurveto
          -609 vlineto
          -35 15 -15 31 vhcurveto
          hintmask 11110100
          355 hlineto
          39 21 7 30 hvcurveto
          87 vlineto
          35 -14 15 -29 -38 -20 -17 -48 vhcurveto
          -56 -252 286 210 vlineto
          14 14 14 13 14 -9 14 -19 hvcurveto
          -210 262 hlineto
          hintmask 11111000
          237 -56 hlineto
          -48 20 -17 38 vhcurveto
          endchar
        </CharString>
        <CharString name="Eacute">
          -13 0 53 286 55 262 53 hstemhm
          100 108 237 101 -86 101 hintmask 11110100
          hintmask 11111000
          503 535 rmoveto
          29 14 15 35 hvcurveto
          87 vlineto
          30 -21 7 -39 vhcurveto
          -340 hlineto
          -31 -15 -15 -35 hvcurveto
          -609 vlineto
          -35 15 -15 31 vhcurveto
          hintmask 11110100
          355 hlineto
          39 21 7 30 hvcurveto
          87 vlineto
          35 -14 15 -29 -38 -20 -17 -48 vhcurveto
          -56 -252 286 210 vlineto
          14 14 14 13 14 -9 14 -19 hvcurveto
          -210 262 hlineto
          hintmask 11111000
          237 -56 hlineto
          -48 20 -17 38 vhcurveto
          -57 394 rmoveto
          2 3 1 4 3 vvcurveto
          14 -20 10 -36 -25 -26 -8 -18 -8 vhcurveto
          -57 -142 rlineto
          -2 -4 0 -3 -3 vvcurveto
          -12 12 -7 16 14 15 6 10 8 vhcurveto
          endchar
        </CharString>
        <CharString name="Ecircumflex">
          -13 0 53 286 55 262 53 hstemhm
          100 108 237 101 -86 101 hintmask 11110100
          hintmask 11111000
          503 535 rmoveto
          29 14 15 35 hvcurveto
          87 vlineto
          30 -21 7 -39 vhcurveto
          -340 hlineto
          -31 -15 -15 -35 hvcurveto
          -609 vlineto
          -35 15 -15 31 vhcurveto
          hintmask 11110100
          355 hlineto
          39 21 7 30 hvcurveto
          87 vlineto
          35 -14 15 -29 -38 -20 -17 -48 vhcurveto
          -56 -252 286 210 vlineto
          14 14 14 13 14 -9 14 -19 hvcurveto
          -210 262 hlineto
          hintmask 11111000
          237 -56 hlineto
          -48 20 -17 38 vhcurveto
          -137 260 rmoveto
          -22 21 24 -8 20 hhcurveto
          22 16 10 11 3 -1 3 -3 3 hvcurveto
          -102 106 rlineto
          12 -11 -19 6 -19 hhcurveto
          -19 -19 -6 -12 -11 hvcurveto
          -102 -106 rlineto
          -3 -3 -1 -3 -3 vvcurveto
          -11 16 -10 22 20 24 8 22 21 vhcurveto
          52 52 rlineto
          endchar
        </CharString>
        <CharString name="Edieresis">
          -13 0 53 286 55 262 53 74 137 hstemhm
          100 108 -62 137 70 137 -45 101 -86 101 hintmask 1110100010000000
          hintmask 1110100100000000
          503 535 rmoveto
          29 14 15 35 hvcurveto
          87 vlineto
          30 -21 7 -39 vhcurveto
          -340 hlineto
          -31 -15 -15 -35 hvcurveto
          -609 vlineto
          -35 15 -15 31 vhcurveto
          hintmask 1110100010000000
          355 hlineto
          39 21 7 30 hvcurveto
          87 vlineto
          35 -14 15 -29 -38 -20 -17 -48 vhcurveto
          -56 -252 286 210 vlineto
          14 14 14 13 14 -9 14 -19 hvcurveto
          -210 262 hlineto
          hintmask 1110100100000000
          237 -56 hlineto
          -48 20 -17 38 vhcurveto
          hintmask 1111011000000000
          -150 316 rmoveto
          -35 32 -33 36 36 33 33 35 38 -33 31 -36 -36 -32 -31 -38 vhcurveto
          -207 1 rmoveto
          -35 33 -33 34 38 32 33 35 37 -32 32 -38 -34 -33 -32 -37 vhcurveto
          endchar
        </CharString>
        <CharString name="Egrave">
          -13 0 53 286 55 262 53 hstemhm
          100 108 237 101 -86 101 hintmask 11110100
          hintmask 11111000
          503 535 rmoveto
          29 14 15 35 hvcurveto
          87 vlineto
          30 -21 7 -39 vhcurveto
          -340 hlineto
          -31 -15 -15 -35 hvcurveto
          -609 vlineto
          -35 15 -15 31 vhcurveto
          hintmask 11110100
          355 hlineto
          39 21 7 30 hvcurveto
          87 vlineto
          35 -14 15 -29 -38 -20 -17 -48 vhcurveto
          -56 -252 286 210 vlineto
          14 14 14 13 14 -9 14 -19 hvcurveto
          -210 262 hlineto
          hintmask 11111000
          237 -56 hlineto
          -48 20 -17 38 vhcurveto
          -208 247 rmoveto
          -10 8 15 -6 14 hhcurveto
          16 12 7 12 3 0 3 -2 4 hvcurveto
          -57 142 rlineto
          18 -8 -26 8 -25 hhcurveto
          -36 -20 -10 -14 -3 1 -4 2 -3 hvcurveto
          endchar
        </CharString>
        <CharString name="Eth">
          79 0 54 285 55 262 53 hstem
          100 108 319 113 vstem
          36 394 rmoveto
          -14 -7 -14 -14 -13 7 -14 14 hvcurveto
          64 -289 hlineto
          -35 15 -15 31 vhcurveto
          148 hlineto
          137 209 75 283 307 -204 44 -147 hvcurveto
          -143 hlineto
          -31 -15 -15 -35 hvcurveto
          -265 vlineto
          177 262 rmoveto
          138 112 -77 -221 -216 -112 -88 -138 hvcurveto
          -47 -1 -22 286 169 hlineto
          14 7 14 13 14 -7 14 -14 hvcurveto
          -169 262 hlineto
          endchar
        </CharString>
        <CharString name="Euro">
          -84 0 52 209 55 62 55 225 51 hstem
          61 104 248 93 vstem
          348 261 rmoveto
          14 7 14 13 14 -7 14 -14 hvcurveto
          -183 62 227 hlineto
          14 7 14 13 14 -7 14 -14 hvcurveto
          -222 hlineto
          150 18 66 75 97 hhcurveto
          24 17 -3 -5 21 hvcurveto
          -48 vlineto
          -48 18 -17 35 27 13 15 35 vhcurveto
          52 vlineto
          31 -9 8 -29 10 vhcurveto
          15 -43 -40 6 -46 hhcurveto
          -141 -108 -86 -190 -24 hvcurveto
          -54 hlineto
          -14 -7 -14 -14 -13 7 -14 14 hvcurveto
          49 -62 -49 hlineto
          -14 -7 -14 -14 -13 7 -14 14 hvcurveto
          54 hlineto
          -164 20 85 -97 165 hhcurveto
          74 37 14 20 45 hvcurveto
          16 7 rlineto
          8 4 4 8 8 vvcurveto
          14 -9 16 -13 -3 -2 -1 -1 -3 vhcurveto
          -17 -8 rlineto
          -19 -40 -33 -10 -38 hhcurveto
          -104 -72 48 161 -17 hvcurveto
          endchar
        </CharString>
        <CharString name="F">
          -58 21 -21 334 55 267 53 hstem
          100 108 237 101 vstem
          418 334 rmoveto
          14 14 14 13 14 -9 14 -19 hvcurveto
          -210 267 237 -46 hlineto
          -48 20 -17 38 29 14 15 35 vhcurveto
          77 vlineto
          30 -21 7 -39 vhcurveto
          -340 hlineto
          -31 -15 -15 -35 hvcurveto
          -609 vlineto
          -35 15 -15 31 41 21 17 48 vhcurveto
          269 vlineto
          endchar
        </CharString>
        <CharString name="G">
          66 0 51 236 55 316 51 hstemhm
          53 113 310 101 -72 105 hintmask 11110100
          hintmask 11111000
          534 529 rmoveto
          29 14 15 35 hvcurveto
          59 vlineto
          31 -10 8 -31 10 vhcurveto
          15 -49 -54 7 -50 hhcurveto
          -179 -151 -110 -250 -216 92 -133 221 hvcurveto
          hintmask 11110100
          78 65 10 27 69 hvcurveto
          20 8 12 10 40 vvcurveto
          207 vlineto
          25 -7 15 -37 vhcurveto
          -170 hlineto
          -19 -9 -14 -14 -13 8 -14 17 hvcurveto
          112 -216 hlineto
          -17 -41 -46 -3 -33 hhcurveto
          -134 -85 66 230 209 101 102 128 hvcurveto
          hintmask 11111000
          29 24 -1 -7 28 hvcurveto
          -56 vlineto
          -48 20 -17 38 vhcurveto
          endchar
        </CharString>
        <CharString name="Gbreve">
          66 0 51 236 55 316 51 59 67 hstemhm
          53 113 310 101 -72 105 hintmask 11111010
          hintmask 11111100
          534 529 rmoveto
          29 14 15 35 hvcurveto
          59 vlineto
          31 -10 8 -31 10 vhcurveto
          15 -49 -54 7 -50 hhcurveto
          -179 -151 -110 -250 -216 92 -133 221 hvcurveto
          hintmask 11111010
          78 65 10 27 69 hvcurveto
          20 8 12 10 40 vvcurveto
          207 vlineto
          25 -7 15 -37 vhcurveto
          -170 hlineto
          -19 -9 -14 -14 -13 8 -14 17 hvcurveto
          112 -216 hlineto
          -17 -41 -46 -3 -33 hhcurveto
          -134 -85 66 230 209 101 102 128 hvcurveto
          hintmask 11111100
          29 24 -1 -7 28 hvcurveto
          -56 vlineto
          -48 20 -17 38 vhcurveto
          hintmask 11111010
          -13 365 rmoveto
          14 -9 14 -21 -17 -16 -12 -15 -7 vhcurveto
          -50 -20 -32 -10 -40 hhcurveto
          -39 -32 10 50 -20 hvcurveto
          15 -7 -16 12 -17 hhcurveto
          -21 -9 -14 -14 -69 64 -57 97 98 64 57 69 hvcurveto
          endchar
        </CharString>
        <CharString name="Grave">
          160 766 197 hstem
          220 174 vstem
          329 782 rmoveto
          -10 8 15 -6 14 hhcurveto
          16 12 7 12 3 0 3 -2 4 hvcurveto
          -57 142 rlineto
          18 -8 -26 8 -25 hhcurveto
          -36 -20 -10 -14 -3 1 -4 2 -3 hvcurveto
          endchar
        </CharString>
        <CharString name="H">
          128 21 -21 339 55 315 -20 hstem
          100 108 326 108 vstem
          596 709 rmoveto
          -41 -21 -17 -48 hvcurveto
          -250 -326 238 vlineto
          51 -23 26 -41 -31 -13 -13 -37 vhcurveto
          -609 vlineto
          -35 15 -15 31 41 21 17 48 vhcurveto
          274 326 -262 vlineto
          -51 23 -26 41 31 13 13 37 vhcurveto
          609 vlineto
          35 -15 15 -31 vhcurveto
          endchar
        </CharString>
        <CharString name="I">
          -206 0 53 603 53 hstem
          150 108 vstem
          358 hmoveto
          26 4 12 12 15 -6 14 -34 hvcurveto
          -90 603 90 hlineto
          34 6 14 15 12 -4 12 -26 hvcurveto
          -308 hlineto
          -26 -4 -12 -12 -15 6 -14 34 hvcurveto
          90 -603 -90 hlineto
          -34 -6 -14 -15 -12 4 -12 26 hvcurveto
          endchar
        </CharString>
        <CharString name="Iacute">
          -206 0 53 603 53 hstem
          150 108 vstem
          358 hmoveto
          26 4 12 12 15 -6 14 -34 hvcurveto
          -90 603 90 hlineto
          34 6 14 15 12 -4 12 -26 hvcurveto
          -308 hlineto
          -26 -4 -12 -12 -15 6 -14 34 hvcurveto
          90 -603 -90 hlineto
          -34 -6 -14 -15 -12 4 -12 26 hvcurveto
          293 929 rmoveto
          2 3 1 4 3 vvcurveto
          14 -20 10 -36 -25 -26 -8 -18 -8 vhcurveto
          -57 -142 rlineto
          -2 -4 0 -3 -3 vvcurveto
          -12 12 -7 16 14 15 6 10 8 vhcurveto
          endchar
        </CharString>
        <CharString name="Icircumflex">
          -206 0 53 603 53 hstem
          150 108 vstem
          358 hmoveto
          26 4 12 12 15 -6 14 -34 hvcurveto
          -90 603 90 hlineto
          34 6 14 15 12 -4 12 -26 hvcurveto
          -308 hlineto
          -26 -4 -12 -12 -15 6 -14 34 hvcurveto
          90 -603 -90 hlineto
          -34 -6 -14 -15 -12 4 -12 26 hvcurveto
          206 795 rmoveto
          -22 21 24 -8 20 hhcurveto
          22 16 10 11 3 -1 3 -3 3 hvcurveto
          -102 106 rlineto
          12 -11 -19 6 -19 hhcurveto
          -19 -19 -6 -12 -11 hvcurveto
          -102 -106 rlineto
          -3 -3 -1 -3 -3 vvcurveto
          -11 16 -10 22 20 24 8 22 21 vhcurveto
          52 52 rlineto
          endchar
        </CharString>
        <CharString name="Idieresis">
          -206 0 53 603 53 74 137 hstemhm
          33 137 -20 108 -18 137 hintmask 11001000
          358 hmoveto
          26 4 12 12 15 -6 14 -34 hvcurveto
          -90 603 90 hlineto
          34 6 14 15 12 -4 12 -26 hvcurveto
          -308 hlineto
          -26 -4 -12 -12 -15 6 -14 34 hvcurveto
          90 -603 -90 hlineto
          -34 -6 -14 -15 -12 4 -12 26 hvcurveto
          hintmask 11110100
          190 851 rmoveto
          -35 32 -33 36 36 33 33 35 38 -33 31 -36 -36 -32 -31 -38 vhcurveto
          -207 1 rmoveto
          -35 33 -33 34 38 32 33 35 37 -32 32 -38 -34 -33 -32 -37 vhcurveto
          endchar
        </CharString>
        <CharString name="Idotaccent">
          -206 0 53 603 53 74 137 hstemhm
          136 137 -123 108 hintmask 11001000
          358 hmoveto
          26 4 12 12 15 -6 14 -34 hvcurveto
          -90 603 90 hlineto
          34 6 14 15 12 -4 12 -26 hvcurveto
          -308 hlineto
          -26 -4 -12 -12 -15 6 -14 34 hvcurveto
          90 -603 -90 hlineto
          -34 -6 -14 -15 -12 4 -12 26 hvcurveto
          hintmask 11110000
          86 851 rmoveto
          -35 32 -33 36 36 33 33 35 38 -33 31 -36 -36 -32 -31 -38 vhcurveto
          endchar
        </CharString>
        <CharString name="Igrave">
          -206 0 53 603 53 hstem
          150 108 vstem
          358 hmoveto
          26 4 12 12 15 -6 14 -34 hvcurveto
          -90 603 90 hlineto
          34 6 14 15 12 -4 12 -26 hvcurveto
          -308 hlineto
          -26 -4 -12 -12 -15 6 -14 34 hvcurveto
          90 -603 -90 hlineto
          -34 -6 -14 -15 -12 4 -12 26 hvcurveto
          127 782 rmoveto
          -10 8 15 -6 14 hhcurveto
          16 12 7 12 3 0 3 -2 4 hvcurveto
          -57 142 rlineto
          18 -8 -26 8 -25 hhcurveto
          -36 -20 -10 -14 -3 1 -4 2 -3 hvcurveto
          endchar
        </CharString>
        <CharString name="J">
          -130 0 52 657 -20 hstem
          35 101 164 108 vstem
          362 709 rmoveto
          -41 -21 -17 -48 hvcurveto
          -436 vlineto
          -70 -24 -86 -98 -11 -19 1 2 -12 vhcurveto
          49 vlineto
          48 -20 17 -38 -29 -14 -15 -35 vhcurveto
          -67 vlineto
          -15 6 -9 14 -7 vhcurveto
          -11 22 62 -10 37 hhcurveto
          207 25 171 90 hvcurveto
          398 vlineto
          35 -15 15 -31 vhcurveto
          endchar
        </CharString>
        <CharString name="K">
          -3 21 -21 709 -20 hstem
          100 108 vstem
          208 632 rmoveto
          51 -23 26 -41 -31 -13 -13 -37 vhcurveto
          -609 vlineto
          -35 15 -15 31 41 21 17 48 vhcurveto
          250 vlineto
          18 19 249 -285 rlineto
          -42 36 27 -7 27 hhcurveto
          25 16 18 19 10 -6 10 -8 9 hvcurveto
          -289 324 286 275 rlineto
          3 3 2 4 5 vvcurveto
          15 -15 17 -21 -13 -13 -5 -15 -14 vhcurveto
          -310 -307 rlineto
          endchar
        </CharString>
        <CharString name="L">
          -43 0 53 656 -20 hstem
          100 108 227 101 vstem
          493 187 rmoveto
          -38 -20 -17 -48 hvcurveto
          -69 -227 579 vlineto
          51 -23 26 -41 -31 -13 -13 -37 vhcurveto
          -609 vlineto
          -35 15 -15 31 vhcurveto
          330 hlineto
          39 21 8 24 hvcurveto
          105 vlineto
          35 -14 15 -29 vhcurveto
          endchar
        </CharString>
        <CharString name="Lslash">
          -19 0 53 656 -20 hstem
          124 108 227 101 vstem
          424 445 rmoveto
          4 2 1 4 5 vvcurveto
          16 -1 -19 22 -13 hhcurveto
          -2 -1 0 -1 -2 hvcurveto
          -159 -101 rlineto
          240 vlineto
          51 -23 26 -41 -31 -13 -13 -37 vhcurveto
          -336 vlineto
          -121 -77 rlineto
          -3 -2 -2 -4 -3 vvcurveto
          -14 1 20 -22 13 hhcurveto
          2 2 1 1 2 hvcurveto
          86 54 rlineto
          -207 vlineto
          -35 15 -15 31 vhcurveto
          330 hlineto
          39 21 8 24 hvcurveto
          105 vlineto
          35 -14 15 -29 -38 -20 -17 -48 vhcurveto
          -69 -227 271 vlineto
          endchar
        </CharString>
        <CharString name="M">
          263 21 -21 709 -20 hstem
          100 79 497 101 vstem
          736 hmoveto
          31 10 13 37 hvcurveto
          606 vlineto
          37 -17 16 -34 -31 -35 -13 -40 -15 vhcurveto
          -209 -526 rlineto
          -5 hlineto
          -192 531 rlineto
          36 -14 -36 12 -25 hhcurveto
          -32 -32 -18 -35 hvcurveto
          -611 vlineto
          -33 19 -12 19 18 23 13 43 vhcurveto
          505 7 vlineto
          192 -524 rlineto
          -25 10 15 -12 18 hhcurveto
          19 13 13 24 10 hvcurveto
          206 524 rlineto
          7 -484 hlineto
          -51 19 -26 41 vhcurveto
          endchar
        </CharString>
        <CharString name="N">
          129 21 -21 709 -20 hstem
          100 79 385 79 vstem
          138 hmoveto
          18 23 13 43 hvcurveto
          505 6 vlineto
          327 -521 rlineto
          -25 16 23 -15 34 hhcurveto
          31 27 19 39 hvcurveto
          606 vlineto
          33 -19 12 -19 -18 -23 -13 -43 vhcurveto
          -505 -5 vlineto
          -327 519 rlineto
          34 -22 -23 8 -27 hhcurveto
          -32 -28 -19 -35 hvcurveto
          -610 vlineto
          -33 19 -12 19 vhcurveto
          endchar
        </CharString>
        <CharString name="Ntilde">
          129 21 -21 709 -20 105 75 -40 75 hstemhm
          100 79 385 79 hintmask 11011100
          138 hmoveto
          18 23 13 43 hvcurveto
          505 6 vlineto
          327 -521 rlineto
          -25 16 23 -15 34 hhcurveto
          31 27 19 39 hvcurveto
          606 vlineto
          33 -19 12 -19 -18 -23 -13 -43 vhcurveto
          -505 -5 vlineto
          -327 519 rlineto
          34 -22 -23 8 -27 hhcurveto
          -32 -28 -19 -35 hvcurveto
          -610 vlineto
          -33 19 -12 19 vhcurveto
          173 829 rmoveto
          13 16 -4 -13 33 hvcurveto
          hintmask 11101100
          -9 23 23 -9 26 hhcurveto
          31 34 18 52 23 hvcurveto
          5 8 3 11 9 vvcurveto
          11 -7 9 -16 -24 -3 -14 -11 -7 vhcurveto
          -9 -5 -7 -9 -19 hhcurveto
          -23 -18 10 9 -23 hvcurveto
          hintmask 11011100
          -35 13 -20 2 -11 1 rrcurveto
          -68 -36 -62 -36 -12 5 -9 24 hvcurveto
          39 -22 44 46 hhcurveto
          endchar
        </CharString>
        <CharString name="O">
          102 0 51 607 51 hstem
          53 113 384 113 vstem
          663 354 rmoveto
          107 -33 248 -273 -273 -31 -248 -107 -109 31 -245 273 273 33 245 109 vhcurveto
          -113 hmoveto
          -101 -17 -202 -176 -173 -18 202 101 101 18 203 173 176 17 -203 -101 vhcurveto
          endchar
        </CharString>
        <CharString name="OE">
          312 0 53 286 55 262 53 hstemhm
          53 113 272 108 224 101 -86 101 hintmask 11111010
          hintmask 11111100
          828 535 rmoveto
          29 14 15 35 hvcurveto
          87 vlineto
          30 -21 7 -39 vhcurveto
          -444 hlineto
          -273 -41 -248 -107 -109 41 -245 273 hvcurveto
          hintmask 11111010
          459 hlineto
          39 21 7 30 hvcurveto
          87 vlineto
          35 -14 15 -29 -38 -20 -17 -48 vhcurveto
          -56 -239 286 197 vlineto
          14 14 14 13 14 -9 14 -19 hvcurveto
          -197 262 hlineto
          hintmask 11111100
          224 -56 hlineto
          -48 20 -17 38 vhcurveto
          -461 -484 rmoveto
          -173 -28 202 101 101 28 203 173 hvcurveto
          hintmask 11111010
          30 19 -2 -4 22 hvcurveto
          -595 vlineto
          hintmask 11111100
          -5 -22 -19 -1 -30 hhcurveto
          endchar
        </CharString>
        <CharString name="Oacute">
          102 0 51 607 51 hstem
          53 113 384 113 vstem
          663 354 rmoveto
          107 -33 248 -273 -273 -31 -248 -107 -109 31 -245 273 273 33 245 109 vhcurveto
          -113 hmoveto
          -101 -17 -202 -176 -173 -18 202 101 101 18 203 173 176 17 -203 -101 vhcurveto
          -64 575 rmoveto
          2 3 1 4 3 vvcurveto
          14 -20 10 -36 -25 -26 -8 -18 -8 vhcurveto
          -57 -142 rlineto
          -2 -4 0 -3 -3 vvcurveto
          -12 12 -7 16 14 15 6 10 8 vhcurveto
          endchar
        </CharString>
        <CharString name="Ocircumflex">
          102 0 51 607 51 hstem
          53 113 384 113 vstem
          663 354 rmoveto
          107 -33 248 -273 -273 -31 -248 -107 -109 31 -245 273 273 33 245 109 vhcurveto
          -113 hmoveto
          -101 -17 -202 -176 -173 -18 202 101 101 18 203 173 176 17 -203 -101 vhcurveto
          -140 441 rmoveto
          -22 21 24 -8 20 hhcurveto
          22 16 10 11 3 -1 3 -3 3 hvcurveto
          -102 106 rlineto
          12 -11 -19 6 -19 hhcurveto
          -19 -19 -6 -12 -11 hvcurveto
          -102 -106 rlineto
          -3 -3 -1 -3 -3 vvcurveto
          -11 16 -10 22 20 24 8 22 21 vhcurveto
          52 52 rlineto
          endchar
        </CharString>
        <CharString name="Odieresis">
          102 0 51 607 51 74 137 hstemhm
          53 113 20 137 70 137 20 113 hintmask 11010010
          663 354 rmoveto
          107 -33 248 -273 -273 -31 -248 -107 -109 31 -245 273 273 33 245 109 vhcurveto
          -113 hmoveto
          -101 -17 -202 -176 -173 -18 202 101 101 18 203 173 176 17 -203 -101 vhcurveto
          hintmask 11111110
          -157 497 rmoveto
          -35 32 -33 36 36 33 33 35 38 -33 31 -36 -36 -32 -31 -38 vhcurveto
          -207 1 rmoveto
          -35 33 -33 34 38 32 33 35 37 -32 32 -38 -34 -33 -32 -37 vhcurveto
          endchar
        </CharString>
        <CharString name="Ograve">
          102 0 51 607 51 hstem
          53 113 384 113 vstem
          663 354 rmoveto
          107 -33 248 -273 -273 -31 -248 -107 -109 31 -245 273 273 33 245 109 vhcurveto
          -113 hmoveto
          -101 -17 -202 -176 -173 -18 202 101 101 18 203 173 176 17 -203 -101 vhcurveto
          -221 428 rmoveto
          -10 8 15 -6 14 hhcurveto
          16 12 7 12 3 0 3 -2 4 hvcurveto
          -57 142 rlineto
          18 -8 -26 8 -25 hhcurveto
          -36 -20 -10 -14 -3 1 -4 2 -3 hvcurveto
          endchar
        </CharString>
        <CharString name="Oslash">
          102 0 51 607 51 hstem
          53 113 384 113 vstem
          617 744 rmoveto
          1 2 0 2 2 vvcurveto
          15 -25 20 -19 -5 -5 -2 -4 -2 vhcurveto
          -58 -102 rlineto
          20 -39 -48 12 -60 hhcurveto
          -273 -31 -248 -107 -73 14 -134 90 -80 hvcurveto
          -60 -107 rlineto
          -1 -2 0 -1 -2 vvcurveto
          -14 24 -17 18 6 4 2 4 3 vhcurveto
          58 102 rlineto
          -20 39 49 -12 60 hhcurveto
          273 33 245 109 71 -15 134 -90 81 hvcurveto
          -8 -286 rmoveto
          -101 -17 -202 -176 -49 -37 16 25 -27 vhcurveto
          268 468 rlineto
          33 -66 5 -85 -55 vvcurveto
          -384 hmoveto
          101 18 203 173 49 36 -16 -25 28 vhcurveto
          -266 -469 rlineto
          -33 66 -5 85 55 vvcurveto
          endchar
        </CharString>
        <CharString name="Otilde">
          102 0 51 607 51 85 75 -40 75 hstemhm
          53 113 384 113 hintmask 11011100
          663 354 rmoveto
          107 -33 248 -273 -273 -31 -248 -107 -109 31 -245 273 273 33 245 109 vhcurveto
          -113 hmoveto
          -101 -17 -202 -176 -173 -18 202 101 101 18 203 173 176 17 -203 -101 vhcurveto
          -260 475 rmoveto
          13 16 -4 -13 33 hvcurveto
          hintmask 11101100
          -9 23 23 -9 26 hhcurveto
          31 34 18 52 23 hvcurveto
          5 8 3 11 9 vvcurveto
          11 -7 9 -16 -24 -3 -14 -11 -7 vhcurveto
          -9 -5 -7 -9 -19 hhcurveto
          -23 -18 10 9 -23 hvcurveto
          hintmask 11011100
          -35 13 -20 2 -11 1 rrcurveto
          -68 -36 -62 -36 -12 5 -9 24 hvcurveto
          39 -22 44 46 hhcurveto
          endchar
        </CharString>
        <CharString name="P">
          3 21 -21 275 53 328 53 hstem
          100 108 261 113 vstem
          312 275 rmoveto
          184 86 102 125 202 -193 5 -78 hvcurveto
          -167 hlineto
          -31 -13 -13 -37 hvcurveto
          -609 vlineto
          -35 15 -15 31 41 21 17 48 vhcurveto
          210 vlineto
          103 381 rmoveto
          119 39 -61 -93 -123 -62 -51 -96 hvcurveto
          -103 328 hlineto
          endchar
        </CharString>
        <CharString name="Q">
          102 0 51 607 51 hstem
          53 113 384 113 vstem
          663 354 rmoveto
          107 -33 248 -273 -273 -31 -248 -107 -109 31 -245 273 41 36 6 10 31 vhcurveto
          41 -48 rlineto
          -22 18 22 -8 20 hhcurveto
          24 19 12 15 5 -2 5 -4 5 hvcurveto
          -64 77 rlineto
          107 82 17 137 78 vvcurveto
          -113 hmoveto
          -70 -7 -98 -53 -71 vhcurveto
          -51 61 rlineto
          24 -19 -23 9 -19 hhcurveto
          -21 -17 -13 -18 -8 4 -9 8 -10 hvcurveto
          73 -88 rlineto
          -8 -19 -23 -4 -26 hhcurveto
          -173 -18 202 101 101 18 203 173 176 17 -203 -101 hvcurveto
          endchar
        </CharString>
        <CharString name="R">
          29 21 -21 319 53 284 53 hstem
          100 108 265 113 vstem
          100 50 rmoveto
          -35 15 -15 31 41 21 17 48 vhcurveto
          254 91 vlineto
          168 -281 rlineto
          -28 17 27 -10 24 hhcurveto
          35 16 14 19 8 -3 9 -6 9 hvcurveto
          -166 267 rlineto
          83 14 92 73 103 vvcurveto
          156 -119 37 -134 vhcurveto
          -189 hlineto
          -31 -13 -13 -37 hvcurveto
          223 -3 rmoveto
          57 93 -10 -124 -113 -88 -37 -70 hvcurveto
          -107 284 hlineto
          endchar
        </CharString>
        <CharString name="Ring">
          105 752 59 101 59 hstem
          250 59 101 59 vstem
          250 861 rmoveto
          -61 49 -48 61 61 48 48 61 61 -48 49 -61 -61 -49 -49 -61 vhcurveto
          59 hmoveto
          27 24 24 27 26 24 -24 -27 -26 -24 -24 -26 -27 -24 24 26 vhcurveto
          endchar
        </CharString>
        <CharString name="S">
          17 0 51 607 51 hstemhm
          61 112 -109 101 259 101 -66 112 hintmask 11011000
          482 527 rmoveto
          29 14 15 33 hvcurveto
          58 vlineto
          29 -10 8 -31 10 vhcurveto
          15 -51 -57 14 -77 hhcurveto
          hintmask 11100100
          -152 -86 -74 -107 -120 92 -36 138 -51 hvcurveto
          114 -42 54 -28 -68 vvcurveto
          -65 -58 -67 -114 vhcurveto
          hintmask 11010100
          -43 -40 8 13 -39 hvcurveto
          54 vlineto
          46 -20 17 -38 -29 -14 -15 -33 vhcurveto
          -60 vlineto
          -29 10 -7 29 -12 vhcurveto
          -18 47 80 -15 61 hhcurveto
          181 99 83 111 115 -88 32 -175 63 hvcurveto
          hintmask 11101000
          -101 37 -34 24 69 vvcurveto
          55 39 69 94 36 33 -4 -9 32 vhcurveto
          6 -2 5 -2 6 -1 rrcurveto
          -51 vlineto
          hintmask 11011000
          -46 20 -16 38 vhcurveto
          endchar
        </CharString>
        <CharString name="Scaron">
          17 0 51 607 51 hstemhm
          61 112 -109 101 259 101 -66 112 hintmask 11011000
          482 527 rmoveto
          29 14 15 33 hvcurveto
          58 vlineto
          29 -10 8 -31 10 vhcurveto
          15 -51 -57 14 -77 hhcurveto
          hintmask 11100100
          -152 -86 -74 -107 -120 92 -36 138 -51 hvcurveto
          114 -42 54 -28 -68 vvcurveto
          -65 -58 -67 -114 vhcurveto
          hintmask 11010100
          -43 -40 8 13 -39 hvcurveto
          54 vlineto
          46 -20 17 -38 -29 -14 -15 -33 vhcurveto
          -60 vlineto
          -29 10 -7 29 -12 vhcurveto
          -18 47 80 -15 61 hhcurveto
          181 99 83 111 115 -88 32 -175 63 hvcurveto
          hintmask 11101000
          -101 37 -34 24 69 vvcurveto
          55 39 69 94 36 33 -4 -9 32 vhcurveto
          6 -2 5 -2 6 -1 rrcurveto
          -51 vlineto
          hintmask 11011000
          -46 20 -16 38 vhcurveto
          -229 361 rmoveto
          23 -24 -25 8 -21 hhcurveto
          -24 -17 -10 -12 -3 1 -3 3 -3 hvcurveto
          110 -109 rlineto
          -14 14 19 -5 23 hhcurveto
          19 18 7 12 12 hvcurveto
          110 109 rlineto
          3 3 1 3 3 vvcurveto
          12 -17 10 -24 -21 -26 -9 -22 -23 vhcurveto
          -56 -54 rlineto
          endchar
        </CharString>
        <CharString name="Scedilla">
          17 -210 51 78 39 42 51 607 51 hstemhm
          61 112 -109 101 100 55 26 80 -2 101 -66 112 hintmask 1111011010000000
          482 527 rmoveto
          29 14 15 33 hvcurveto
          58 vlineto
          29 -10 8 -31 10 vhcurveto
          15 -51 -57 14 -77 hhcurveto
          hintmask 1111101001000000
          -152 -86 -74 -107 -120 92 -36 138 -51 hvcurveto
          114 -42 54 -28 -68 vvcurveto
          -65 -58 -67 -114 vhcurveto
          hintmask 1111011010000000
          -43 -40 8 13 -39 hvcurveto
          54 vlineto
          46 -20 17 -38 -29 -14 -15 -33 vhcurveto
          -60 vlineto
          -29 10 -7 29 -12 vhcurveto
          40 -16 65 -13 57 -4 rrcurveto
          -81 vlineto
          hintmask 1111011100000000
          52 29 -4 -38 -17 -13 -19 -36 hvcurveto
          -22 -24 12 -15 hhcurveto
          -14 -8 -10 -10 -29 60 -14 35 67 50 34 56 hvcurveto
          hintmask 1111101001000000
          62 -53 16 -53 vhcurveto
          42 vlineto
          162 9 89 80 105 vvcurveto
          115 -88 32 -175 63 vhcurveto
          -101 37 -34 24 69 vvcurveto
          55 39 69 94 vhcurveto
          hintmask 1111011010000000
          36 33 -4 -9 32 hvcurveto
          6 -2 5 -2 6 -1 rrcurveto
          -51 vlineto
          -46 20 -16 38 vhcurveto
          endchar
        </CharString>
        <CharString name="T">
          36 21 -21 656 53 hstem
          20 101 150 108 150 101 cntrmask 00111000
          529 656 rmoveto
          -71 vlineto
          -48 20 -17 38 29 14 15 35 vhcurveto
          102 vlineto
          30 -21 7 -39 vhcurveto
          -490 hlineto
          -39 -21 -7 -30 hvcurveto
          -102 vlineto
          -35 14 -15 29 38 20 17 48 vhcurveto
          71 150 -606 vlineto
          -35 15 -15 31 41 21 12 48 vhcurveto
          596 vlineto
          endchar
        </CharString>
        <CharString name="Thorn">
          8 21 -21 142 53 328 53 133 -20 hstem
          100 108 256 113 vstem
          208 632 rmoveto
          51 -23 26 -41 -31 -13 -13 -37 vhcurveto
          -609 vlineto
          -35 15 -15 31 41 21 17 48 vhcurveto
          77 99 vlineto
          184 86 102 125 202 -193 5 -78 hvcurveto
          -98 hlineto
          98 -53 rmoveto
          119 39 -61 -93 -123 -62 -51 -96 hvcurveto
          -98 328 hlineto
          endchar
        </CharString>
        <CharString name="Tilde">
          108 794 75 -40 75 hstemhm
          200 322 hintmask 01100000
          292 829 rmoveto
          13 16 -4 -13 33 hvcurveto
          hintmask 10100000
          -9 23 23 -9 26 hhcurveto
          31 34 18 52 23 hvcurveto
          5 8 3 11 9 vvcurveto
          11 -7 9 -16 -24 -3 -14 -11 -7 vhcurveto
          -9 -5 -7 -9 -19 hhcurveto
          -23 -18 10 9 -23 hvcurveto
          hintmask 01100000
          -35 13 -20 2 -11 1 rrcurveto
          -68 -36 -62 -36 -12 5 -9 24 hvcurveto
          39 -22 44 46 hhcurveto
          endchar
        </CharString>
        <CharString name="U">
          104 -15 61 663 -20 hstem
          93 108 345 79 vstem
          201 632 rmoveto
          51 -23 26 -41 -31 -13 -13 -37 vhcurveto
          -408 vlineto
          -94 25 -172 240 230 37 175 94 vhcurveto
          410 vlineto
          33 -19 12 -19 -18 -23 -13 -43 vhcurveto
          -430 vlineto
          -101 -63 -76 -105 -111 -66 65 108 vhcurveto
          endchar
        </CharString>
        <CharString name="Uacute">
          104 -15 61 663 -20 hstem
          93 108 345 79 vstem
          201 632 rmoveto
          51 -23 26 -41 -31 -13 -13 -37 vhcurveto
          -408 vlineto
          -94 25 -172 240 230 37 175 94 vhcurveto
          410 vlineto
          33 -19 12 -19 -18 -23 -13 -43 vhcurveto
          -430 vlineto
          -101 -63 -76 -105 -111 -66 65 108 vhcurveto
          287 710 rmoveto
          2 3 1 4 3 vvcurveto
          14 -20 10 -36 -25 -26 -8 -18 -8 vhcurveto
          -57 -142 rlineto
          -2 -4 0 -3 -3 vvcurveto
          -12 12 -7 16 14 15 6 10 8 vhcurveto
          endchar
        </CharString>
        <CharString name="Ucircumflex">
          104 -15 61 663 -20 hstem
          93 108 345 79 vstem
          201 632 rmoveto
          51 -23 26 -41 -31 -13 -13 -37 vhcurveto
          -408 vlineto
          -94 25 -172 240 230 37 175 94 vhcurveto
          410 vlineto
          33 -19 12 -19 -18 -23 -13 -43 vhcurveto
          -430 vlineto
          -101 -63 -76 -105 -111 -66 65 108 vhcurveto
          210 576 rmoveto
          -22 21 24 -8 20 hhcurveto
          22 16 10 11 3 -1 3 -3 3 hvcurveto
          -102 106 rlineto
          12 -11 -19 6 -19 hhcurveto
          -19 -19 -6 -12 -11 hvcurveto
          -102 -106 rlineto
          -3 -3 -1 -3 -3 vvcurveto
          -11 16 -10 22 20 24 8 22 21 vhcurveto
          52 52 rlineto
          endchar
        </CharString>
        <CharString name="Udieresis">
          104 -15 61 663 -20 94 137 hstemhm
          93 108 -9 137 70 137 10 79 hintmask 11110010
          201 632 rmoveto
          51 -23 26 -41 -31 -13 -13 -37 vhcurveto
          -408 vlineto
          -94 25 -172 240 230 37 175 94 vhcurveto
          410 vlineto
          33 -19 12 -19 -18 -23 -13 -43 vhcurveto
          -430 vlineto
          -101 -63 -76 -105 -111 -66 65 108 vhcurveto
          hintmask 11101110
          198 632 rmoveto
          -35 32 -33 36 36 33 33 35 38 -33 31 -36 -36 -32 -31 -38 vhcurveto
          -207 1 rmoveto
          -35 33 -33 34 38 32 33 35 37 -32 32 -38 -34 -33 -32 -37 vhcurveto
          endchar
        </CharString>
        <CharString name="Ugrave">
          104 -15 61 663 -20 hstem
          93 108 345 79 vstem
          201 632 rmoveto
          51 -23 26 -41 -31 -13 -13 -37 vhcurveto
          -408 vlineto
          -94 25 -172 240 230 37 175 94 vhcurveto
          410 vlineto
          33 -19 12 -19 -18 -23 -13 -43 vhcurveto
          -430 vlineto
          -101 -63 -76 -105 -111 -66 65 108 vhcurveto
          135 563 rmoveto
          -10 8 15 -6 14 hhcurveto
          16 12 7 12 3 0 3 -2 4 hvcurveto
          -57 142 rlineto
          18 -8 -26 8 -25 hhcurveto
          -36 -20 -10 -14 -3 1 -4 2 -3 hvcurveto
          endchar
        </CharString>
        <CharString name="V">
          -17 21 -21 709 -20 hstem
          18 565 vstem
          314 113 rmoveto
          -6 hlineto
          -178 543 rlineto
          48 -16 -34 5 -19 hhcurveto
          -31 -12 -17 -20 -7 1 -7 3 -8 hvcurveto
          215 -614 rlineto
          -27 9 27 -9 24 hhcurveto
          28 24 9 31 11 hvcurveto
          218 617 rlineto
          3 8 2 9 8 vvcurveto
          15 -12 12 -19 -19 -22 -5 -48 -16 vhcurveto
          endchar
        </CharString>
        <CharString name="W">
          235 21 -21 709 -20 hstem
          26 801 vstem
          610 113 rmoveto
          -6 hlineto
          -114 536 rlineto
          30 -6 -14 30 -31 hhcurveto
          -31 -13 -21 -42 -10 hvcurveto
          -119 -533 rlineto
          -6 hlineto
          -124 543 rlineto
          48 -15 -34 5 -19 hhcurveto
          -30 -12 -17 -20 -7 1 -7 3 -8 hvcurveto
          160 -614 rlineto
          -27 7 29 -9 23 hhcurveto
          26 28 9 31 8 hvcurveto
          116 477 rlineto
          2 hlineto
          105 -481 rlineto
          -27 7 30 -9 22 hhcurveto
          27 26 9 31 9 hvcurveto
          167 617 rlineto
          3 8 2 9 8 vvcurveto
          15 -12 12 -18 -19 -22 -5 -48 -15 vhcurveto
          endchar
        </CharString>
        <CharString name="X">
          -25 21 -21 709 -20 hstem
          30 529 vstem
          311 434 rmoveto
          -6 hlineto
          -125 222 rlineto
          31 -17 -23 22 -38 hhcurveto
          -22 -17 -16 -18 -8 2 -8 5 -8 hvcurveto
          171 -285 -200 -312 rlineto
          -5 -8 -6 -13 -11 vvcurveto
          -11 8 -11 22 18 20 5 49 30 vhcurveto
          157 253 rlineto
          4 hlineto
          150 -255 rlineto
          -36 21 19 -16 41 hhcurveto
          24 15 15 17 9 -3 11 -5 8 hvcurveto
          -197 322 168 273 rlineto
          8 11 3 11 8 vvcurveto
          15 -15 9 -15 -24 -18 -16 -37 -22 vhcurveto
          endchar
        </CharString>
        <CharString name="Y">
          -67 21 -21 709 -20 hstem
          221 108 vstem
          268 hmoveto
          41 20 12 48 hvcurveto
          208 vlineto
          199 386 rlineto
          3 6 2 8 8 vvcurveto
          17 -8 16 -20 -23 -20 -15 -38 -18 vhcurveto
          -150 -313 rlineto
          -4 hlineto
          -159 314 rlineto
          42 -21 -23 10 -33 hhcurveto
          -22 -14 -15 -20 -8 2 -8 4 -9 hvcurveto
          197 -381 rlineto
          -218 vlineto
          -35 16 -15 31 vhcurveto
          endchar
        </CharString>
        <CharString name="Yacute">
          -67 21 -21 709 -20 hstem
          221 108 vstem
          268 hmoveto
          41 20 12 48 hvcurveto
          208 vlineto
          199 386 rlineto
          3 6 2 8 8 vvcurveto
          17 -8 16 -20 -23 -20 -15 -38 -18 vhcurveto
          -150 -313 rlineto
          -4 hlineto
          -159 314 rlineto
          42 -21 -23 10 -33 hhcurveto
          -22 -14 -15 -20 -8 2 -8 4 -9 hvcurveto
          197 -381 rlineto
          -218 vlineto
          -35 16 -15 31 vhcurveto
          153 929 rmoveto
          2 3 1 4 3 vvcurveto
          14 -20 10 -36 -25 -26 -8 -18 -8 vhcurveto
          -57 -142 rlineto
          -2 -4 0 -3 -3 vvcurveto
          -12 12 -7 16 14 15 6 10 8 vhcurveto
          endchar
        </CharString>
        <CharString name="Ydieresis">
          -67 21 -21 709 -20 94 137 hstemhm
          114 137 -30 108 -8 137 hintmask 11101000
          268 hmoveto
          41 20 12 48 hvcurveto
          208 vlineto
          199 386 rlineto
          3 6 2 8 8 vvcurveto
          17 -8 16 -20 -23 -20 -15 -38 -18 vhcurveto
          -150 -313 rlineto
          -4 hlineto
          -159 314 rlineto
          42 -21 -23 10 -33 hhcurveto
          -22 -14 -15 -20 -8 2 -8 4 -9 hvcurveto
          197 -381 rlineto
          -218 vlineto
          -35 16 -15 31 vhcurveto
          hintmask 11110100
          53 851 rmoveto
          -35 32 -33 36 36 33 33 35 38 -33 31 -36 -36 -32 -31 -38 vhcurveto
          -207 1 rmoveto
          -35 33 -33 34 38 32 33 35 37 -32 32 -38 -34 -33 -32 -37 vhcurveto
          endchar
        </CharString>
        <CharString name="Z">
          -22 0 53 603 53 hstem
          62 101 288 101 vstem
          492 hmoveto
          39 21 7 30 hvcurveto
          87 vlineto
          35 -14 15 -29 -38 -20 -17 -48 vhcurveto
          -56 -307 vlineto
          392 571 rlineto
          5 7 3 16 11 vvcurveto
          26 -14 25 -31 vhcurveto
          -377 hlineto
          -39 -21 -7 -30 hvcurveto
          -87 vlineto
          -35 14 -15 29 38 20 17 48 vhcurveto
          56 268 vlineto
          -383 -571 rlineto
          -5 -8 -3 -16 -12 vvcurveto
          -25 13 -24 32 vhcurveto
          endchar
        </CharString>
        <CharString name="Zcaron">
          -22 0 53 603 53 hstem
          62 101 288 101 vstem
          492 hmoveto
          39 21 7 30 hvcurveto
          87 vlineto
          35 -14 15 -29 -38 -20 -17 -48 vhcurveto
          -56 -307 vlineto
          392 571 rlineto
          5 7 3 16 11 vvcurveto
          26 -14 25 -31 vhcurveto
          -377 hlineto
          -39 -21 -7 -30 hvcurveto
          -87 vlineto
          -35 14 -15 29 38 20 17 48 vhcurveto
          56 268 vlineto
          -383 -571 rlineto
          -5 -8 -3 -16 -12 vvcurveto
          -25 13 -24 32 vhcurveto
          168 888 rmoveto
          23 -24 -25 8 -21 hhcurveto
          -24 -17 -10 -12 -3 1 -3 3 -3 hvcurveto
          110 -109 rlineto
          -14 14 19 -5 23 hhcurveto
          19 18 7 12 12 hvcurveto
          110 109 rlineto
          3 3 1 3 3 vvcurveto
          12 -17 10 -24 -21 -26 -9 -22 -23 vhcurveto
          -56 -54 rlineto
          endchar
        </CharString>
        <CharString name="a">
          -68 0 67 201 42 152 40 hstem
          43 104 222 104 vstem
          373 94 rmoveto
          -65 17 -29 44 32 7 17 30 vhcurveto
          274 vlineto
          119 -37 62 -148 -43 -61 -8 -19 -45 vhcurveto
          -31 -13 -24 -15 -28 vvcurveto
          -18 11 -16 24 21 20 13 22 20 vhcurveto
          21 19 27 21 42 hhcurveto
          70 30 -32 -92 hvcurveto
          -28 -73 vlineto
          -202 -50 -89 -86 -80 49 -55 102 77 55 29 66 44 hvcurveto
          -1 173 rmoveto
          -84 vlineto
          -80 -86 -37 -49 -52 -35 21 61 65 35 54 129 vhcurveto
          endchar
        </CharString>
        <CharString name="aacute">
          -68 0 67 201 42 152 40 hstem
          43 104 222 104 vstem
          373 94 rmoveto
          -65 17 -29 44 32 7 17 30 vhcurveto
          274 vlineto
          119 -37 62 -148 -43 -61 -8 -19 -45 vhcurveto
          -31 -13 -24 -15 -28 vvcurveto
          -18 11 -16 24 21 20 13 22 20 vhcurveto
          21 19 27 21 42 hhcurveto
          70 30 -32 -92 hvcurveto
          -28 -73 vlineto
          -202 -50 -89 -86 -80 49 -55 102 77 55 29 66 44 hvcurveto
          -1 173 rmoveto
          -84 vlineto
          -80 -86 -37 -49 -52 -35 21 61 65 35 54 129 vhcurveto
          82 448 rmoveto
          2 2 1 4 3 vvcurveto
          14 -21 10 -33 -24 -25 -8 -18 -8 vhcurveto
          -52 -125 rlineto
          -2 -4 0 -2 -3 vvcurveto
          -12 12 -7 15 14 15 6 10 8 vhcurveto
          endchar
        </CharString>
        <CharString name="accent">
          -604 520 206 hstem
          -130 716 rmoveto
          2 2 1 4 3 vvcurveto
          14 -21 10 -33 -24 -25 -8 -18 -8 vhcurveto
          -52 -125 rlineto
          -2 -4 0 -2 -3 vvcurveto
          -12 12 -7 15 14 15 6 10 8 vhcurveto
          endchar
        </CharString>
        <CharString name="acircumflex">
          -68 0 67 201 42 152 40 hstem
          43 104 222 104 vstem
          373 94 rmoveto
          -65 17 -29 44 32 7 17 30 vhcurveto
          274 vlineto
          119 -37 62 -148 -43 -61 -8 -19 -45 vhcurveto
          -31 -13 -24 -15 -28 vvcurveto
          -18 11 -16 24 21 20 13 22 20 vhcurveto
          21 19 27 21 42 hhcurveto
          70 30 -32 -92 hvcurveto
          -28 -73 vlineto
          -202 -50 -89 -86 -80 49 -55 102 77 55 29 66 44 hvcurveto
          -1 173 rmoveto
          -84 vlineto
          -80 -86 -37 -49 -52 -35 21 61 65 35 54 129 vhcurveto
          14 319 rmoveto
          -22 21 24 -8 20 hhcurveto
          22 16 10 11 3 -1 3 -3 3 hvcurveto
          -102 106 rlineto
          12 -11 -19 6 -19 hhcurveto
          -19 -19 -6 -12 -11 hvcurveto
          -102 -106 rlineto
          -3 -3 -1 -3 -3 vvcurveto
          -11 16 -10 22 20 24 8 22 21 vhcurveto
          52 52 rlineto
          endchar
        </CharString>
        <CharString name="acute">
          -9 570 179 hstem
          230 165 vstem
          392 716 rmoveto
          2 2 1 4 3 vvcurveto
          14 -21 10 -33 -24 -25 -8 -18 -8 vhcurveto
          -52 -125 rlineto
          -2 -4 0 -2 -3 vvcurveto
          -12 12 -7 15 14 15 6 10 8 vhcurveto
          endchar
        </CharString>
        <CharString name="adieresis">
          -68 0 67 201 42 152 40 65 122 hstemhm
          43 104 -33 122 74 122 -63 104 hintmask 11101001
          373 94 rmoveto
          -65 17 -29 44 32 7 17 30 vhcurveto
          274 vlineto
          119 -37 62 -148 -43 -61 -8 -19 -45 vhcurveto
          -31 -13 -24 -15 -28 vvcurveto
          -18 11 -16 24 21 20 13 22 20 vhcurveto
          21 19 27 21 42 hhcurveto
          70 30 -32 -92 hvcurveto
          -28 -73 vlineto
          -202 -50 -89 -86 -80 49 -55 102 77 55 29 66 44 hvcurveto
          -1 173 rmoveto
          -84 vlineto
          -80 -86 -37 -49 -52 -35 21 61 65 35 54 129 vhcurveto
          hintmask 11110110
          -197 360 rmoveto
          -33 28 -28 33 33 28 28 33 33 -28 28 -33 -33 -28 -28 -33 vhcurveto
          196 hmoveto
          -33 28 -28 33 33 28 28 33 33 -28 28 -33 -33 -28 -28 -33 vhcurveto
          endchar
        </CharString>
        <CharString name="ae">
          230 0 44 -44 67 185 42 -26 42 152 40 hstemhm
          43 104 221 113 -112 108 225 102 hintmask 1010110110000000
          754 126 rmoveto
          -29 -24 -33 -53 -81 hhcurveto
          -99 -40 77 109 7 0 7 1 8 hvcurveto
          269 hlineto
          26 31 8 41 133 -83 68 -118 -68 -54 -18 -36 -39 hvcurveto
          36 -27 -47 18 -80 hhcurveto
          -43 -61 -8 -19 -45 hvcurveto
          -31 -13 -24 -15 -28 vvcurveto
          -18 11 -16 24 21 20 13 22 20 vhcurveto
          hintmask 1001111010000000
          21 19 27 21 42 hhcurveto
          70 30 -32 -92 hvcurveto
          -28 -73 vlineto
          -202 -50 -89 -86 -80 49 -55 112 67 89 44 66 33 hvcurveto
          3 hlineto
          -69 35 68 -41 106 hhcurveto
          90 57 36 46 37 hvcurveto
          9 11 4 9 14 vvcurveto
          13 -12 8 -11 vhcurveto
          hintmask 1010110110000000
          -10 -8 -3 -8 -7 hvcurveto
          hintmask 0101110110000000
          -385 142 rmoveto
          -84 vlineto
          -80 -86 -37 -49 -52 -35 21 61 65 35 54 129 vhcurveto
          hintmask 1010111010000000
          286 194 rmoveto
          51 54 -43 -96 -23 -12 -6 -22 hvcurveto
          -187 hlineto
          120 9 46 48 61 hhcurveto
          endchar
        </CharString>
        <CharString name="afii10017">
          61 21 -21 190 52 467 -20 hstem
          42 587 vstem
          181 190 rmoveto
          281 hlineto
          53 -137 rlineto
          -47 17 39 -6 19 hhcurveto
          29 10 16 17 5 -1 5 -1 5 hvcurveto
          -229 634 rlineto
          18 -6 -28 9 -27 hhcurveto
          -25 -24 -8 -16 -6 hvcurveto
          -235 -633 rlineto
          -3 -8 -2 -9 -8 vvcurveto
          -15 8 -12 19 19 24 6 47 18 vhcurveto
          317 189 rmoveto
          -250 hlineto
          123 349 rlineto
          6 hlineto
          endchar
        </CharString>
        <CharString name="afii10018">
          32 0 53 310 53 240 53 hstemhm
          100 108 245 101 -67 113 hintmask 11110100
          hintmask 11111000
          511 535 rmoveto
          29 14 15 35 hvcurveto
          87 vlineto
          30 -21 7 -39 vhcurveto
          -348 hlineto
          -31 -15 -15 -35 hvcurveto
          -609 vlineto
          -35 15 -15 31 vhcurveto
          205 hlineto
          hintmask 11110100
          87 162 39 172 152 -98 53 -149 hvcurveto
          -145 240 hlineto
          hintmask 11111000
          245 -56 hlineto
          -48 20 -17 38 vhcurveto
          hintmask 11110100
          -178 -172 rmoveto
          92 62 -40 -112 -120 -83 -38 -66 hvcurveto
          -130 310 hlineto
          endchar
        </CharString>
        <CharString name="afii10019">
          56 0 53 292 53 258 53 hstemhm
          100 108 252 113 -76 113 hintmask 11110100
          100 659 rmoveto
          -609 vlineto
          -35 15 -15 31 vhcurveto
          210 hlineto
          93 161 30 182 77 -44 69 -106 18 hvcurveto
          5 vlineto
          hintmask 11111000
          72 18 41 69 63 vvcurveto
          120 -77 58 -145 vhcurveto
          -205 hlineto
          hintmask 11110100
          -31 -15 -15 -35 hvcurveto
          232 -314 rmoveto
          71 94 -36 -107 -120 -94 -29 -61 hvcurveto
          -134 292 hlineto
          107 311 rmoveto
          hintmask 11111000
          58 87 -26 -96 -102 -80 -34 -57 hvcurveto
          -115 258 hlineto
          endchar
        </CharString>
        <CharString name="afii10020">
          -63 21 -21 656 53 hstem
          100 108 227 101 vstem
          208 656 rmoveto
          227 -76 hlineto
          -48 20 -17 38 29 14 15 35 vhcurveto
          107 vlineto
          30 -21 7 -39 vhcurveto
          -330 hlineto
          -31 -15 -15 -35 hvcurveto
          -609 vlineto
          -35 15 -15 31 41 21 17 48 vhcurveto
          endchar
        </CharString>
        <CharString name="afii10021">
          93 0 53 603 53 hstemhm
          0 101 68 79 235 108 -11 101 hintmask 11111000
          hintmask 11110100
          580 hmoveto
          -102 vlineto
          -48 20 -17 38 29 14 15 35 vhcurveto
          133 vlineto
          30 -21 7 -39 vhcurveto
          hintmask 11111000
          -30 606 hlineto
          35 -15 15 -31 vhcurveto
          -332 hlineto
          -31 -13 -13 -37 hvcurveto
          -107 vlineto
          -259 -18 -157 -84 -83 vhcurveto
          -10 hlineto
          -37 -1 -20 -7 -29 vvcurveto
          -133 vlineto
          -35 14 -15 29 38 20 17 48 vhcurveto
          102 vlineto
          147 555 rmoveto
          101 235 -603 -323 vlineto
          75 120 13 170 212 vvcurveto
          endchar
        </CharString>
        <CharString name="afii10022">
          -13 0 53 286 55 262 53 hstemhm
          100 108 237 101 -86 101 hintmask 11110100
          hintmask 11111000
          503 535 rmoveto
          29 14 15 35 hvcurveto
          87 vlineto
          30 -21 7 -39 vhcurveto
          -340 hlineto
          -31 -15 -15 -35 hvcurveto
          -609 vlineto
          -35 15 -15 31 vhcurveto
          hintmask 11110100
          355 hlineto
          39 21 7 30 hvcurveto
          87 vlineto
          35 -14 15 -29 -38 -20 -17 -48 vhcurveto
          -56 -252 286 210 vlineto
          14 14 14 13 14 -9 14 -19 hvcurveto
          -210 262 hlineto
          hintmask 11111000
          237 -56 hlineto
          -48 20 -17 38 vhcurveto
          endchar
        </CharString>
        <CharString name="afii10023">
          -13 0 53 286 55 262 53 74 137 hstemhm
          100 108 -62 137 70 137 -45 101 -86 101 hintmask 1110100010000000
          hintmask 1110100100000000
          503 535 rmoveto
          29 14 15 35 hvcurveto
          87 vlineto
          30 -21 7 -39 vhcurveto
          -340 hlineto
          -31 -15 -15 -35 hvcurveto
          -609 vlineto
          -35 15 -15 31 vhcurveto
          hintmask 1110100010000000
          355 hlineto
          39 21 7 30 hvcurveto
          87 vlineto
          35 -14 15 -29 -38 -20 -17 -48 vhcurveto
          -56 -252 286 210 vlineto
          14 14 14 13 14 -9 14 -19 hvcurveto
          -210 262 hlineto
          hintmask 1110100100000000
          237 -56 hlineto
          -48 20 -17 38 vhcurveto
          hintmask 1111011000000000
          -150 316 rmoveto
          -35 32 -33 36 36 33 33 35 38 -33 31 -36 -36 -32 -31 -38 vhcurveto
          -207 1 rmoveto
          -35 33 -33 34 38 32 33 35 37 -32 32 -38 -34 -33 -32 -37 vhcurveto
          endchar
        </CharString>
        <CharString name="afii10024">
          272 21 -21 335 54 320 -20 hstem
          411 106 vstem
          411 389 rmoveto
          -17 hlineto
          -256 300 rlineto
          16 -13 -13 4 -13 hhcurveto
          -21 -14 -17 -15 -5 2 -4 3 -3 hvcurveto
          248 -282 -256 -317 rlineto
          -8 -9 -6 -10 -10 vvcurveto
          -19 17 -18 24 27 28 5 44 33 vhcurveto
          218 286 rlineto
          17 -285 hlineto
          -35 15 -15 36 34 21 12 48 vhcurveto
          275 17 vlineto
          218 -286 rlineto
          -44 33 28 -5 27 hhcurveto
          24 17 18 19 10 -6 10 -8 9 hvcurveto
          -256 317 248 282 rlineto
          3 3 2 4 5 vvcurveto
          15 -14 17 -21 -13 -13 -4 -16 -13 vhcurveto
          -256 -300 rlineto
          -17 261 hlineto
          51 -23 8 -34 -36 -13 -13 -37 vhcurveto
          endchar
        </CharString>
        <CharString name="afii10025">
          -13 0 51 288 55 264 51 hstemhm
          40 101 -87 101 248 110 -90 113 hintmask 11101100
          hintmask 11110010
          141 71 rmoveto
          54 vlineto
          46 -20 17 -38 -29 -14 -15 -33 vhcurveto
          -60 vlineto
          -29 10 -7 29 -12 vhcurveto
          -19 48 69 -13 68 hhcurveto
          199 73 111 96 104 -65 43 -82 13 hvcurveto
          6 vlineto
          hintmask 11101100
          63 20 61 44 96 vvcurveto
          93 -61 83 -171 -62 -65 -9 -18 -59 vhcurveto
          -31 -10 -10 -8 -31 vvcurveto
          -57 vlineto
          -35 14 -15 29 38 20 17 48 vhcurveto
          56 vlineto
          7 31 37 4 38 hhcurveto
          89 53 -52 -73 -71 -28 -68 -110 hvcurveto
          -94 hlineto
          -10 -5 -14 -14 -14 5 -13 10 hvcurveto
          93 hlineto
          hintmask 11101010
          130 29 -64 -68 -72 -46 -84 -118 hvcurveto
          hintmask 11110010
          -50 -26 5 15 -42 hvcurveto
          endchar
        </CharString>
        <CharString name="afii10026">
          126 21 -21 709 -20 hstem
          100 108 324 108 vstem
          594 709 rmoveto
          -41 -10 -17 -18 -11 hvcurveto
          -324 -535 rlineto
          493 vlineto
          51 -23 26 -41 -31 -13 -13 -37 vhcurveto
          -609 vlineto
          -35 15 -15 31 41 12 19 16 9 vhcurveto
          324 535 rlineto
          -493 vlineto
          -51 23 -26 41 31 13 13 37 vhcurveto
          609 vlineto
          35 -15 15 -31 vhcurveto
          endchar
        </CharString>
        <CharString name="afii10027">
          126 21 -21 709 -20 75 41 hstem
          100 108 324 108 vstem
          594 709 rmoveto
          -41 -10 -17 -18 -11 hvcurveto
          -324 -535 rlineto
          493 vlineto
          51 -23 26 -41 -31 -13 -13 -37 vhcurveto
          -609 vlineto
          -35 15 -15 31 41 11 19 16 10 vhcurveto
          324 535 rlineto
          -493 vlineto
          -51 23 -26 41 31 13 13 37 vhcurveto
          609 vlineto
          35 -15 15 -31 vhcurveto
          -144 166 rmoveto
          -38 -7 -19 -32 -54 hhcurveto
          -54 -19 32 38 -7 hvcurveto
          38 -7 -26 9 -29 hhcurveto
          -26 -24 -10 -27 hvcurveto
          -79 5 69 -42 118 hhcurveto
          117 75 43 81 25 -27 9 -23 -29 -26 -9 -38 -7 hvcurveto
          endchar
        </CharString>
        <CharString name="afii10028">
          -8 21 -21 334 55 320 -20 hstem
          100 108 vstem
          208 632 rmoveto
          51 -23 26 -41 -31 -13 -13 -37 vhcurveto
          -609 vlineto
          -35 15 -15 31 41 21 17 48 vhcurveto
          269 21 vlineto
          251 -285 rlineto
          -41 37 26 -8 27 hhcurveto
          25 16 18 19 10 -6 10 -8 9 hvcurveto
          -288 317 285 282 rlineto
          3 3 2 4 5 vvcurveto
          15 -15 17 -21 -13 -13 -5 -15 -14 vhcurveto
          -294 -300 rlineto
          -21 hlineto
          endchar
        </CharString>
        <CharString name="afii10029">
          106 21 -21 656 53 hstem
          198 79 235 108 vstem
          574 709 rmoveto
          -332 hlineto
          -31 -13 -13 -37 hvcurveto
          -107 vlineto
          -149 0 -111 -29 -85 vhcurveto
          -18 -53 -30 -38 -47 -16 rrcurveto
          -46 -15 -8 -7 -24 vvcurveto
          -27 18 -27 25 87 65 106 66 22 vhcurveto
          31 95 9 121 167 vvcurveto
          101 235 -579 vlineto
          -51 23 -26 41 31 13 13 37 vhcurveto
          609 vlineto
          35 -15 15 -31 vhcurveto
          endchar
        </CharString>
        <CharString name="afii10031">
          128 21 -21 339 55 315 -20 hstem
          100 108 326 108 vstem
          596 709 rmoveto
          -41 -21 -17 -48 hvcurveto
          -250 -326 238 vlineto
          51 -23 26 -41 -31 -13 -13 -37 vhcurveto
          -609 vlineto
          -35 15 -15 31 41 21 17 48 vhcurveto
          274 326 -262 vlineto
          -51 23 -26 41 31 13 13 37 vhcurveto
          609 vlineto
          35 -15 15 -31 vhcurveto
          endchar
        </CharString>
        <CharString name="afii10032">
          102 0 51 607 51 hstem
          53 113 384 113 vstem
          663 354 rmoveto
          107 -33 248 -273 -273 -31 -248 -107 -109 31 -245 273 273 33 245 109 vhcurveto
          -113 hmoveto
          -101 -17 -202 -176 -173 -18 202 101 101 18 203 173 176 17 -203 -101 vhcurveto
          endchar
        </CharString>
        <CharString name="afii10033">
          125 21 -21 656 53 hstem
          100 108 323 108 vstem
          208 709 rmoveto
          -64 hlineto
          -31 -13 -13 -37 hvcurveto
          -609 vlineto
          -35 15 -15 31 41 21 17 48 vhcurveto
          591 323 -579 vlineto
          -51 23 -26 41 31 13 13 37 vhcurveto
          609 vlineto
          35 -15 15 -31 vhcurveto
          endchar
        </CharString>
        <CharString name="afii10034">
          3 21 -21 275 53 328 53 hstem
          100 108 261 113 vstem
          312 275 rmoveto
          184 86 102 125 202 -193 5 -78 hvcurveto
          -167 hlineto
          -31 -13 -13 -37 hvcurveto
          -609 vlineto
          -35 15 -15 31 41 21 17 48 vhcurveto
          210 vlineto
          103 381 rmoveto
          119 39 -61 -93 -123 -62 -51 -96 hvcurveto
          -103 328 hlineto
          endchar
        </CharString>
        <CharString name="afii10035">
          -33 0 52 606 51 hstem
          53 113 279 101 vstem
          503 529 rmoveto
          29 14 15 35 hvcurveto
          60 vlineto
          31 -10 8 -31 10 vhcurveto
          15 -47 -49 6 -50 hhcurveto
          -173 -133 -111 -250 -216 90 -132 208 80 51 14 20 49 hvcurveto
          17 7 rlineto
          9 4 4 8 8 vvcurveto
          14 -10 16 -14 -3 -2 -1 -1 -3 vhcurveto
          -19 -8 rlineto
          -18 -43 -47 -11 -41 hhcurveto
          -130 -83 64 230 209 83 103 123 26 24 -3 -5 23 hvcurveto
          -56 vlineto
          -48 20 -17 38 vhcurveto
          endchar
        </CharString>
        <CharString name="afii10036">
          36 21 -21 656 53 hstem
          20 101 150 108 150 101 cntrmask 00111000
          529 656 rmoveto
          -71 vlineto
          -48 20 -17 38 29 14 15 35 vhcurveto
          102 vlineto
          30 -21 7 -39 vhcurveto
          -490 hlineto
          -39 -21 -7 -30 hvcurveto
          -102 vlineto
          -35 14 -15 29 38 20 17 48 vhcurveto
          71 150 -606 vlineto
          -35 15 -15 31 41 21 12 48 vhcurveto
          596 vlineto
          endchar
        </CharString>
        <CharString name="afii10037">
          1 21 -21 709 -20 hstem
          47 533 vstem
          354 305 rmoveto
          -6 hlineto
          -188 352 rlineto
          42 -22 -22 10 -33 hhcurveto
          -22 -14 -15 -20 -8 1 -8 5 -9 hvcurveto
          247 -454 -25 -62 -34 -31 -61 -6 rlinecurve
          -51 -6 -16 -7 -28 vvcurveto
          -40 22 -15 28 108 77 120 97 41 vhcurveto
          186 437 rlineto
          3 6 2 8 8 vvcurveto
          17 -11 16 -20 -23 -20 -13 -40 -15 vhcurveto
          endchar
        </CharString>
        <CharString name="afii10038">
          225 21 -21 115 51 374 51 118 -20 hstem
          45 112 210 105 210 112 cntrmask 00001110
          473 659 rmoveto
          35 -15 15 -35 -37 -21 -12 -48 vhcurveto
          -58 vlineto
          -120 -200 -34 -201 -146 104 -95 217 hvcurveto
          -64 vlineto
          -34 15 -17 37 35 20 14 47 vhcurveto
          54 vlineto
          217 104 95 146 201 -201 34 -120 hvcurveto
          -1 -51 rmoveto
          146 64 -81 -103 -138 -94 -52 -116 hvcurveto
          -105 hmoveto
          -116 -94 52 138 103 64 81 146 hvcurveto
          endchar
        </CharString>
        <CharString name="afii10039">
          -25 21 -21 709 -20 hstem
          30 529 vstem
          311 434 rmoveto
          -6 hlineto
          -125 222 rlineto
          31 -17 -23 22 -38 hhcurveto
          -22 -17 -16 -18 -8 2 -8 5 -8 hvcurveto
          171 -285 -200 -312 rlineto
          -5 -8 -6 -13 -11 vvcurveto
          -11 8 -11 22 18 20 5 49 30 vhcurveto
          157 253 rlineto
          4 hlineto
          150 -255 rlineto
          -36 21 19 -16 41 hhcurveto
          24 15 15 17 9 -3 11 -5 8 hvcurveto
          -197 322 168 273 rlineto
          8 11 3 11 8 vvcurveto
          15 -15 9 -15 -24 -18 -16 -37 -22 vhcurveto
          endchar
        </CharString>
        <CharString name="afii10040">
          120 0 53 656 -20 hstemhm
          100 108 302 108 -11 101 hintmask 11110000
          hintmask 11101000
          607 hmoveto
          -102 vlineto
          -48 20 -17 38 29 14 15 35 vhcurveto
          133 vlineto
          30 -21 7 -39 vhcurveto
          hintmask 11110000
          -30 606 hlineto
          35 -15 15 -31 -41 -21 -17 -48 vhcurveto
          -591 -302 579 vlineto
          51 -23 26 -41 -31 -13 -13 -37 vhcurveto
          -609 vlineto
          -35 15 -15 31 vhcurveto
          endchar
        </CharString>
        <CharString name="afii10041">
          50 21 -21 261 56 392 -20 hstem
          70 104 282 108 vstem
          520 hmoveto
          31 13 13 37 hvcurveto
          609 vlineto
          35 -15 15 -31 -41 -21 -17 -48 vhcurveto
          -288 vlineto
          -26 -46 -59 -13 -44 hhcurveto
          -92 -41 47 87 hvcurveto
          181 vlineto
          51 -20 26 -41 -31 -12 -13 -37 vhcurveto
          -211 vlineto
          -139 82 -48 126 69 50 15 24 59 vhcurveto
          -223 vlineto
          -51 23 -26 41 vhcurveto
          endchar
        </CharString>
        <CharString name="afii10042">
          392 0 53 656 -20 hstem
          100 108 241 108 241 108 cntrmask 00111000
          860 hmoveto
          31 15 15 35 hvcurveto
          609 vlineto
          35 -15 15 -31 -41 -21 -17 -48 vhcurveto
          -591 -241 606 vlineto
          35 -15 15 -31 -41 -21 -12 -48 vhcurveto
          -596 -241 579 vlineto
          51 -23 26 -41 -31 -13 -13 -37 vhcurveto
          -609 vlineto
          -35 15 -15 31 vhcurveto
          endchar
        </CharString>
        <CharString name="afii10043">
          408 0 53 656 -20 hstemhm
          100 108 241 108 241 108 -11 101 hintmask 11111000
          557 659 rmoveto
          35 -15 15 -31 -41 -21 -12 -48 vhcurveto
          -596 -241 579 vlineto
          51 -23 26 -41 -31 -13 -13 -37 vhcurveto
          -609 vlineto
          -35 15 -15 31 vhcurveto
          hintmask 11110100
          749 -102 hlineto
          -48 20 -17 38 29 14 15 35 vhcurveto
          133 vlineto
          30 -21 7 -39 vhcurveto
          hintmask 11111000
          -30 606 hlineto
          35 -15 15 -31 -41 -21 -17 -48 vhcurveto
          -591 -241 vlineto
          endchar
        </CharString>
        <CharString name="afii10044">
          144 0 53 291 53 259 53 hstem
          8 101 129 107 265 113 vstem
          238 656 rmoveto
          -606 vlineto
          -35 15 -15 31 vhcurveto
          190 hlineto
          87 162 28 172 152 -98 45 -149 hvcurveto
          -130 262 hlineto
          35 -15 15 -31 vhcurveto
          -232 hlineto
          -39 -21 -7 -30 hvcurveto
          -102 vlineto
          -35 14 -15 29 38 20 17 48 vhcurveto
          71 vlineto
          347 -312 rmoveto
          92 62 -32 -112 -120 -83 -27 -66 hvcurveto
          -116 291 hlineto
          endchar
        </CharString>
        <CharString name="afii10045">
          275 0 53 291 53 312 -20 hstem
          100 107 255 113 106 108 vstem
          208 632 rmoveto
          51 -23 26 -41 -31 -13 -13 -37 vhcurveto
          -609 vlineto
          -35 15 -15 31 vhcurveto
          180 hlineto
          87 162 28 172 152 -98 45 -149 hvcurveto
          -120 hlineto
          100 -53 rmoveto
          92 62 -32 -112 -120 -83 -27 -66 hvcurveto
          -106 291 hlineto
          536 365 rmoveto
          -41 -21 -17 -48 hvcurveto
          -567 vlineto
          -51 23 -26 41 31 13 13 37 vhcurveto
          609 vlineto
          35 -15 15 -31 vhcurveto
          endchar
        </CharString>
        <CharString name="afii10046">
          16 0 53 291 53 312 -20 hstem
          100 107 265 113 vstem
          208 632 rmoveto
          51 -23 26 -41 -31 -13 -13 -37 vhcurveto
          -609 vlineto
          -35 15 -15 31 vhcurveto
          190 hlineto
          87 162 28 172 152 -98 45 -149 hvcurveto
          -130 hlineto
          110 -53 rmoveto
          92 62 -32 -112 -120 -83 -27 -66 hvcurveto
          -116 291 hlineto
          endchar
        </CharString>
        <CharString name="afii10047">
          1 0 51 288 55 264 51 hstemhm
          40 101 -93 101 300 113 hintmask 11101100
          hintmask 11110100
          141 71 rmoveto
          54 vlineto
          46 -20 17 -38 -29 -14 -15 -33 vhcurveto
          -60 vlineto
          -29 10 -7 29 -12 vhcurveto
          -25 56 52 -7 61 hhcurveto
          221 93 163 207 264 -140 75 -168 hvcurveto
          hintmask 11101100
          -55 -60 -12 -15 -50 hvcurveto
          -31 -10 -10 -8 -31 vvcurveto
          -57 vlineto
          -35 14 -15 29 38 20 17 48 vhcurveto
          56 vlineto
          7 32 31 4 35 hhcurveto
          100 -1 88 -62 12 -201 rrcurveto
          -278 hlineto
          -10 -5 -14 -14 -14 5 -13 10 hvcurveto
          280 hlineto
          -191 -6 -76 -97 -120 hhcurveto
          hintmask 11110100
          -42 -28 4 16 -36 hvcurveto
          endchar
        </CharString>
        <CharString name="afii10048">
          372 0 51 288 55 264 51 hstem
          100 108 125 113 374 113 vstem
          933 354 rmoveto
          107 -28 248 -273 -243 -48 -197 -118 -7 vhcurveto
          -126 238 hlineto
          51 -23 26 -41 -31 -13 -13 -37 vhcurveto
          -609 vlineto
          -35 15 -15 31 41 21 17 48 vhcurveto
          274 125 vlineto
          -115 2 35 -224 262 hhcurveto
          273 28 245 109 hvcurveto
          -113 hmoveto
          -101 -12 -202 -176 -173 -13 202 101 101 13 203 173 176 12 -203 -101 vhcurveto
          endchar
        </CharString>
        <CharString name="afii10049">
          29 21 -21 314 53 289 53 hstem
          57 113 265 108 vstem
          543 659 rmoveto
          37 -13 13 -31 vhcurveto
          -189 hlineto
          -134 -119 -52 -156 -103 90 -67 85 -10 hvcurveto
          -166 -262 rlineto
          -6 -9 -3 -9 -8 vvcurveto
          -19 16 -14 35 24 27 10 28 17 vhcurveto
          168 276 rlineto
          91 -249 hlineto
          -48 21 -17 41 31 15 15 35 vhcurveto
          -108 606 rmoveto
          -289 -107 vlineto
          -76 -82 27 113 124 93 25 57 hvcurveto
          endchar
        </CharString>
        <CharString name="afii10050">
          -97 21 -21 656 53 hstem
          100 108 208 101 vstem
          208 656 rmoveto
          249 hlineto
          39 21 7 30 hvcurveto
          107 vlineto
          35 -14 15 -29 -38 -20 -17 -48 vhcurveto
          -76 -270 vlineto
          -31 -15 -15 -35 hvcurveto
          -609 vlineto
          -35 15 -15 31 41 21 17 48 vhcurveto
          endchar
        </CharString>
        <CharString name="afii10051">
          220 21 -21 382 56 218 53 hstem
          20 101 150 108 150 101 31 113 vstem
          521 382 rmoveto
          96 44 -59 -96 -130 -46 -30 -43 -6 hvcurveto
          -25 -3 -18 -14 -20 vvcurveto
          -15 11 -9 22 102 110 90 136 158 -94 54 -131 -64 -52 -14 -25 -54 vhcurveto
          257 150 -66 vlineto
          -48 20 -17 38 29 14 15 35 vhcurveto
          97 vlineto
          30 -21 7 -39 vhcurveto
          -490 hlineto
          -39 -21 -7 -30 hvcurveto
          -102 vlineto
          -35 14 -15 29 38 20 17 48 vhcurveto
          71 150 -606 vlineto
          -35 15 -15 31 41 21 12 48 vhcurveto
          283 vlineto
          26 46 56 13 40 hhcurveto
          endchar
        </CharString>
        <CharString name="afii10052">
          -63 21 -21 656 53 hstem
          100 108 227 101 vstem
          208 656 rmoveto
          227 -76 hlineto
          -48 20 -17 38 29 14 15 35 vhcurveto
          107 vlineto
          30 -21 7 -39 vhcurveto
          -330 hlineto
          -31 -15 -15 -35 hvcurveto
          -609 vlineto
          -35 15 -15 31 41 21 17 48 vhcurveto
          217 859 rmoveto
          2 2 1 4 3 vvcurveto
          14 -21 10 -33 -24 -25 -8 -18 -8 vhcurveto
          -52 -125 rlineto
          -2 -4 0 -2 -3 vvcurveto
          -12 12 -7 15 14 15 6 10 8 vhcurveto
          endchar
        </CharString>
        <CharString name="afii10053">
          -33 0 52 281 55 270 51 hstem
          53 113 279 101 vstem
          461 361 rmoveto
          14 -5 13 -10 vhcurveto
          -279 hlineto
          180 11 79 90 115 hhcurveto
          26 24 -3 -5 23 hvcurveto
          -56 vlineto
          -48 20 -17 38 29 14 15 35 vhcurveto
          60 vlineto
          31 -10 8 -31 10 vhcurveto
          15 -47 -49 6 -50 hhcurveto
          -173 -133 -111 -250 -216 90 -132 208 80 51 14 20 49 hvcurveto
          17 7 rlineto
          9 4 4 8 8 vvcurveto
          14 -10 16 -14 -3 -2 -1 -1 -3 vhcurveto
          -19 -8 rlineto
          -18 -43 -47 -11 -41 hhcurveto
          -128 -82 61 220 -3 hvcurveto
          280 hlineto
          10 5 14 14 hvcurveto
          endchar
        </CharString>
        <CharString name="afii10054">
          17 0 51 607 51 hstemhm
          61 112 -109 101 259 101 -66 112 hintmask 11011000
          482 527 rmoveto
          29 14 15 33 hvcurveto
          58 vlineto
          29 -10 8 -31 10 vhcurveto
          15 -51 -57 14 -77 hhcurveto
          hintmask 11100100
          -152 -86 -74 -107 -120 92 -36 138 -51 hvcurveto
          114 -42 54 -28 -68 vvcurveto
          -65 -58 -67 -114 vhcurveto
          hintmask 11010100
          -43 -40 8 13 -39 hvcurveto
          54 vlineto
          46 -20 17 -38 -29 -14 -15 -33 vhcurveto
          -60 vlineto
          -29 10 -7 29 -12 vhcurveto
          -18 47 80 -15 61 hhcurveto
          181 99 83 111 115 -88 32 -175 63 hvcurveto
          hintmask 11101000
          -101 37 -34 24 69 vvcurveto
          55 39 69 94 36 33 -4 -9 32 vhcurveto
          6 -2 5 -2 6 -1 rrcurveto
          -51 vlineto
          hintmask 11011000
          -46 20 -16 38 vhcurveto
          endchar
        </CharString>
        <CharString name="afii10055">
          -206 0 53 603 53 hstem
          150 108 vstem
          358 hmoveto
          26 4 12 12 15 -6 14 -34 hvcurveto
          -90 603 90 hlineto
          34 6 14 15 12 -4 12 -26 hvcurveto
          -308 hlineto
          -26 -4 -12 -12 -15 6 -14 34 hvcurveto
          90 -603 -90 hlineto
          -34 -6 -14 -15 -12 4 -12 26 hvcurveto
          endchar
        </CharString>
        <CharString name="afii10056">
          -206 0 53 603 53 74 137 hstemhm
          32 137 -19 108 -19 137 hintmask 11001000
          hintmask 11110100
          239 851 rmoveto
          -35 32 -33 36 36 33 33 35 38 -33 31 -36 -36 -32 -31 -38 vhcurveto
          -207 1 rmoveto
          -35 33 -33 34 38 32 33 35 37 -32 32 -38 -34 -33 -32 -37 vhcurveto
          326 -852 rmoveto
          26 4 12 12 hvcurveto
          hintmask 11001000
          15 -6 14 -34 vhcurveto
          -90 603 90 hlineto
          34 6 14 15 12 -4 12 -26 hvcurveto
          -308 hlineto
          -26 -4 -12 -12 -15 6 -14 34 hvcurveto
          90 -603 -90 hlineto
          -34 -6 -14 -15 -12 4 -12 26 hvcurveto
          endchar
        </CharString>
        <CharString name="afii10057">
          -130 0 52 657 -20 hstem
          35 101 164 108 vstem
          362 709 rmoveto
          -41 -21 -17 -48 hvcurveto
          -436 vlineto
          -70 -24 -86 -98 -11 -19 1 2 -12 vhcurveto
          49 vlineto
          48 -20 17 -38 -29 -14 -15 -35 vhcurveto
          -67 vlineto
          -15 6 -9 14 -7 vhcurveto
          -11 22 62 -10 37 hhcurveto
          207 25 171 90 hvcurveto
          398 vlineto
          35 -15 15 -31 vhcurveto
          endchar
        </CharString>
        <CharString name="afii10058">
          418 0 53 291 53 259 53 hstem
          198 79 230 107 260 113 vstem
          553 hmoveto
          185 hlineto
          87 162 28 172 152 -98 45 -149 hvcurveto
          -125 262 hlineto
          35 -15 15 -31 vhcurveto
          -327 hlineto
          -31 -13 -13 -37 hvcurveto
          -107 vlineto
          -149 0 -111 -29 -85 vhcurveto
          -18 -53 -30 -38 -47 -16 rrcurveto
          -46 -15 -8 -7 -24 vvcurveto
          -27 18 -27 25 87 65 106 66 22 vhcurveto
          31 95 9 121 167 vvcurveto
          101 230 -606 vlineto
          -35 15 -15 31 vhcurveto
          167 344 rmoveto
          92 62 -32 -112 -120 -83 -27 -66 hvcurveto
          -111 291 hlineto
          endchar
        </CharString>
        <CharString name="afii10059">
          437 0 53 286 55 315 -20 hstem
          100 108 318 107 260 113 vstem
          634 632 rmoveto
          51 -23 26 -41 -31 -13 -13 -37 vhcurveto
          -265 -318 238 vlineto
          51 -23 26 -41 -31 -13 -13 -37 vhcurveto
          -609 vlineto
          -35 15 -15 31 41 21 17 48 vhcurveto
          274 318 -289 vlineto
          -35 15 -15 31 vhcurveto
          185 hlineto
          87 162 26 172 152 -98 42 -149 hvcurveto
          -125 hlineto
          105 -53 rmoveto
          92 62 -29 -112 -120 -83 -25 -66 hvcurveto
          -111 286 hlineto
          endchar
        </CharString>
        <CharString name="afii10060">
          231 21 -21 382 56 218 53 hstemhm
          20 101 150 108 150 101 26 104 hintmask 11111010
          525 382 rmoveto
          92 39 -47 -87 hvcurveto
          -171 vlineto
          -51 20 -26 41 31 12 13 37 vhcurveto
          201 vlineto
          139 -80 48 -126 -69 -47 -15 -24 -59 vhcurveto
          257 vlineto
          hintmask 11111110
          150 -66 hlineto
          -48 20 -17 38 29 14 15 35 vhcurveto
          97 vlineto
          30 -21 7 -39 vhcurveto
          -490 hlineto
          -39 -21 -7 -30 hvcurveto
          -102 vlineto
          -35 14 -15 29 38 20 17 48 vhcurveto
          71 150 -606 vlineto
          -35 15 -15 31 41 21 12 48 vhcurveto
          283 vlineto
          hintmask 11111010
          26 46 56 13 44 hhcurveto
          endchar
        </CharString>
        <CharString name="afii10061">
          -8 21 -21 334 55 320 -20 hstem
          100 108 vstem
          208 632 rmoveto
          51 -23 26 -41 -31 -13 -13 -37 vhcurveto
          -609 vlineto
          -35 15 -15 31 41 21 17 48 vhcurveto
          269 21 vlineto
          251 -285 rlineto
          -41 37 26 -8 27 hhcurveto
          25 16 18 19 10 -6 10 -8 9 hvcurveto
          -288 317 285 282 rlineto
          3 3 2 4 5 vvcurveto
          15 -15 17 -21 -13 -13 -5 -15 -14 vhcurveto
          -294 -300 rlineto
          -21 hlineto
          272 540 rmoveto
          2 3 1 4 3 vvcurveto
          14 -20 10 -36 -25 -26 -8 -18 -8 vhcurveto
          -57 -142 rlineto
          -2 -4 0 -3 -3 vvcurveto
          -12 12 -7 16 14 15 6 10 8 vhcurveto
          endchar
        </CharString>
        <CharString name="afii10062">
          1 21 -21 709 -20 75 41 hstem
          47 533 vstem
          354 305 rmoveto
          -6 hlineto
          -188 352 rlineto
          42 -22 -22 10 -33 hhcurveto
          -22 -14 -15 -20 -8 1 -8 5 -9 hvcurveto
          247 -454 -25 -62 -34 -31 -61 -6 rlinecurve
          -51 -6 -16 -7 -28 vvcurveto
          -40 22 -15 28 108 77 120 97 41 vhcurveto
          186 437 rlineto
          3 6 2 8 8 vvcurveto
          17 -11 16 -20 -23 -20 -13 -40 -15 vhcurveto
          -97 219 rmoveto
          -38 -7 -19 -32 -54 hhcurveto
          -54 -19 32 38 -7 hvcurveto
          38 -7 -26 9 -29 hhcurveto
          -26 -24 -10 -27 hvcurveto
          -79 5 69 -42 118 hhcurveto
          117 75 43 81 25 -27 9 -23 -29 -26 -9 -38 -7 hvcurveto
          endchar
        </CharString>
        <CharString name="afii10065">
          -68 0 67 201 42 152 40 hstem
          43 104 222 104 vstem
          373 94 rmoveto
          -65 17 -29 44 32 7 17 30 vhcurveto
          274 vlineto
          119 -37 62 -148 -43 -61 -8 -19 -45 vhcurveto
          -31 -13 -24 -15 -28 vvcurveto
          -18 11 -16 24 21 20 13 22 20 vhcurveto
          21 19 27 21 42 hhcurveto
          70 30 -32 -92 hvcurveto
          -28 -73 vlineto
          -202 -50 -89 -86 -80 49 -55 102 77 55 29 66 44 hvcurveto
          -1 173 rmoveto
          -84 vlineto
          -80 -86 -37 -49 -52 -35 21 61 65 35 54 129 vhcurveto
          endchar
        </CharString>
        <CharString name="afii10066">
          -51 0 40 410 52 hstem
          55 65 285 108 vstem
          513 251 rmoveto
          184 -92 67 -118 -83 -60 -43 -92 -33 vhcurveto
          -7 hlineto
          176 54 68 126 21 vhcurveto
          110 18 71 22 65 vvcurveto
          18 -14 5 -11 -27 -23 -13 -7 -24 vhcurveto
          -9 -3 -75 -18 -30 -8 rrcurveto
          -153 -38 -60 -117 -266 vvcurveto
          -224 96 -66 133 130 99 79 172 vhcurveto
          -351 hmoveto
          99 48 100 77 111 7 -149 -50 -74 -12 -137 -109 -92 -30 77 134 vhcurveto
          endchar
        </CharString>
        <CharString name="afii10067">
          -95 0 45 193 42 177 45 hstemhm
          80 102 176 105 -88 108 hintmask 11110100
          80 455 rmoveto
          -408 vlineto
          -30 8 -17 32 vhcurveto
          158 hlineto
          85 120 29 119 59 -46 51 -78 3 hvcurveto
          6 vlineto
          hintmask 11111000
          68 11 36 48 56 vvcurveto
          89 -89 31 -84 vhcurveto
          -170 hlineto
          hintmask 11110100
          -32 -8 -17 -30 hvcurveto
          102 -217 rmoveto
          82 hlineto
          75 36 -36 -59 -46 -27 -52 -82 hvcurveto
          -84 hlineto
          235 vmoveto
          177 vlineto
          hintmask 11111000
          81 hlineto
          59 36 -32 -53 -67 -43 -25 -47 hvcurveto
          endchar
        </CharString>
        <CharString name="afii10068">
          -170 21 -21 455 47 hstem
          80 104 155 92 vstem
          80 455 rmoveto
          -408 vlineto
          -30 8 -17 32 44 20 11 60 vhcurveto
          384 155 -47 vlineto
          -54 14 -10 41 29 8 15 27 vhcurveto
          85 vlineto
          23 -13 8 -19 vhcurveto
          -279 hlineto
          -32 -8 -17 -30 hvcurveto
          endchar
        </CharString>
        <CharString name="afii10069">
          -65 0 47 408 47 hstemhm
          0 92 36 66 160 104 -16 92 hintmask 11111000
          32 47 rmoveto
          -19 -13 -8 -23 hvcurveto
          -93 vlineto
          -27 8 -15 29 41 14 10 54 vhcurveto
          55 350 -55 vlineto
          -54 14 -10 41 vhcurveto
          hintmask 11110100
          29 8 15 27 hvcurveto
          93 vlineto
          23 -13 8 -19 vhcurveto
          hintmask 11111000
          -44 408 hlineto
          30 -8 17 -32 vhcurveto
          -249 hlineto
          -32 -9 -16 -31 hvcurveto
          -99 vlineto
          -174 -25 -79 -42 -56 vhcurveto
          74 hmoveto
          41 73 18 86 150 vvcurveto
          99 160 -408 vlineto
          endchar
        </CharString>
        <CharString name="afii10070">
          -89 0 44 208 42 168 40 hstem
          50 108 225 102 vstem
          435 126 rmoveto
          -29 -24 -33 -53 -81 hhcurveto
          -99 -40 77 109 7 0 7 1 8 hvcurveto
          269 hlineto
          26 31 8 41 133 -83 68 -118 -152 -82 -92 -171 -145 76 -94 160 90 57 36 46 37 hvcurveto
          9 11 4 9 14 vvcurveto
          13 -12 8 -11 -10 -8 -3 -8 -7 vhcurveto
          -157 336 rmoveto
          51 54 -43 -96 -23 -12 -6 -22 hvcurveto
          -187 hlineto
          120 9 46 48 61 hhcurveto
          endchar
        </CharString>
        <CharString name="afii10071">
          -89 0 44 208 42 168 40 65 122 hstemhm
          50 108 -44 122 74 122 -49 102 hintmask 11101001
          435 126 rmoveto
          -29 -24 -33 -53 -81 hhcurveto
          -99 -40 77 109 7 0 7 1 8 hvcurveto
          269 hlineto
          26 31 8 41 133 -83 68 -118 -152 -82 -92 -171 -145 76 -94 160 90 57 36 46 37 hvcurveto
          9 11 4 9 14 vvcurveto
          13 -12 8 -11 -10 -8 -3 -8 -7 vhcurveto
          -157 336 rmoveto
          51 54 -43 -96 -23 -12 -6 -22 hvcurveto
          -187 hlineto
          120 9 46 48 61 hhcurveto
          hintmask 11110110
          -164 166 rmoveto
          -33 28 -28 33 33 28 28 33 33 -28 28 -33 -33 -28 -28 -33 vhcurveto
          196 hmoveto
          -33 28 -28 33 33 28 28 33 33 -28 28 -33 -33 -28 -28 -33 vhcurveto
          endchar
        </CharString>
        <CharString name="afii10072">
          127 21 -21 240 45 217 -20 hstem
          320 101 vstem
          320 285 rmoveto
          -29 hlineto
          -158 176 rlineto
          31 -28 -22 10 -23 hhcurveto
          -20 -8 -11 -14 -35 64 -24 59 -62 hvcurveto
          29 -30 15 -18 27 -27 -189 -230 rcurveline
          -11 -12 -6 -11 -9 vvcurveto
          -10 4 -9 43 46 14 12 19 14 vhcurveto
          158 209 rlineto
          21 -193 hlineto
          -30 8 -17 41 33 19 11 50 vhcurveto
          179 21 vlineto
          158 -209 rlineto
          -19 14 14 -12 46 hhcurveto
          43 4 9 10 9 -6 11 -11 12 hvcurveto
          -189 230 27 27 15 18 29 30 rlinecurve
          59 62 64 24 35 vvcurveto
          14 -8 11 -20 -23 -22 -10 -31 -28 vhcurveto
          -158 -176 rlineto
          -29 156 hlineto
          54 -19 7 -33 -41 -8 -22 -25 vhcurveto
          endchar
        </CharString>
        <CharString name="afii10073">
          -139 0 40 196 46 180 40 hstemhm
          318 105 -95 108 hintmask 11101000
          114 99 rmoveto
          22 -10 -16 18 -29 hhcurveto
          -18 -21 -15 -22 -32 24 -20 25 -16 hvcurveto
          -18 29 50 -16 60 hhcurveto
          157 71 60 87 64 -48 44 -79 5 hvcurveto
          4 vlineto
          hintmask 11110000
          81 17 33 49 52 vvcurveto
          75 -59 45 -138 -41 -63 -12 -17 -30 vhcurveto
          -27 -15 -27 -20 -32 vvcurveto
          -22 16 -14 20 29 14 16 22 13 vhcurveto
          27 16 26 27 53 hhcurveto
          58 35 -32 -51 -63 -39 -34 -66 hvcurveto
          -62 hlineto
          -15 -4 -11 -10 -11 5 -14 14 hvcurveto
          60 hlineto
          hintmask 11101000
          56 61 -17 -74 -75 -42 -30 -69 -67 -23 30 29 -13 hvcurveto
          endchar
        </CharString>
        <CharString name="afii10074">
          -27 21 -21 502 -20 hstem
          80 104 219 104 vstem
          507 455 rmoveto
          30 -8 17 -32 -31 -13 -8 -22 -14 vhcurveto
          -225 -342 rlineto
          290 vlineto
          60 -20 22 -44 -32 -8 -17 -30 vhcurveto
          -408 vlineto
          -30 8 -17 32 29 16 7 19 12 vhcurveto
          226 342 rlineto
          -286 vlineto
          -60 20 -22 44 32 8 17 30 vhcurveto
          endchar
        </CharString>
        <CharString name="afii10075">
          -27 21 -21 502 -20 74 38 hstem
          80 104 219 104 vstem
          507 455 rmoveto
          30 -8 17 -32 -31 -13 -8 -22 -14 vhcurveto
          -225 -342 rlineto
          290 vlineto
          60 -20 22 -44 -32 -8 -17 -30 vhcurveto
          -408 vlineto
          -30 8 -17 32 29 15 7 19 13 vhcurveto
          226 342 rlineto
          -286 vlineto
          -60 20 -22 44 32 8 17 30 vhcurveto
          -156 604 rmoveto
          -32 -5 -13 -25 -41 hhcurveto
          -40 -12 25 32 -5 hvcurveto
          33 -6 -26 12 -26 hhcurveto
          -21 -23 -15 -28 -56 57 -41 102 104 57 41 55 29 -23 15 -20 -27 -26 -12 -33 -6 hvcurveto
          endchar
        </CharString>
        <CharString name="afii10076">
          -96 21 -21 240 47 215 -20 hstem
          80 104 vstem
          184 420 rmoveto
          60 -20 22 -44 -32 -8 -17 -30 vhcurveto
          -408 vlineto
          -30 8 -17 32 44 20 11 60 vhcurveto
          169 24 vlineto
          166 -209 rlineto
          -19 15 13 -12 48 hhcurveto
          44 4 9 10 9 -7 10 -11 13 hvcurveto
          -197 232 29 27 24 23 31 27 rlinecurve
          68 58 59 18 41 vvcurveto
          14 -8 11 -20 -24 -20 -12 -29 -30 vhcurveto
          -175 -174 rlineto
          -33 hlineto
          endchar
        </CharString>
        <CharString name="afii10077">
          -54 21 -21 455 47 hstem
          150 66 160 104 vstem
          480 455 rmoveto
          30 -8 17 -32 vhcurveto
          -248 hlineto
          -36 -6 -19 -28 hvcurveto
          -99 vlineto
          -143 -4 -110 -93 -21 vhcurveto
          -24 -5 -19 -21 -17 vvcurveto
          -28 19 -11 24 50 31 28 41 27 vhcurveto
          44 68 11 100 113 vvcurveto
          105 160 -373 vlineto
          -60 20 -22 44 32 8 17 30 vhcurveto
          endchar
        </CharString>
        <CharString name="afii10078">
          78 21 -21 502 -20 hstem
          80 72 356 104 vstem
          80 43 rmoveto
          -26 8 -17 26 34 4 22 60 vhcurveto
          260 4 vlineto
          139 -315 rlineto
          -20 9 13 -7 18 hhcurveto
          16 15 6 26 11 hvcurveto
          127 288 rlineto
          4 -238 hlineto
          -60 20 -22 44 32 8 17 30 vhcurveto
          408 vlineto
          30 -8 17 -32 -31 -26 -9 -21 -9 vhcurveto
          -155 -364 rlineto
          -2 hlineto
          -155 364 rlineto
          22 -14 -14 8 -42 hhcurveto
          -32 -12 -17 -30 hvcurveto
          endchar
        </CharString>
        <CharString name="afii10079">
          -27 21 -21 233 49 220 -20 hstem
          80 104 219 104 vstem
          507 455 rmoveto
          30 -8 17 -32 -44 -20 -12 -60 vhcurveto
          -148 -219 138 vlineto
          60 -20 22 -44 -32 -8 -17 -30 vhcurveto
          -408 vlineto
          -30 8 -17 32 44 20 11 60 vhcurveto
          162 219 -151 vlineto
          -60 20 -22 44 32 8 17 30 vhcurveto
          endchar
        </CharString>
        <CharString name="afii10080">
          -56 0 40 422 40 hstem
          50 108 242 108 vstem
          279 hmoveto
          142 87 80 171 175 -92 76 -137 -136 -93 -76 -175 -171 87 -80 142 hvcurveto
          40 vmoveto
          -71 -50 42 169 169 55 42 66 68 53 -42 -169 -171 -50 -40 -71 hvcurveto
          endchar
        </CharString>
        <CharString name="afii10081">
          -30 21 -21 455 47 hstem
          80 104 216 104 vstem
          504 455 rmoveto
          30 -8 17 -32 vhcurveto
          -344 hlineto
          -32 -8 -17 -30 hvcurveto
          -408 vlineto
          -30 8 -17 32 44 20 11 60 vhcurveto
          384 216 -373 vlineto
          -60 20 -22 44 32 8 17 30 vhcurveto
          endchar
        </CharString>
        <CharString name="afii10082">
          -48 -199 -21 220 40 395 67 hstem
          80 103 222 108 vstem
          80 -173 rmoveto
          -30 8 -17 32 44 20 11 60 vhcurveto
          168 vlineto
          -12 26 33 -7 32 hhcurveto
          146 92 89 187 182 -83 44 -88 -83 -44 -41 -53 -32 hvcurveto
          -1 8 hlineto
          60 -1 -20 26 -42 hhcurveto
          -23 -16 -10 -33 hvcurveto
          325 -191 rmoveto
          -173 -52 -55 -78 -60 -32 34 27 vhcurveto
          217 vlineto
          59 64 58 55 57 46 -31 -136 vhcurveto
          endchar
        </CharString>
        <CharString name="afii10083">
          -124 0 44 418 40 hstem
          50 108 vstem
          422 126 rmoveto
          -29 -24 -30 -53 -81 hhcurveto
          -97 -32 75 131 162 44 50 83 49 18 -32 -32 11 hvcurveto
          -26 9 14 -16 31 hhcurveto
          19 23 14 25 34 -27 26 -28 17 hvcurveto
          20 -34 -38 10 -45 hhcurveto
          -132 -105 -67 -185 -143 59 -107 167 90 54 36 46 37 hvcurveto
          9 11 4 9 14 vvcurveto
          13 -12 8 -11 -10 -8 -3 -8 -7 vhcurveto
          endchar
        </CharString>
        <CharString name="afii10084">
          -118 21 -21 455 47 hstem
          13 92 90 104 92 92 vstem
          391 455 rmoveto
          -37 vlineto
          -54 14 -10 41 29 8 15 27 vhcurveto
          75 vlineto
          23 -13 8 -19 vhcurveto
          -406 hlineto
          -19 -13 -8 -23 hvcurveto
          -75 vlineto
          -27 8 -15 29 41 14 10 54 vhcurveto
          37 90 -408 vlineto
          -30 8 -17 39 37 20 8 57 vhcurveto
          390 vlineto
          endchar
        </CharString>
        <CharString name="afii10085">
          -102 -220 81 641 -20 hstem
          30 452 vstem
          477 452 rmoveto
          3 9 2 6 12 vvcurveto
          17 -15 6 -17 -36 -13 -31 -32 -9 vhcurveto
          -14 -50 -9 -36 -24 -70 -60 -175 rcurveline
          -5 hlineto
          -131 327 rlineto
          48 -19 -32 19 -31 hhcurveto
          -18 -19 -4 -23 -6 1 -8 4 -9 hvcurveto
          198 -461 -12 -38 -12 -30 -18 -25 rlinecurve
          -26 -19 -30 -11 -37 hhcurveto
          -32 -22 -12 -33 -20 21 -16 27 102 64 128 100 39 hvcurveto
          endchar
        </CharString>
        <CharString name="afii10086">
          153 -199 -21 220 47 387 68 hstem
          53 104 175 103 175 104 cntrmask 00011100
          435 691 rmoveto
          60 -19 9 -37 -39 -8 -17 -30 vhcurveto
          -264 -1 vlineto
          45 -26 -40 8 -43 hhcurveto
          -77 -92 -63 -192 -169 62 -78 103 45 42 13 31 27 hvcurveto
          -217 vlineto
          -30 8 -17 40 36 19 11 52 vhcurveto
          191 vlineto
          -26 27 32 -8 32 hhcurveto
          111 77 91 171 197 -82 43 -80 -40 -46 -17 -43 -30 hvcurveto
          -1 hlineto
          -102 -320 rmoveto
          -36 -43 -39 -38 -75 -20 69 131 124 30 63 69 39 38 -15 -59 vhcurveto
          101 -10 rmoveto
          62 40 22 44 67 25 -59 -121 -141 -30 -66 -70 -40 -36 25 48 vhcurveto
          endchar
        </CharString>
        <CharString name="afii10087">
          -131 21 -21 502 -20 hstem
          35 413 vstem
          48 50 rmoveto
          -7 -9 -6 -11 -10 vvcurveto
          -13 11 -7 16 29 15 7 22 14 vhcurveto
          113 170 rlineto
          2 hlineto
          97 -151 rlineto
          -27 17 14 -21 48 hhcurveto
          28 9 12 14 7 -4 9 -8 13 hvcurveto
          -140 212 133 185 rlineto
          6 10 5 11 10 vvcurveto
          13 -11 6 -14 -27 -14 -7 -26 -16 vhcurveto
          -100 -162 rlineto
          -4 hlineto
          -87 145 rlineto
          33 -19 -21 17 -42 hhcurveto
          -14 -18 -6 -18 -9 3 -13 11 -17 hvcurveto
          127 -195 rlineto
          endchar
        </CharString>
        <CharString name="afii10088">
          -36 0 47 455 -20 hstemhm
          80 104 199 104 -16 92 hintmask 11110000
          471 hmoveto
          -55 vlineto
          -54 14 -10 41 vhcurveto
          hintmask 11101000
          29 8 15 27 hvcurveto
          93 vlineto
          23 -13 8 -19 vhcurveto
          hintmask 11110000
          -44 408 hlineto
          30 -8 17 -32 -44 -20 -11 -60 vhcurveto
          -384 -199 373 vlineto
          60 -20 22 -44 -32 -8 -17 -30 vhcurveto
          -408 vlineto
          -30 8 -17 32 vhcurveto
          endchar
        </CharString>
        <CharString name="afii10089">
          -83 21 -21 166 50 286 -20 hstem
          50 100 197 104 vstem
          150 420 rmoveto
          60 -16 22 -44 -32 -8 -17 -30 vhcurveto
          -155 vlineto
          -90 42 -44 108 51 62 14 17 34 vhcurveto
          -115 vlineto
          -60 20 -22 44 32 8 17 30 vhcurveto
          408 vlineto
          30 -8 17 -32 -44 -20 -12 -60 vhcurveto
          -190 vlineto
          -14 -27 -37 -10 -47 hhcurveto
          -63 -23 31 61 hvcurveto
          endchar
        </CharString>
        <CharString name="afii10090">
          167 0 47 455 -20 hstem
          80 104 155 103 155 104 cntrmask 00111000
          661 hmoveto
          32 8 17 30 hvcurveto
          408 vlineto
          30 -8 17 -32 -44 -20 -11 -60 vhcurveto
          -384 -155 392 vlineto
          52 -16 11 -36 -32 -19 -11 -52 vhcurveto
          -392 -155 373 vlineto
          60 -20 22 -44 -32 -8 -17 -30 vhcurveto
          -408 vlineto
          -30 8 -17 32 vhcurveto
          endchar
        </CharString>
        <CharString name="afii10091">
          178 0 47 455 -20 hstemhm
          80 104 155 103 155 104 -16 92 hintmask 11111000
          685 hmoveto
          -55 vlineto
          -54 14 -10 41 vhcurveto
          hintmask 11110100
          29 8 15 27 hvcurveto
          93 vlineto
          23 -13 8 -19 vhcurveto
          hintmask 11111000
          -44 408 hlineto
          30 -8 17 -32 -44 -20 -11 -60 vhcurveto
          -384 -155 392 vlineto
          52 -16 11 -36 -32 -19 -11 -52 vhcurveto
          -392 -155 373 vlineto
          60 -20 22 -44 -32 -8 -17 -30 vhcurveto
          -408 vlineto
          -30 8 -17 32 vhcurveto
          endchar
        </CharString>
        <CharString name="afii10092">
          -14 0 45 199 45 168 45 hstem
          13 92 83 103 173 108 vstem
          45 502 rmoveto
          -19 -13 -8 -23 hvcurveto
          -73 vlineto
          -27 8 -15 29 41 14 10 54 vhcurveto
          37 83 -410 vlineto
          -30 8 -17 32 vhcurveto
          129 hlineto
          137 78 53 99 87 -50 50 -137 hvcurveto
          -93 171 hlineto
          32 -8 10 -32 vhcurveto
          39 -457 rmoveto
          199 62 vlineto
          65 46 -18 -78 -76 -39 -27 -72 hvcurveto
          endchar
        </CharString>
        <CharString name="afii10093">
          90 0 45 199 45 213 -20 hstem
          80 103 164 106 67 104 vstem
          184 420 rmoveto
          60 -20 22 -44 -32 -8 -17 -30 vhcurveto
          -408 vlineto
          -30 8 -17 32 vhcurveto
          120 hlineto
          137 76 53 99 87 -48 50 -137 hvcurveto
          -84 hlineto
          -1 -244 rmoveto
          199 53 vlineto
          65 46 -18 -78 -76 -39 -27 -72 hvcurveto
          388 410 rmoveto
          30 -8 17 -32 -44 -20 -12 -60 vhcurveto
          -348 vlineto
          -60 20 -22 44 32 8 17 30 vhcurveto
          endchar
        </CharString>
        <CharString name="afii10094">
          -122 0 45 199 45 213 -20 hstem
          80 103 173 108 vstem
          184 420 rmoveto
          60 -20 22 -44 -32 -8 -17 -30 vhcurveto
          -408 vlineto
          -30 8 -17 32 vhcurveto
          129 hlineto
          137 78 53 99 87 -50 50 -137 hvcurveto
          -93 hlineto
          -1 -244 rmoveto
          199 62 vlineto
          65 46 -18 -78 -76 -39 -27 -72 hvcurveto
          endchar
        </CharString>
        <CharString name="afii10095">
          -107 0 40 196 46 180 40 hstem
          349 108 vstem
          349 236 rmoveto
          -148 -58 -44 -74 -4 vhcurveto
          -67 -23 30 29 -13 hvcurveto
          22 -10 -16 18 -29 hhcurveto
          -18 -21 -15 -22 -29 24 -23 25 -16 hvcurveto
          -18 29 50 -16 60 hhcurveto
          138 111 73 188 166 -81 75 -150 -41 -63 -12 -17 -30 hvcurveto
          -27 -15 -27 -20 -32 vvcurveto
          -22 16 -14 20 29 14 16 22 13 vhcurveto
          27 16 21 27 53 hhcurveto
          84 45 -57 -123 hvcurveto
          -199 hlineto
          -12 -6 -12 -11 -11 6 -12 12 hvcurveto
          endchar
        </CharString>
        <CharString name="afii10096">
          164 -10 40 -9 -21 233 49 190 40 -10 -20 hstemhm
          80 104 88 108 240 108 hintmask 10101111
          500 -10 rmoveto
          142 86 90 171 hvcurveto
          hintmask 10110111
          175 -91 86 -137 -128 -89 -76 -154 -10 vhcurveto
          -89 hlineto
          hintmask 01101111
          138 vlineto
          60 -20 22 -44 -32 -8 -17 -30 vhcurveto
          -408 vlineto
          -30 8 -17 32 44 20 11 60 vhcurveto
          162 88 vlineto
          hintmask 10101111
          -159 6 85 -84 137 hhcurveto
          40 vmoveto
          -71 -49 52 169 hvcurveto
          hintmask 10110111
          169 54 52 66 68 52 -52 -169 vhcurveto
          hintmask 10101111
          -171 -49 -50 -71 vhcurveto
          endchar
        </CharString>
        <CharString name="afii10097">
          -93 21 -21 213 45 199 45 hstem
          54 105 178 104 vstem
          30 19 rmoveto
          -10 4 -9 44 48 13 12 19 15 vhcurveto
          142 182 rlineto
          41 -131 hlineto
          -60 20 -22 44 32 8 17 30 vhcurveto
          408 vlineto
          30 -8 17 -32 vhcurveto
          -155 hlineto
          -130 -62 -59 -94 -65 52 -58 88 -8 hvcurveto
          -146 -167 rlineto
          -11 -13 -7 -10 -9 vvcurveto
          129 329 rmoveto
          65 38 44 69 vhcurveto
          71 -199 -70 hlineto
          -68 -40 37 53 hvcurveto
          endchar
        </CharString>
        <CharString name="afii10098">
          -195 21 -21 455 47 hstem
          80 104 143 92 vstem
          80 455 rmoveto
          -408 vlineto
          -30 8 -17 32 44 20 11 60 vhcurveto
          384 203 vlineto
          19 13 8 23 hvcurveto
          90 vlineto
          27 -8 15 -29 -41 -14 -10 -54 vhcurveto
          -52 -207 vlineto
          -32 -8 -17 -30 hvcurveto
          endchar
        </CharString>
        <CharString name="afii10099">
          -35 21 -21 415 67 81 49 hstem
          89 104 223 103 vstem
          416 233 rmoveto
          -189 -37 -102 -86 -36 vhcurveto
          -15 -6 -5 -10 -11 vvcurveto
          -15 1 14 -8 13 hhcurveto
          133 18 85 138 221 vvcurveto
          201 -62 48 -101 -72 -56 -49 -53 -33 vhcurveto
          -2 183 203 hlineto
          8 4 12 12 13 -4 12 -8 hvcurveto
          -203 66 hlineto
          60 -20 22 -44 -32 -8 -17 -30 vhcurveto
          -101 -82 vlineto
          -8 -4 -12 -13 -12 4 -12 8 hvcurveto
          82 -516 hlineto
          -30 8 -17 32 44 20 11 60 vhcurveto
          219 vlineto
          65 70 60 56 82 15 -70 -112 vhcurveto
          endchar
        </CharString>
        <CharString name="afii10100">
          -170 21 -21 455 47 hstem
          80 104 155 92 vstem
          80 455 rmoveto
          -408 vlineto
          -30 8 -17 32 44 20 11 60 vhcurveto
          384 155 -47 vlineto
          -54 14 -10 41 29 8 15 27 vhcurveto
          85 vlineto
          23 -13 8 -19 vhcurveto
          -279 hlineto
          -32 -8 -17 -30 hvcurveto
          292 261 rmoveto
          2 2 1 4 3 vvcurveto
          14 -21 10 -33 -24 -25 -8 -18 -8 vhcurveto
          -52 -125 rlineto
          -2 -4 0 -2 -3 vvcurveto
          -12 12 -7 15 14 15 6 10 8 vhcurveto
          endchar
        </CharString>
        <CharString name="afii10101">
          -124 0 44 185 46 187 40 hstem
          50 108 vstem
          370 252 rmoveto
          11 -6 12 -12 vhcurveto
          -194 hlineto
          142 5 43 45 79 hhcurveto
          49 18 -29 -32 11 hvcurveto
          -26 9 14 -16 31 hhcurveto
          19 23 14 25 34 -25 24 -28 17 hvcurveto
          20 -34 -40 9 -45 hhcurveto
          -132 -105 -67 -185 -143 59 -107 167 90 54 33 46 37 hvcurveto
          9 11 4 9 14 vvcurveto
          13 -12 8 -11 -10 -8 -3 -8 -7 vhcurveto
          -29 -24 -30 -50 -81 hhcurveto
          -92 -34 67 118 -3 hvcurveto
          194 hlineto
          12 6 12 11 hvcurveto
          endchar
        </CharString>
        <CharString name="afii10102">
          -120 0 40 422 40 hstem
          56 100 193 102 vstem
          349 122 rmoveto
          -59 -50 -23 -53 -67 -23 32 27 -13 vhcurveto
          22 -10 -16 14 -29 hhcurveto
          -18 -21 -15 -22 -30 22 -22 27 -14 hvcurveto
          -17 32 53 -15 61 hhcurveto
          122 85 59 90 81 -92 32 -82 29 hvcurveto
          -68 24 -53 19 54 vvcurveto
          52 41 22 45 53 23 -25 -27 13 vhcurveto
          -22 10 15 -14 29 hhcurveto
          20 19 14 22 30 -26 23 -27 14 hvcurveto
          17 -32 -48 8 -50 hhcurveto
          -58 -127 -20 -113 -86 70 -26 92 -31 hvcurveto
          72 -25 59 -20 -59 vvcurveto
          endchar
        </CharString>
        <CharString name="afii10103">
          21 -21 502 -20 85 124 hstemhm
          73 124 -112 104 hintmask 11101000
          189 420 rmoveto
          60 -20 22 -44 -32 -8 -17 -30 vhcurveto
          -408 vlineto
          -30 8 -17 32 44 20 8 60 vhcurveto
          hintmask 11110000
          -116 561 rmoveto
          -34 28 -28 34 34 28 28 34 34 -28 28 -34 -34 -28 -28 -34 vhcurveto
          endchar
        </CharString>
        <CharString name="afii10104">
          21 -21 502 -20 85 122 hstemhm
          -10 122 -27 104 -27 122 hintmask 11101000
          189 434 rmoveto
          46 -20 22 -44 -32 -8 -17 -30 vhcurveto
          -408 vlineto
          -30 8 -17 32 44 20 8 60 vhcurveto
          hintmask 11110100
          -199 560 rmoveto
          -33 28 -28 33 33 28 28 33 33 -28 28 -33 -33 -28 -28 -33 vhcurveto
          172 hmoveto
          -33 28 -28 33 33 28 28 33 33 -28 28 -33 -33 -28 -28 -33 vhcurveto
          endchar
        </CharString>
        <CharString name="afii10105">
          -199 -21 722 -20 85 124 hstemhm
          73 124 -112 104 hintmask 11101000
          85 455 rmoveto
          -411 vlineto
          -72 -4 -43 -11 -30 vhcurveto
          -14 -38 -31 -11 -19 -12 rrcurveto
          -15 -10 -8 -10 -17 vvcurveto
          -15 15 -6 15 14 15 7 10 14 vhcurveto
          34 24 28 42 13 21 rrcurveto
          39 66 19 77 94 vvcurveto
          299 vlineto
          60 -20 22 -44 -32 -8 -17 -30 vhcurveto
          hintmask 11110000
          -12 174 rmoveto
          -34 28 -28 34 34 28 28 34 34 -28 28 -34 -34 -28 -28 -34 vhcurveto
          endchar
        </CharString>
        <CharString name="afii10106">
          164 0 45 199 45 166 47 hstem
          150 66 155 103 168 108 vstem
          411 hmoveto
          124 hlineto
          137 78 53 99 87 -50 50 -137 hvcurveto
          -88 166 hlineto
          30 -8 17 -32 vhcurveto
          -243 hlineto
          -36 -6 -19 -28 hvcurveto
          -99 vlineto
          -143 -4 -110 -93 -21 vhcurveto
          -24 -5 -19 -21 -17 vvcurveto
          -28 19 -11 24 50 31 28 41 27 vhcurveto
          44 68 11 100 113 vvcurveto
          105 155 -408 vlineto
          -30 8 -17 32 vhcurveto
          63 45 rmoveto
          199 57 vlineto
          65 46 -18 -78 -76 -39 -27 -72 hvcurveto
          endchar
        </CharString>
        <CharString name="afii10107">
          190 0 45 188 49 -44 45 219 -20 hstemhm
          80 104 213 103 168 108 hintmask 11011110
          501 420 rmoveto
          60 -20 22 -44 -32 -8 -17 -30 vhcurveto
          -173 -213 138 vlineto
          60 -20 22 -44 -32 -8 -17 -30 vhcurveto
          -408 vlineto
          -30 8 -17 32 44 20 11 60 vhcurveto
          162 213 -186 vlineto
          -30 8 -17 32 vhcurveto
          124 hlineto
          137 78 50 99 hvcurveto
          hintmask 10111110
          87 -50 47 -137 vhcurveto
          -88 hlineto
          -1 -238 rmoveto
          193 57 vlineto
          65 46 -15 -78 -76 -39 -24 -72 hvcurveto
          endchar
        </CharString>
        <CharString name="afii10108">
          -25 21 -21 415 67 81 49 hstem
          89 104 212 104 vstem
          7 612 rmoveto
          -8 -4 -12 -13 -12 4 -12 8 hvcurveto
          82 -516 hlineto
          -30 8 -17 32 44 20 11 60 vhcurveto
          219 vlineto
          65 71 60 56 46 39 -24 -79 vhcurveto
          -230 vlineto
          -60 20 -22 44 32 8 17 30 vhcurveto
          284 vlineto
          101 -47 50 -94 -83 -57 -49 -53 -33 vhcurveto
          -2 183 203 hlineto
          8 4 12 12 13 -4 12 -8 hvcurveto
          -203 66 hlineto
          60 -20 22 -44 -32 -8 -17 -30 vhcurveto
          -101 vlineto
          endchar
        </CharString>
        <CharString name="afii10109">
          -96 21 -21 240 47 215 -20 hstem
          80 104 vstem
          184 420 rmoveto
          60 -20 22 -44 -32 -8 -17 -30 vhcurveto
          -408 vlineto
          -30 8 -17 32 44 20 11 60 vhcurveto
          169 24 vlineto
          166 -209 rlineto
          -19 15 13 -12 48 hhcurveto
          44 4 9 10 9 -7 10 -11 13 hvcurveto
          -197 232 29 27 24 23 31 27 rlinecurve
          68 58 59 18 41 vvcurveto
          14 -8 11 -20 -24 -20 -12 -29 -30 vhcurveto
          -175 -174 rlineto
          -33 hlineto
          217 429 rmoveto
          2 2 1 4 3 vvcurveto
          14 -21 10 -33 -24 -25 -8 -18 -8 vhcurveto
          -52 -125 rlineto
          -2 -4 0 -2 -3 vvcurveto
          -12 12 -7 15 14 15 6 10 8 vhcurveto
          endchar
        </CharString>
        <CharString name="afii10110">
          -102 -220 81 641 -20 74 38 hstem
          30 452 vstem
          477 452 rmoveto
          3 9 2 6 12 vvcurveto
          17 -15 6 -17 -36 -13 -31 -32 -9 vhcurveto
          -14 -50 -9 -36 -24 -70 -60 -175 rcurveline
          -5 hlineto
          -131 327 rlineto
          48 -19 -32 19 -31 hhcurveto
          -18 -19 -4 -23 -6 1 -8 4 -9 hvcurveto
          198 -461 -12 -38 -12 -30 -18 -25 rlinecurve
          -26 -19 -30 -11 -37 hhcurveto
          -32 -22 -12 -33 -20 21 -16 27 102 64 128 100 39 hvcurveto
          10 643 rmoveto
          -32 -5 -13 -25 -41 hhcurveto
          -40 -12 25 32 -5 hvcurveto
          33 -6 -26 12 -26 hhcurveto
          -21 -23 -15 -28 -56 57 -41 102 104 57 41 55 29 -23 15 -20 -27 -26 -12 -33 -6 hvcurveto
          endchar
        </CharString>
        <CharString name="afii10145">
          125 0 53 656 -20 hstem
          100 108 111 101 111 108 cntrmask 00111000
          370 -182 rmoveto
          36 14 15 35 hvcurveto
          132 175 vlineto
          31 13 13 37 hvcurveto
          609 vlineto
          35 -15 15 -31 -41 -21 -17 -48 vhcurveto
          -591 -323 579 vlineto
          51 -23 26 -41 -31 -13 -13 -37 vhcurveto
          -609 vlineto
          -35 15 -15 31 vhcurveto
          173 -133 hlineto
          -34 20 -15 31 vhcurveto
          endchar
        </CharString>
        <CharString name="afii10193">
          -30 0 47 455 -20 hstem
          80 104 67 92 57 104 vstem
          297 -153 rmoveto
          33 13 15 34 hvcurveto
          104 121 vlineto
          32 8 17 30 hvcurveto
          408 vlineto
          30 -8 17 -32 -44 -20 -11 -60 vhcurveto
          -384 -216 373 vlineto
          60 -20 22 -44 -32 -8 -17 -30 vhcurveto
          -408 vlineto
          -30 8 -17 32 vhcurveto
          131 -105 hlineto
          -33 19 -15 27 vhcurveto
          endchar
        </CharString>
        <CharString name="afii61352">
          379 21 -21 273 58 65 51 225 53 -16 -20 hstemhm
          100 79 344 79 66 73 119 73 hintmask 1110111110000000
          hintmask 1111011110000000
          668 560 rmoveto
          -113 62 -51 70 69 64 51 113 115 -65 50 -68 -70 -62 -50 -115 vhcurveto
          73 -1 rmoveto
          105 43 8 16 17 43 -8 -105 -95 -38 -17 -22 -21 -38 17 95 vhcurveto
          158 -286 rmoveto
          9 5 14 15 14 -5 15 -9 hvcurveto
          -198 hlineto
          -10 -4 -15 -14 -15 4 -14 10 hvcurveto
          -563 -273 rmoveto
          18 23 13 43 hvcurveto
          502 6 vlineto
          286 -518 rlineto
          -25 16 23 -15 34 hhcurveto
          31 27 19 39 hvcurveto
          hintmask 1110111110000000
          606 vlineto
          33 -19 12 -19 -18 -23 -13 -43 vhcurveto
          -502 -5 vlineto
          -286 516 rlineto
          34 -22 -23 8 -27 hhcurveto
          -32 -28 -19 -35 hvcurveto
          -610 vlineto
          hintmask 1111011110000000
          -33 19 -12 19 vhcurveto
          endchar
        </CharString>
        <CharString name="agrave">
          -68 0 67 201 42 152 40 hstem
          43 104 222 104 vstem
          373 94 rmoveto
          -65 17 -29 44 32 7 17 30 vhcurveto
          274 vlineto
          119 -37 62 -148 -43 -61 -8 -19 -45 vhcurveto
          -31 -13 -24 -15 -28 vvcurveto
          -18 11 -16 24 21 20 13 22 20 vhcurveto
          21 19 27 21 42 hhcurveto
          70 30 -32 -92 hvcurveto
          -28 -73 vlineto
          -202 -50 -89 -86 -80 49 -55 102 77 55 29 66 44 hvcurveto
          -1 173 rmoveto
          -84 vlineto
          -80 -86 -37 -49 -52 -35 21 61 65 35 54 129 vhcurveto
          -60 318 rmoveto
          -10 8 15 -6 14 hhcurveto
          15 12 7 12 3 0 2 -2 4 hvcurveto
          -52 125 rlineto
          18 -8 -25 8 -24 hhcurveto
          -33 -21 -10 -14 -3 1 -4 2 -2 hvcurveto
          endchar
        </CharString>
        <CharString name="ampersand">
          34 0 52 607 50 hstemhm
          55 102 -14 100 144 77 hintmask 11101000
          480 185 rmoveto
          -156 209 rlineto
          82 49 58 46 88 vvcurveto
          69 -50 63 -103 vhcurveto
          hintmask 11011000
          -107 -61 -70 -87 -46 32 -64 33 -45 hvcurveto
          hintmask 11101000
          -113 -60 -40 -55 -85 vvcurveto
          -118 83 -79 136 79 52 20 51 54 vhcurveto
          34 -43 rlineto
          -20 16 16 -8 36 hhcurveto
          26 16 11 18 7 -3 8 -7 9 hvcurveto
          -71 89 22 28 10 19 19 43 rlinecurve
          4 8 3 13 7 vvcurveto
          13 -12 10 -19 -18 -12 -14 -18 -7 vhcurveto
          -8 -20 -12 -28 -12 -18 rrcurveto
          -198 -133 rmoveto
          -74 -51 68 67 85 13 27 72 54 hvcurveto
          180 -234 rlineto
          -35 -34 -42 -32 -64 hhcurveto
          hintmask 11011000
          -39 508 rmoveto
          56 27 43 49 39 29 -36 -50 -60 -32 -40 -65 -39 vhcurveto
          -33 45 -14 43 38 vvcurveto
          endchar
        </CharString>
        <CharString name="aring">
          -68 0 67 201 42 152 40 52 56 105 55 hstemhm
          43 104 18 55 105 56 -12 104 hintmask 1111101010000000
          373 94 rmoveto
          -65 17 -29 44 32 7 17 30 vhcurveto
          274 vlineto
          119 -37 62 -148 -43 -61 -8 -19 -45 vhcurveto
          -31 -13 -24 -15 -28 vvcurveto
          -18 11 -16 24 21 20 13 22 20 vhcurveto
          21 19 27 21 42 hhcurveto
          70 30 -32 -92 hvcurveto
          -28 -73 vlineto
          hintmask 1111111010000000
          -202 -50 -89 -86 -80 49 -55 102 hvcurveto
          hintmask 1111101010000000
          77 55 29 66 44 hvcurveto
          -1 173 rmoveto
          -84 vlineto
          -80 -86 -37 -49 vhcurveto
          hintmask 1111111010000000
          -52 -35 21 61 65 35 54 129 hvcurveto
          hintmask 1111101100000000
          -146 394 rmoveto
          -60 47 -48 61 60 48 48 60 61 -48 47 -60 -61 -47 -47 -61 vhcurveto
          55 hmoveto
          28 25 25 28 27 25 -25 -28 -28 -25 -24 -27 -28 -25 24 28 vhcurveto
          endchar
        </CharString>
        <CharString name="asciicircum">
          -104 479 209 hstem
          76 357 vstem
          255 594 rmoveto
          77 -92 rlineto
          -15 12 27 -8 24 hhcurveto
          20 18 7 9 2 -1 2 -2 3 hvcurveto
          -143 169 rlineto
          11 -10 -11 6 -12 hhcurveto
          -11 -12 -6 -11 -9 hvcurveto
          -143 -169 rlineto
          -2 -3 -1 -2 -2 vvcurveto
          -8 17 -7 21 22 28 8 14 12 vhcurveto
          endchar
        </CharString>
        <CharString name="asciitilde">
          117 268 79 -1 79 hstemhm
          90 551 hintmask 01100000
          hintmask 10100000
          563 415 rmoveto
          -48 -22 -22 -20 -36 -61 -78 78 -94 hhcurveto
          hintmask 01100000
          -68 -64 -40 -82 -24 hvcurveto
          -2 -8 -2 -7 -7 vvcurveto
          -15 8 -11 25 15 23 9 16 7 vhcurveto
          45 20 23 21 44 51 78 -78 93 hhcurveto
          49 65 13 119 47 hvcurveto
          hintmask 10100000
          2 6 1 5 5 vvcurveto
          13 -12 12 -22 -17 -18 -7 -19 -9 vhcurveto
          endchar
        </CharString>
        <CharString name="asterisk">
          -164 709 -20 hstem
          187 76 vstem
          263 692 rmoveto
          11 -18 6 -20 -20 -18 -6 -11 vhcurveto
          11 -124 -3 -2 -100 71 rlineto
          1 -2 -2 1 -2 hhcurveto
          -17 -22 -32 -19 -6 2 -4 5 -2 hvcurveto
          118 -54 rlineto
          -3 vlineto
          -114 -52 rlineto
          -5 -2 -2 -5 -6 vvcurveto
          -19 21 -32 15 2 2 1 1 2 vhcurveto
          98 74 3 -2 -10 -125 rlineto
          -12 18 -5 20 20 18 5 12 vhcurveto
          -10 125 3 2 99 -74 rlineto
          -1 2 2 -1 2 hhcurveto
          15 21 32 19 6 -2 5 -5 2 hvcurveto
          -115 52 rlineto
          3 vlineto
          119 54 rlineto
          4 2 2 4 6 vvcurveto
          19 -22 32 -16 -2 -2 -1 -1 -2 vhcurveto
          -101 -71 -3 2 rlineto
          endchar
        </CharString>
        <CharString name="at">
          206 -48 74 106 64 -59 67 253 59 103 74 hstemhm
          60 74 100 92 385 74 hintmask 11011111
          234 256 rmoveto
          hintmask 10111111
          -71 40 -48 69 42 53 9 39 30 vhcurveto
          hintmask 11011111
          -47 15 52 -6 27 hhcurveto
          114 109 90 155 189 -171 127 -187 -193 -174 -159 -211 -241 205 -130 165 98 57 30 44 66 hvcurveto
          8 5 3 7 8 vvcurveto
          19 -18 22 -17 -4 -4 -1 -3 -4 vhcurveto
          -43 -62 -60 -14 -58 hhcurveto
          -184 -117 146 151 172 148 124 148 140 141 -109 -133 -117 -76 -64 -58 -26 -7 14 16 4 1 5 1 5 hvcurveto
          47 216 rlineto
          1 5 1 4 4 vvcurveto
          31 -57 16 -70 -134 -100 -112 -148 vhcurveto
          hintmask 10111111
          142 -52 rmoveto
          -29 -21 18 46 109 71 80 69 11 16 -3 -7 12 hvcurveto
          -48 -210 rlineto
          -23 -21 -26 -10 -34 hhcurveto
          endchar
        </CharString>
        <CharString name="atilde">
          -68 0 67 201 42 152 40 71 72 -39 72 hstemhm
          43 104 222 104 hintmask 11101110
          373 94 rmoveto
          -65 17 -29 44 32 7 17 30 vhcurveto
          274 vlineto
          119 -37 62 -148 -43 -61 -8 -19 -45 vhcurveto
          -31 -13 -24 -15 -28 vvcurveto
          -18 11 -16 24 21 20 13 22 20 vhcurveto
          21 19 27 21 42 hhcurveto
          70 30 -32 -92 hvcurveto
          -28 -73 vlineto
          -202 -50 -89 -86 -80 49 -55 102 77 55 29 66 44 hvcurveto
          -1 173 rmoveto
          -84 vlineto
          -80 -86 -37 -49 -52 -35 21 61 65 35 54 129 vhcurveto
          -100 338 rmoveto
          13 15 -4 -12 32 hvcurveto
          hintmask 11110110
          -9 22 20 -8 27 hhcurveto
          30 33 17 50 22 hvcurveto
          4 8 3 10 9 vvcurveto
          10 -6 9 -16 -23 -3 -13 -11 -6 vhcurveto
          -9 -5 -7 -8 -18 hhcurveto
          -22 -18 9 9 -22 hvcurveto
          hintmask 11101110
          -33 12 -20 2 -10 1 rrcurveto
          -65 -35 -59 -35 -11 5 -9 23 hvcurveto
          37 -21 42 44 hhcurveto
          endchar
        </CharString>
        <CharString name="b">
          -48 0 40 395 67 hstem
          80 104 221 108 vstem
          184 678 rmoveto
          60 -20 22 -44 -32 -8 -17 -30 vhcurveto
          -603 vlineto
          -57 34 -18 32 -12 vhcurveto
          -13 34 47 -10 48 hhcurveto
          146 92 94 182 187 -83 39 -88 -84 -46 -45 -47 -26 hvcurveto
          -2 hlineto
          -1 -88 rmoveto
          58 68 55 51 57 46 -26 -141 -168 -52 -60 -78 -60 -32 26 27 vhcurveto
          endchar
        </CharString>
        <CharString name="backslash">
          56 -206 957 hstem
          50 580 vstem
          568 -200 rmoveto
          -4 3 4 -2 6 hhcurveto
          19 30 18 14 2 0 1 -1 2 hvcurveto
          -516 914 rlineto
          4 -2 -5 2 -6 hhcurveto
          -19 -31 -20 -16 -2 0 -2 1 -2 hvcurveto
          endchar
        </CharString>
        <CharString name="bar">
          -352 -60 800 hstem
          90 82 vstem
          90 -35 rmoveto
          -17 20 -8 21 20 21 8 17 vhcurveto
          750 vlineto
          16 -21 9 -20 -21 -20 -9 -16 vhcurveto
          endchar
        </CharString>
        <CharString name="braceleft">
          -210 253 56 hstem
          177 94 vstem
          177 -2 rmoveto
          -56 20 -120 137 20 10 11 14 13 -9 13 -16 4 vhcurveto
          -43 10 -25 27 51 30 5 81 24 vvcurveto
          81 -15 67 -77 31 vhcurveto
          4 vlineto
          77 31 15 67 81 24 -5 81 30 vvcurveto
          51 25 27 43 10 vhcurveto
          16 4 9 13 13 vvcurveto
          14 -10 11 -20 -137 -20 -120 -56 vhcurveto
          -51 3 -17 -40 vvcurveto
          -53 -20 -94 -64 -11 -5 -14 -14 -14 5 -14 11 64 20 -94 -53 vhcurveto
          -40 -3 -17 -51 vvcurveto
          endchar
        </CharString>
        <CharString name="braceright">
          -210 253 56 hstem
          133 94 vstem
          227 -2 rmoveto
          51 -3 17 40 vvcurveto
          53 20 94 64 11 5 14 14 14 -5 14 -11 -64 -20 94 53 vhcurveto
          40 3 17 51 vvcurveto
          56 -20 120 -137 -20 -10 -11 -14 -13 9 -13 16 -4 vhcurveto
          43 -10 25 -27 -51 -30 -5 -81 -24 vvcurveto
          -81 15 -67 77 -31 vhcurveto
          -4 vlineto
          -77 -31 -15 -67 -81 -24 5 -81 -30 vvcurveto
          -51 -25 -27 -43 -10 vhcurveto
          -16 -4 -9 -13 -13 vvcurveto
          -14 10 -11 20 137 20 120 56 vhcurveto
          endchar
        </CharString>
        <CharString name="bracketleft">
          -276 -178 69 770 69 hstem
          80 91 vstem
          80 -128 rmoveto
          -35 15 -15 31 vhcurveto
          160 hlineto
          11 6 17 17 18 -6 17 -11 hvcurveto
          -115 770 115 hlineto
          11 6 17 17 18 -6 17 -11 hvcurveto
          -160 hlineto
          -31 -15 -15 -35 hvcurveto
          endchar
        </CharString>
        <CharString name="bracketright">
          -276 -178 69 770 69 hstem
          167 91 vstem
          258 680 rmoveto
          35 -15 15 -31 vhcurveto
          -160 hlineto
          -11 -6 -17 -18 -17 6 -17 11 hvcurveto
          115 -770 -115 hlineto
          -11 -6 -17 -18 -17 6 -17 11 hvcurveto
          160 hlineto
          31 15 15 35 hvcurveto
          endchar
        </CharString>
        <CharString name="breve">
          -71 556 66 hstem
          125 293 vstem
          418 683 rmoveto
          15 -9 13 -18 -16 -14 -11 -16 -6 vhcurveto
          -52 -19 -29 -10 -36 hhcurveto
          -35 -29 10 52 -19 hvcurveto
          16 -6 -14 11 -16 hhcurveto
          -18 -9 -13 -15 -71 58 -56 88 89 58 56 71 hvcurveto
          endchar
        </CharString>
        <CharString name="brokenbar">
          -352 -60 800 hstem
          90 82 vstem
          90 429 rmoveto
          -17 20 -8 21 20 21 8 17 vhcurveto
          286 vlineto
          16 -21 9 -20 -21 -20 -9 -16 vhcurveto
          -750 vmoveto
          -17 20 -8 21 20 21 8 17 vhcurveto
          286 vlineto
          16 -21 9 -20 -21 -20 -9 -16 vhcurveto
          endchar
        </CharString>
        <CharString name="bullet">
          -200 236 234 hstem
          90 234 vstem
          90 353 rmoveto
          -64 53 -53 64 64 53 53 64 64 -53 53 -64 -64 -53 -53 -64 vhcurveto
          endchar
        </CharString>
        <CharString name="c">
          -124 0 44 418 40 hstem
          50 108 vstem
          422 126 rmoveto
          -29 -24 -30 -53 -81 hhcurveto
          -97 -32 75 131 162 44 50 83 49 18 -32 -32 11 hvcurveto
          -26 9 14 -16 31 hhcurveto
          19 23 14 25 34 -27 26 -28 17 hvcurveto
          20 -34 -38 10 -45 hhcurveto
          -132 -105 -67 -185 -143 59 -107 167 90 54 36 46 37 hvcurveto
          9 11 4 9 14 vvcurveto
          13 -12 8 -11 -10 -8 -3 -8 -7 vhcurveto
          endchar
        </CharString>
        <CharString name="caron">
          -23 557 154 hstem
          125 310 vstem
          228 681 rmoveto
          22 -21 -24 8 -20 hhcurveto
          -22 -16 -10 -11 -3 1 -3 3 -3 hvcurveto
          102 -106 rlineto
          -12 11 19 -6 19 hhcurveto
          19 19 6 12 11 hvcurveto
          102 106 rlineto
          3 3 1 3 3 vvcurveto
          11 -16 10 -22 -20 -24 -8 -22 -21 vhcurveto
          -52 -52 rlineto
          endchar
        </CharString>
        <CharString name="ccedilla">
          -124 -198 49 74 37 38 44 418 40 hstemhm
          50 108 81 52 25 76 hintmask 11111100
          422 126 rmoveto
          -29 -24 -30 -53 -81 hhcurveto
          -97 -32 75 131 162 44 50 83 49 18 -32 -32 11 hvcurveto
          -26 9 14 -16 31 hhcurveto
          19 23 14 25 34 -27 26 -28 17 hvcurveto
          20 -34 -38 10 -45 hhcurveto
          -132 -105 -67 -185 -132 50 -101 139 -15 hvcurveto
          -77 vlineto
          hintmask 11111110
          49 28 -4 -36 -16 -12 -18 -35 hvcurveto
          -21 -23 11 -14 hhcurveto
          -13 -8 -9 -10 -28 57 -13 34 64 47 32 54 hvcurveto
          hintmask 11111100
          59 -50 15 -51 vhcurveto
          38 vlineto
          81 4 50 34 35 44 rrcurveto
          9 11 4 9 14 vvcurveto
          13 -12 8 -11 -10 -8 -3 -8 -7 vhcurveto
          endchar
        </CharString>
        <CharString name="cedilla">
          -22 -198 49 74 85 hstemhm
          244 52 25 76 hintmask 11100000
          296 10 rmoveto
          -52 -85 hlineto
          hintmask 11110000
          49 28 -4 -36 -16 -12 -18 -35 hvcurveto
          -21 -23 11 -14 hhcurveto
          -13 -8 -9 -10 -28 57 -13 34 64 47 32 54 hvcurveto
          hintmask 11100000
          59 -50 15 -51 vhcurveto
          endchar
        </CharString>
        <CharString name="cent">
          -84 1 44 415 41 0 -20 hstemhm
          60 108 82 64 hintmask 10111000
          432 126 rmoveto
          -23 -27 -27 -47 -68 -7 rrcurveto
          hintmask 11011000
          415 vlineto
          35 -7 14 -28 10 -27 rrcurveto
          -26 9 14 -16 31 hhcurveto
          19 23 14 25 34 -27 26 -28 17 hvcurveto
          -30 17 -33 10 -37 2 rrcurveto
          75 vlineto
          10 -16 6 -16 -16 -16 -6 -10 vhcurveto
          -77 vlineto
          -109 -15 -81 -72 -162 vvcurveto
          -133 50 -101 140 -14 vhcurveto
          -89 vlineto
          -11 16 -5 16 16 16 5 11 vhcurveto
          88 vlineto
          73 6 47 34 33 41 rrcurveto
          9 11 4 9 14 vvcurveto
          13 -12 8 -11 vhcurveto
          hintmask 10111000
          -10 -8 -3 -8 -7 hvcurveto
          -264 124 rmoveto
          129 28 58 54 18 vhcurveto
          -404 vlineto
          -61 22 -21 70 107 vvcurveto
          endchar
        </CharString>
        <CharString name="circumflex">
          -64 557 154 hstem
          125 310 vstem
          332 587 rmoveto
          -22 21 24 -8 20 hhcurveto
          22 16 10 11 3 -1 3 -3 3 hvcurveto
          -102 106 rlineto
          12 -11 -19 6 -19 hhcurveto
          -19 -19 -6 -12 -11 hvcurveto
          -102 -106 rlineto
          -3 -3 -1 -3 -3 vvcurveto
          -11 16 -10 22 20 24 8 22 21 vhcurveto
          52 52 rlineto
          endchar
        </CharString>
        <CharString name="colon">
          -342 0 156 183 156 hstem
          60 152 vstem
          60 416 rmoveto
          -44 34 -33 42 43 33 33 44 46 -33 33 -43 -42 -34 -32 -47 vhcurveto
          -339 vmoveto
          -44 34 -33 42 43 33 33 44 46 -33 33 -43 -42 -34 -32 -47 vhcurveto
          endchar
        </CharString>
        <CharString name="comma">
          -342 -103 259 hstem
          60 152 vstem
          84 -68 rmoveto
          -1 -3 -1 -3 -3 vvcurveto
          -14 13 -12 17 13 15 7 20 9 vhcurveto
          42 89 rlineto
          15 32 6 18 26 vvcurveto
          45 -39 22 -34 -35 -44 -21 -51 -23 9 -40 53 -9 vhcurveto
          endchar
        </CharString>
        <CharString name="copyright">
          226 -9 52 113 41 318 38 114 52 hstem
          50 64 134 99 127 90 162 64 vstem
          523 429 rmoveto
          27 14 13 25 hvcurveto
          40 vlineto
          35 -72 11 -51 -110 -83 -52 -147 -128 63 -70 127 53 29 11 12 27 vhcurveto
          23 10 1 13 5 vvcurveto
          11 -9 9 -15 -11 -16 -9 -5 -10 vhcurveto
          -7 -15 -19 -9 -31 hhcurveto
          -49 -49 27 129 116 40 46 61 7 10 -1 -3 9 hvcurveto
          -36 vlineto
          -31 16 -15 33 vhcurveto
          -473 -74 rmoveto
          -204 166 -160 204 205 165 160 204 204 -165 160 -205 -204 -166 -160 -204 vhcurveto
          64 hmoveto
          170 136 142 170 170 136 -142 -170 -170 -136 -142 -170 -170 -136 142 170 vhcurveto
          endchar
        </CharString>
        <CharString name="currency">
          -84 118 71 309 71 hstem
          40 71 309 71 vstem
          396 527 rmoveto
          13 -20 -46 29 -65 hhcurveto
          -66 -45 -29 -13 -20 hvcurveto
          -67 67 rlineto
          4 -4 -4 1 -5 hhcurveto
          -19 -25 -25 -19 -5 1 -5 4 -3 hvcurveto
          66 -66 rlineto
          -13 -20 -28 -46 -66 vvcurveto
          -65 28 -48 13 -19 vhcurveto
          -67 -67 rlineto
          -4 -4 -1 -4 -4 vvcurveto
          -19 26 -26 19 4 4 1 4 4 vhcurveto
          67 67 rlineto
          -26 41 48 -16 43 hhcurveto
          65 46 30 13 20 hvcurveto
          67 -67 rlineto
          -4 3 5 -1 5 hhcurveto
          19 25 25 19 5 -1 4 -4 4 hvcurveto
          -67 67 rlineto
          12 16 31 46 69 vvcurveto
          45 -13 45 -29 42 vhcurveto
          67 67 rlineto
          3 3 2 5 4 vvcurveto
          19 -26 26 -19 -4 -5 -2 -3 -3 vhcurveto
          -199 -97 rmoveto
          86 69 -71 -83 -86 -69 -69 -86 -84 -70 70 85 83 69 71 85 hvcurveto
          endchar
        </CharString>
        <CharString name="cyrBreve">
          126 764 41 hstem
          178 384 vstem
          450 875 rmoveto
          -38 -7 -19 -32 -54 hhcurveto
          -54 -19 32 38 -7 hvcurveto
          38 -7 -26 9 -29 hhcurveto
          -26 -24 -10 -27 hvcurveto
          -79 5 69 -42 118 hhcurveto
          117 75 43 81 25 -27 9 -23 -29 -26 -9 -38 -7 hvcurveto
          endchar
        </CharString>
        <CharString name="cyrbreve">
          -28 556 38 hstem
          133 320 vstem
          351 651 rmoveto
          -32 -5 -13 -25 -41 hhcurveto
          -40 -12 25 32 -5 hvcurveto
          33 -6 -26 12 -26 hhcurveto
          -21 -23 -15 -28 -56 57 -41 102 104 57 41 55 29 -23 15 -20 -27 -26 -12 -33 -6 hvcurveto
          endchar
        </CharString>
        <CharString name="d">
          -51 0 67 395 40 hstem
          50 108 222 103 vstem
          288 502 rmoveto
          -146 -92 -81 -192 -174 86 -55 85 83 44 52 53 32 hvcurveto
          3 -1 rlineto
          -65 17 -39 44 32 7 17 30 vhcurveto
          666 vlineto
          30 -8 17 -32 -44 -20 -22 -60 vhcurveto
          -193 vlineto
          10 -25 -34 7 -32 hhcurveto
          -130 -265 rmoveto
          178 52 47 78 60 32 -32 -27 vhcurveto
          -209 vlineto
          -59 -64 -68 -55 -56 -47 42 128 vhcurveto
          endchar
        </CharString>
        <CharString name="dagger">
          -150 393 80 237 -20 hstem
          188 88 vstem
          188 393 rmoveto
          -456 vlineto
          -20 22 -9 22 22 22 9 20 vhcurveto
          456 120 vlineto
          18 10 20 20 20 -10 20 -18 hvcurveto
          -120 208 hlineto
          19 -22 10 -22 -22 -22 -10 -19 vhcurveto
          -208 -120 vlineto
          -19 -9 -20 -20 -20 9 -20 19 hvcurveto
          endchar
        </CharString>
        <CharString name="daggerdbl">
          -150 145 80 168 80 237 -20 hstem
          188 88 vstem
          188 393 rmoveto
          -168 -120 vlineto
          -19 -9 -20 -20 -20 9 -20 19 hvcurveto
          120 -208 hlineto
          -20 22 -9 22 22 22 9 20 vhcurveto
          208 120 vlineto
          18 10 20 20 20 -10 20 -18 hvcurveto
          -120 168 120 hlineto
          18 10 20 20 20 -10 20 -18 hvcurveto
          -120 208 hlineto
          19 -22 10 -22 -22 -22 -10 -19 vhcurveto
          -208 -120 vlineto
          -19 -9 -20 -20 -20 9 -20 19 hvcurveto
          endchar
        </CharString>
        <CharString name="degree">
          -282 494 54 123 54 hstem
          50 55 122 55 vstem
          50 608 rmoveto
          -63 53 -51 64 63 52 51 63 66 -52 51 -63 -64 -53 -51 -66 vhcurveto
          55 -1 rmoveto
          33 28 31 33 26 35 -23 -41 -31 -28 -28 -33 -33 -28 28 31 vhcurveto
          endchar
        </CharString>
        <CharString name="dieresis">
          -68 567 122 hstem
          114 122 74 122 vstem
          114 628 rmoveto
          -33 28 -28 33 33 28 28 33 33 -28 28 -33 -33 -28 -28 -33 vhcurveto
          196 hmoveto
          -33 28 -28 33 33 28 28 33 33 -28 28 -33 -33 -28 -28 -33 vhcurveto
          endchar
        </CharString>
        <CharString name="divide">
          86 101 128 80 80 80 128 hstem
          286 128 cntrmask 11100000
          286 533 rmoveto
          -35 29 -29 35 36 28 29 35 36 -28 28 -36 -35 -29 -28 -36 vhcurveto
          -368 vmoveto
          -36 29 -28 35 36 28 28 36 35 -28 29 -36 -35 -29 -29 -35 vhcurveto
          304 144 rmoveto
          13 7 20 20 20 -7 20 -13 hvcurveto
          -480 hlineto
          -14 -6 -20 -20 -20 6 -20 14 hvcurveto
          endchar
        </CharString>
        <CharString name="dollar">
          -84 0 51 605 52 0 -20 hstemhm
          32 103 -100 93 106 61 68 93 -61 103 hintmask 10101110
          416 527 rmoveto
          27 13 15 33 hvcurveto
          hintmask 11010110
          58 vlineto
          29 -10 8 -28 10 vhcurveto
          -37 12 -37 11 -49 4 rrcurveto
          85 vlineto
          14 -15 7 -16 -15 -15 -7 -14 vhcurveto
          -84 vlineto
          -130 -6 -72 -72 -102 vvcurveto
          -117 80 -37 122 -49 vhcurveto
          -274 vlineto
          hintmask 11001101
          -37 1 -35 7 -34 13 rrcurveto
          54 vlineto
          46 -19 17 -35 -26 -13 -15 -33 vhcurveto
          -60 vlineto
          -29 9 -7 27 -12 vhcurveto
          40 -17 68 -15 55 -1 rrcurveto
          -96 vlineto
          -14 15 -7 15 16 15 7 14 vhcurveto
          99 vlineto
          134 15 69 77 99 vvcurveto
          106 -66 36 -137 54 vhcurveto
          266 vlineto
          hintmask 11001110
          18 -2 16 -4 18 -5 5 -2 5 -2 6 -1 rrcurveto
          -51 vlineto
          hintmask 10101110
          -46 18 -16 35 vhcurveto
          hintmask 11010101
          -281 7 rmoveto
          49 29 61 70 12 vhcurveto
          -242 vlineto
          -73 32 -26 26 62 vvcurveto
          260 -351 rmoveto
          -53 -32 -53 -68 -19 vhcurveto
          241 vlineto
          69 -32 31 -28 -56 vvcurveto
          endchar
        </CharString>
        <CharString name="dotaccent">
          -70 567 124 hstem
          210 124 vstem
          210 629 rmoveto
          -34 28 -28 34 34 28 28 34 34 -28 28 -34 -34 -28 -28 -34 vhcurveto
          endchar
        </CharString>
        <CharString name="dotlessi">
          21 -21 502 -20 hstem
          85 104 vstem
          189 435 rmoveto
          45 -20 22 -44 -32 -8 -17 -30 vhcurveto
          -408 vlineto
          -30 8 -17 32 44 20 8 60 vhcurveto
          endchar
        </CharString>
        <CharString name="e">
          -89 0 44 208 42 168 40 hstem
          50 108 225 102 vstem
          435 126 rmoveto
          -29 -24 -33 -53 -81 hhcurveto
          -99 -40 77 109 7 0 7 1 8 hvcurveto
          269 hlineto
          26 31 8 41 133 -83 68 -118 -152 -82 -92 -171 -145 76 -94 160 90 57 36 46 37 hvcurveto
          9 11 4 9 14 vvcurveto
          13 -12 8 -11 -10 -8 -3 -8 -7 vhcurveto
          -157 336 rmoveto
          51 54 -43 -96 -23 -12 -6 -22 hvcurveto
          -187 hlineto
          120 9 46 48 61 hhcurveto
          endchar
        </CharString>
        <CharString name="eacute">
          -89 0 44 208 42 168 40 hstem
          50 108 225 102 vstem
          435 126 rmoveto
          -29 -24 -33 -53 -81 hhcurveto
          -99 -40 77 109 7 0 7 1 8 hvcurveto
          269 hlineto
          26 31 8 41 133 -83 68 -118 -152 -82 -92 -171 -145 76 -94 160 90 57 36 46 37 hvcurveto
          9 11 4 9 14 vvcurveto
          13 -12 8 -11 -10 -8 -3 -8 -7 vhcurveto
          -157 336 rmoveto
          51 54 -43 -96 -23 -12 -6 -22 hvcurveto
          -187 hlineto
          120 9 46 48 61 hhcurveto
          114 254 rmoveto
          2 2 1 4 3 vvcurveto
          14 -21 10 -33 -24 -25 -8 -18 -8 vhcurveto
          -52 -125 rlineto
          -2 -4 0 -2 -3 vvcurveto
          -12 12 -7 15 14 15 6 10 8 vhcurveto
          endchar
        </CharString>
        <CharString name="ecircumflex">
          -89 0 44 208 42 168 40 hstem
          50 108 225 102 vstem
          435 126 rmoveto
          -29 -24 -33 -53 -81 hhcurveto
          -99 -40 77 109 7 0 7 1 8 hvcurveto
          269 hlineto
          26 31 8 41 133 -83 68 -118 -152 -82 -92 -171 -145 76 -94 160 90 57 36 46 37 hvcurveto
          9 11 4 9 14 vvcurveto
          13 -12 8 -11 -10 -8 -3 -8 -7 vhcurveto
          -157 336 rmoveto
          51 54 -43 -96 -23 -12 -6 -22 hvcurveto
          -187 hlineto
          120 9 46 48 61 hhcurveto
          42 125 rmoveto
          -22 21 24 -8 20 hhcurveto
          22 16 10 11 3 -1 3 -3 3 hvcurveto
          -102 106 rlineto
          12 -11 -19 6 -19 hhcurveto
          -19 -19 -6 -12 -11 hvcurveto
          -102 -106 rlineto
          -3 -3 -1 -3 -3 vvcurveto
          -11 16 -10 22 20 24 8 22 21 vhcurveto
          52 52 rlineto
          endchar
        </CharString>
        <CharString name="edieresis">
          -89 0 44 208 42 168 40 65 122 hstemhm
          50 108 -54 122 74 122 -39 102 hintmask 11101001
          435 126 rmoveto
          -29 -24 -33 -53 -81 hhcurveto
          -99 -40 77 109 7 0 7 1 8 hvcurveto
          269 hlineto
          26 31 8 41 133 -83 68 -118 -152 -82 -92 -171 -145 76 -94 160 90 57 36 46 37 hvcurveto
          9 11 4 9 14 vvcurveto
          13 -12 8 -11 -10 -8 -3 -8 -7 vhcurveto
          -157 336 rmoveto
          51 54 -43 -96 -23 -12 -6 -22 hvcurveto
          -187 hlineto
          120 9 46 48 61 hhcurveto
          hintmask 11110110
          -174 166 rmoveto
          -33 28 -28 33 33 28 28 33 33 -28 28 -33 -33 -28 -28 -33 vhcurveto
          196 hmoveto
          -33 28 -28 33 33 28 28 33 33 -28 28 -33 -33 -28 -28 -33 vhcurveto
          endchar
        </CharString>
        <CharString name="egrave">
          -89 0 44 208 42 168 40 hstem
          50 108 225 102 vstem
          435 126 rmoveto
          -29 -24 -33 -53 -81 hhcurveto
          -99 -40 77 109 7 0 7 1 8 hvcurveto
          269 hlineto
          26 31 8 41 133 -83 68 -118 -152 -82 -92 -171 -145 76 -94 160 90 57 36 46 37 hvcurveto
          9 11 4 9 14 vvcurveto
          13 -12 8 -11 -10 -8 -3 -8 -7 vhcurveto
          -157 336 rmoveto
          51 54 -43 -96 -23 -12 -6 -22 hvcurveto
          -187 hlineto
          120 9 46 48 61 hhcurveto
          -27 124 rmoveto
          -10 8 15 -6 14 hhcurveto
          15 12 7 12 3 0 2 -2 4 hvcurveto
          -52 125 rlineto
          18 -8 -25 8 -24 hhcurveto
          -33 -21 -10 -14 -3 1 -4 2 -2 hvcurveto
          endchar
        </CharString>
        <CharString name="eight">
          -84 0 51 308 48 251 51 hstemhm
          37 111 -99 107 218 107 -99 111 hintmask 11110010
          367 388 rmoveto
          hintmask 11101100
          63 14 51 59 72 vvcurveto
          81 -51 95 -165 -165 -51 -95 -82 -72 51 -56 63 -16 vhcurveto
          -8 vlineto
          hintmask 11110010
          -86 -24 -40 -68 -79 vvcurveto
          -134 90 -75 138 138 90 75 134 79 -40 73 -86 19 vhcurveto
          -219 -173 rmoveto
          115 61 37 56 56 61 -37 -115 -109 -55 -47 -62 -62 -55 48 108 vhcurveto
          hintmask 11101100
          117 200 rmoveto
          -57 -52 36 92 96 62 27 47 47 62 -27 -96 -92 -52 -36 -57 hvcurveto
          endchar
        </CharString>
        <CharString name="ellipsis">
          182 0 156 hstem
          60 152 110 152 110 152 cntrmask 01110000
          584 77 rmoveto
          -44 34 -33 42 43 33 33 44 46 -33 33 -43 -42 -34 -32 -47 vhcurveto
          -524 hmoveto
          -44 34 -33 42 43 33 33 44 46 -33 33 -43 -42 -34 -32 -47 vhcurveto
          262 hmoveto
          -44 34 -33 42 43 33 33 44 46 -33 33 -43 -42 -34 -32 -47 vhcurveto
          endchar
        </CharString>
        <CharString name="emdash">
          407 250 75 hstem
          80 861 vstem
          922 250 rmoveto
          12 7 19 18 19 -7 19 -12 hvcurveto
          -823 hlineto
          -13 -6 -19 -19 -18 6 -19 13 hvcurveto
          endchar
        </CharString>
        <CharString name="endash">
          176 250 75 hstem
          80 630 vstem
          691 250 rmoveto
          12 7 19 18 19 -7 19 -12 hvcurveto
          -592 hlineto
          -13 -6 -19 -19 -18 6 -19 13 hvcurveto
          endchar
        </CharString>
        <CharString name="equal">
          86 227 80 97 80 hstem
          90 520 vstem
          590 404 rmoveto
          13 7 20 20 20 -7 20 -13 hvcurveto
          -480 hlineto
          -14 -6 -20 -20 -20 6 -20 14 hvcurveto
          480 -177 rmoveto
          13 7 20 20 20 -7 20 -13 hvcurveto
          -480 hlineto
          -14 -6 -20 -20 -20 6 -20 14 hvcurveto
          endchar
        </CharString>
        <CharString name="eth">
          -37 0 40 419 40 217 44 hstem
          50 107 245 107 vstem
          505 711 rmoveto
          7 4 3 6 7 vvcurveto
          11 -9 15 -14 -3 -2 -1 -1 -3 vhcurveto
          -95 -50 rlineto
          37 -45 -59 21 -75 hhcurveto
          -31 -79 -4 -33 -10 7 -9 10 hvcurveto
          21 14 12 46 hhcurveto
          48 40 -20 -32 31 hvcurveto
          -106 -55 rlineto
          -8 -4 -3 -6 -7 vvcurveto
          -12 10 -14 13 3 3 0 2 3 vhcurveto
          114 60 31 -48 18 -61 5 -57 rlinecurve
          27 -40 -45 10 -50 hhcurveto
          -134 -81 -104 -146 -152 85 -97 140 179 55 175 168 138 -26 113 -60 74 hvcurveto
          -152 -628 rmoveto
          -61 -53 58 144 114 29 103 96 36 49 -19 -44 35 hvcurveto
          -135 -5 -221 -126 vhcurveto
          endchar
        </CharString>
        <CharString name="exclam">
          -306 0 139 570 -20 hstemhm
          85 139 -123 106 hintmask 11010000
          207 658 rmoveto
          33 -15 18 -41 -31 -19 -13 -37 vhcurveto
          -434 vlineto
          -22 26 -10 26 27 27 11 21 vhcurveto
          hintmask 11100000
          -122 -156 rmoveto
          -37 32 -32 37 38 32 32 37 38 -32 32 -38 -37 -32 -32 -38 vhcurveto
          endchar
        </CharString>
        <CharString name="exclamdown">
          -306 21 -21 570 139 hstemhm
          85 139 -122 106 hintmask 11010000
          102 51 rmoveto
          -33 15 -18 41 31 19 13 37 vhcurveto
          434 vlineto
          22 -26 10 -26 -27 -27 -11 -21 vhcurveto
          hintmask 11100000
          122 156 rmoveto
          37 -32 32 -37 -38 -32 -32 -37 -38 32 -32 38 37 32 32 38 vhcurveto
          endchar
        </CharString>
        <CharString name="f">
          -261 21 -21 445 48 227 40 hstem
          111 104 vstem
          24 466 rmoveto
          -15 9 -6 23 vhcurveto
          55 -398 hlineto
          -30 8 -17 32 44 20 8 60 vhcurveto
          377 111 vlineto
          22 13 13 13 11 -10 11 -25 hvcurveto
          -111 85 hlineto
          116 47 26 41 25 13 -9 -12 10 vhcurveto
          -12 10 15 -17 20 hhcurveto
          26 14 14 21 27 -37 28 -61 -60 -47 -19 -31 -38 hvcurveto
          -41 -34 -35 -57 -5 -126 rrcurveto
          -57 hlineto
          -14 -1 -17 -3 -23 vvcurveto
          endchar
        </CharString>
        <CharString name="fi">
          -29 21 -21 454 48 218 40 hstem
          111 104 181 104 vstem
          24 475 rmoveto
          -15 9 -6 23 vhcurveto
          55 -407 hlineto
          -30 8 -17 32 44 20 8 60 vhcurveto
          386 181 -407 vlineto
          -30 8 -17 32 44 20 8 60 vhcurveto
          367 vlineto
          45 -20 22 -44 vhcurveto
          -221 76 hlineto
          116 62 26 41 25 28 -14 -12 10 vhcurveto
          -12 10 15 -17 20 hhcurveto
          26 14 14 21 27 -52 33 -71 -50 -59 -16 -31 -38 hvcurveto
          -41 -34 -38 -51 -5 -126 rrcurveto
          -57 hlineto
          -14 -1 -17 -3 -23 vvcurveto
          endchar
        </CharString>
        <CharString name="five">
          -84 0 51 345 64 160 89 hstem
          56 96 214 112 vstem
          422 620 rmoveto
          33 12 30 20 15 -2 24 -32 hvcurveto
          -293 hlineto
          -23 -11 -9 -20 -1 hvcurveto
          -23 -326 rlineto
          -23 11 -8 17 16 14 4 16 11 vhcurveto
          32 20 38 21 43 hhcurveto
          52 62 -29 -128 -122 -55 -66 -70 -41 -22 2 12 -26 hvcurveto
          57 vlineto
          48 -15 17 -38 -29 -14 -15 -35 vhcurveto
          -45 vlineto
          -24 6 -17 17 -10 vhcurveto
          -32 54 55 -9 58 hhcurveto
          174 58 137 108 162 -79 53 -108 -30 -55 -5 -42 -44 hvcurveto
          16 207 rlineto
          endchar
        </CharString>
        <CharString name="fl">
          -29 21 -21 454 48 218 40 hstem
          111 104 181 104 vstem
          500 662 rmoveto
          70 -3 -72 28 -82 hhcurveto
          -50 -59 -16 -31 -38 hvcurveto
          -41 -34 -38 -51 -5 -126 rrcurveto
          -57 hlineto
          -14 -1 -17 -3 -23 vvcurveto
          -15 9 -6 23 vhcurveto
          55 -407 hlineto
          -30 8 -17 32 44 20 8 60 vhcurveto
          386 102 vlineto
          22 13 13 13 11 -10 11 -25 hvcurveto
          -102 76 hlineto
          116 62 26 41 34 22 -9 -22 22 vhcurveto
          -642 vlineto
          -30 8 -17 32 44 20 8 60 vhcurveto
          endchar
        </CharString>
        <CharString name="florin">
          -84 -199 -21 674 48 218 40 hstem
          -60 620 vstem
          88 475 rmoveto
          -15 10 -6 26 vhcurveto
          57 hlineto
          -87 -410 -35 -163 -40 -18 -47 -25 rlinecurve
          -17 -9 -14 -14 -1 -18 rrcurveto
          -12 16 -5 14 46 70 71 29 23 vhcurveto
          53 65 32 82 20 94 71 333 rcurveline
          119 hlineto
          22 11 15 14 10 -9 9 -22 hvcurveto
          -111 hlineto
          16 76 rlineto
          116 24 54 26 41 46 2 -50 43 hhcurveto
          25 14 17 24 25 -31 24 -56 -60 -51 -19 -31 -45 hvcurveto
          -48 -34 -45 -48 -32 -126 rrcurveto
          -72 hlineto
          -14 -1 -13 -3 -5 -23 rrcurveto
          endchar
        </CharString>
        <CharString name="foundryicon">
          1128 -275 36 241 36 -30 39 -29 32 338 18 38 42 83 17 hstemhm
          59 131 117 107 -63 111 58 103 60 94 47 91 19 102 44 42 23 90 43 99 49 114 51 65 21 14 hintmask 110011110111100111100000
          hintmask 001000000000000001010000
          1691 218 rmoveto
          -4 -3 1 -3 -7 hvcurveto
          -21 -85 -32 -54 -40 -30 rrcurveto
          -29 42 -13 56 69 vvcurveto
          hintmask 001000000000000111100000
          74 34 40 138 115 vvcurveto
          121 -32 52 -117 19 vhcurveto
          -79 -142 -23 -249 38 -185 3 -14 rcurveline
          -9 -16 -22 -45 -19 5 -29 99 9 162 15 105 -15 16 -51 21 -22 -6 -8 -6 -11 -55 -3 -10 rrcurveto
          8 -21 -27 5 -23 hhcurveto
          -46 -49 -16 -67 -3 -72 rrcurveto
          hintmask 000100000000000100000000
          -53 vlineto
          hintmask 000110000000011000000000
          -13 -32 -22 -47 -39 -16 -19 12 -7 28 -7 28 rrcurveto
          55 17 29 76 68 vvcurveto
          99 -61 35 -85 -7 vhcurveto
          -25 -41 -15 -86 -2 -73 rrcurveto
          -97 -6 36 -91 104 hhcurveto
          44 4 29 31 17 27 rrcurveto
          -36 10 28 -26 52 hhcurveto
          26 3 34 21 7 28 rrcurveto
          hintmask 001000000000000000100000
          -28 12 30 -34 38 hhcurveto
          33 24 30 31 8 hvcurveto
          -39 23 36 -22 49 hhcurveto
          hintmask 001000000000000001010000
          108 20 132 78 -5 hvcurveto
          hintmask 000111100000000111100000
          -1079 179 rmoveto
          -26 28 -56 23 -35 -4 12 -75 29 -152 -27 -124 -2 -7 -4 -16 -15 -4 -29 92 0 103 6 108 -26 24 -49 9 -20 4 rrcurveto
          -12 -23 -7 -34 -50 vvcurveto
          -53 4 -54 14 -46 vhcurveto
          -15 -33 -32 -58 -52 -17 -127 91 47 405 66 61 17 -21 21 -84 -9 -53 -2 -6 0 -10 12 13 rrcurveto
          37 32 26 40 48 vvcurveto
          125 -91 22 -60 13 vhcurveto
          -110 -96 -39 -165 1 -163 rrcurveto
          -142 3 60 -146 152 hhcurveto
          67 33 48 40 14 hvcurveto
          -43 21 33 -29 48 hhcurveto
          13 12 10 8 5 hvcurveto
          -16 -132 -2 -89 -83 -54 -10 37 7 52 5 38 rrcurveto
          27 -27 -40 10 -32 hhcurveto
          -8 -27 -7 -30 -32 vvcurveto
          -72 18 -39 70 199 56 353 319 -38 vhcurveto
          594 263 rmoveto
          hintmask 100101000110011000000000
          0 1 0 -1 1 vhcurveto
          -17 hlineto
          4 19 rlineto
          0 3 1 -4 vhcurveto
          -17 -6 rlineto
          5 -8 -9 1 -10 hhcurveto
          -25 -25 -17 -29 -8 hvcurveto
          -15 -15 -95 -15 -96 -18 rrcurveto
          -19 -118 10 3 -2 hvcurveto
          -5 -2 -6 -4 5 hvcurveto
          26 -24 65 3 19 -17 rrcurveto
          -54 46 56 -54 64 hhcurveto
          108 33 134 65 32 hvcurveto
          -564 -228 rmoveto
          43 -105 5 -178 7 -119 45 -8 27 31 12 41 rrcurveto
          10 29 0 55 34 vvcurveto
          hintmask 010000010110000000000000
          9 37 28 27 10 27 8 -54 32 -21 56 15 -9 48 4 66 9 48 -14 25 -39 12 -42 4 rrcurveto
          -7 -16 -8 -30 -18 vvcurveto
          -9 -27 -15 -30 -23 -43 -4 53 -13 38 -15 27 -11 13 -15 8 -17 3 -16 4 -21 3 -27 1 rrcurveto
          618 -360 rmoveto
          -27 84 29 151 30 37 rrcurveto
          hintmask 100000001000000000000000
          -3 -37 -1 -92 18 -73 -2 -28 -28 -28 -16 -14 rrcurveto
          294 206 rmoveto
          5 104 20 120 20 81 15 -80 -15 -160 -45 -65 rrcurveto
          hintmask 100101000110011000000000
          -477 76 rmoveto
          hintmask 000010000001100000000000
          7 -14 10 -29 -29 vvcurveto
          -49 -14 -58 -30 -4 vhcurveto
          63 9 65 18 55 vhcurveto
          -52 136 rmoveto
          10 -24 16 -34 15 -19 rrcurveto
          0 26 -29 -15 28 vhcurveto
          -14 26 -17 36 -13 29 -4 -1 -3 -9 -1 -3 rrcurveto
          -25 5 rmoveto
          8 -26 7 -26 12 -23 rrcurveto
          0 20 -32 -10 30 vhcurveto
          -10 28 -7 30 -10 31 -3 -1 -4 -8 -3 -3 rrcurveto
          endchar
        </CharString>
        <CharString name="four">
          -84 0 53 120 53 483 -20 hstem
          312 106 vstem
          235 53 rmoveto
          -34 -6 -14 -15 -12 4 -12 26 hvcurveto
          260 hlineto
          26 4 12 12 15 -6 14 -34 hvcurveto
          -57 120 72 hlineto
          26 4 12 12 15 -6 14 -34 hvcurveto
          -62 433 hlineto
          35 -15 15 -36 -26 -26 -9 -28 -18 vhcurveto
          -297 -451 rlineto
          -3 -6 -4 -9 -9 vvcurveto
          -13 6 -11 22 vhcurveto
          291 -120 hlineto
          173 vmoveto
          -235 hlineto
          235 352 rlineto
          endchar
        </CharString>
        <CharString name="foursuperior">
          -254 308 40 59 38 264 -20 hstem
          184 82 vstem
          155 348 rmoveto
          -29 -8 -11 -10 -9 7 -10 24 hvcurveto
          143 hlineto
          26 3 10 9 10 -5 11 -29 hvcurveto
          -21 59 29 hlineto
          26 3 9 8 11 -3 10 -30 hvcurveto
          -25 232 hlineto
          23 -11 9 -28 -20 -19 -6 -17 -11 vhcurveto
          -166 -246 rlineto
          -5 -7 -1 -6 -3 vvcurveto
          -9 5 -8 23 vhcurveto
          151 -59 hlineto
          97 vmoveto
          -111 hlineto
          111 169 rlineto
          endchar
        </CharString>
        <CharString name="fraction">
          -527 -20 750 hstem
          -195 477 vstem
          -194 14 rmoveto
          -1 -2 0 -1 -2 vvcurveto
          -13 25 -16 17 5 4 1 4 2 vhcurveto
          423 713 rlineto
          1 1 0 2 1 vvcurveto
          13 -26 15 -16 -5 -5 -1 -4 -2 vhcurveto
          endchar
        </CharString>
        <CharString name="g">
          -46 -220 40 379 40 223 40 hstemhm
          52 114 -111 78 -32 103 195 103 -83 103 -83 82 hintmask 1110100100000000
          263 -180 rmoveto
          -72 -58 35 55 hvcurveto
          48 33 12 15 vvcurveto
          10 -8 10 -15 -24 -64 -37 -65 -71 70 -52 111 178 108 82 107 75 -74 60 -171 8 vhcurveto
          hintmask 1111001000000000
          -95 4 -16 19 17 vvcurveto
          26 24 5 33 25 vhcurveto
          -7 22 35 -2 23 hhcurveto
          105 94 59 92 35 -16 34 -21 23 hvcurveto
          hintmask 1110010010000000
          27 16 30 23 27 vvcurveto
          23 -16 19 -19 -62 23 -69 -10 -21 vhcurveto
          23 -33 -59 8 -33 hhcurveto
          -102 -99 -43 -115 -41 21 -54 53 -21 hvcurveto
          -3 vlineto
          hintmask 1111000100000000
          -45 -31 -78 -9 -57 vvcurveto
          -61 71 -23 106 -8 vhcurveto
          95 -7 95 -17 -72 vvcurveto
          hintmask 1110100100000000
          -58 -62 -62 -94 vhcurveto
          hintmask 1110011000000000
          136 532 rmoveto
          -67 -38 -46 -59 -63 -35 45 64 71 38 43 60 62 35 -46 -64 vhcurveto
          endchar
        </CharString>
        <CharString name="gbreve">
          -46 -220 40 379 40 223 40 54 66 hstemhm
          52 114 -111 78 -32 103 195 103 -83 103 -83 82 hintmask 1111010010000000
          263 -180 rmoveto
          -72 -58 35 55 hvcurveto
          48 33 12 15 vvcurveto
          10 -8 10 -15 -24 -64 -37 -65 -71 70 -52 111 178 108 82 107 75 -74 60 -171 8 vhcurveto
          hintmask 1111100100000000
          -95 4 -16 19 17 vvcurveto
          26 24 5 33 25 vhcurveto
          -7 22 35 -2 23 hhcurveto
          105 94 59 92 35 -16 34 -21 23 hvcurveto
          hintmask 1111001001000000
          27 16 30 23 27 vvcurveto
          23 -16 19 -19 -62 23 -69 -10 -21 vhcurveto
          23 -33 -59 8 -33 hhcurveto
          -102 -99 -43 -115 -41 21 -54 53 -21 hvcurveto
          -3 vlineto
          hintmask 1111100010000000
          -45 -31 -78 -9 -57 vvcurveto
          -61 71 -23 106 -8 vhcurveto
          95 -7 95 -17 -72 vvcurveto
          hintmask 1111010010000000
          -58 -62 -62 -94 vhcurveto
          hintmask 1111001100000000
          136 532 rmoveto
          -67 -38 -46 -59 -63 -35 45 64 71 38 43 60 62 35 -46 -64 vhcurveto
          40 331 rmoveto
          15 -9 13 -18 -16 -14 -11 -16 -6 vhcurveto
          -52 -19 -29 -10 -36 hhcurveto
          -35 -29 10 52 -19 hvcurveto
          16 -6 -14 11 -16 hhcurveto
          -18 -9 -13 -15 -71 58 -56 88 89 58 56 71 hvcurveto
          endchar
        </CharString>
        <CharString name="germandbls">
          -44 0 45 344 49 281 41 hstemhm
          80 104 197 105 -71 105 hintmask 11110100
          80 47 rmoveto
          -30 8 -17 32 44 20 11 60 vhcurveto
          503 vlineto
          63 12 82 92 vhcurveto
          hintmask 11111000
          74 19 -72 -65 -91 -36 -53 -61 hvcurveto
          -27 hlineto
          -12 -6 -13 -12 -12 5 -12 12 hvcurveto
          28 hlineto
          hintmask 11110100
          80 51 -38 -121 -141 -51 -44 -50 hvcurveto
          -20 -14 6 -18 hhcurveto
          -11 -6 -8 -10 -33 55 0 29 93 98 60 171 109 -54 69 -81 12 hvcurveto
          4 vlineto
          hintmask 11111000
          66 22 35 62 73 vvcurveto
          118 -82 60 -116 -183 -25 -131 -112 vhcurveto
          endchar
        </CharString>
        <CharString name="grave">
          -9 570 179 hstem
          140 165 vstem
          241 586 rmoveto
          -10 8 15 -6 14 hhcurveto
          15 12 7 12 3 0 2 -2 4 hvcurveto
          -52 125 rlineto
          18 -8 -25 8 -24 hhcurveto
          -33 -21 -10 -14 -3 1 -4 2 -2 hvcurveto
          endchar
        </CharString>
        <CharString name="greater">
          174 48 598 hstem
          95 598 vstem
          681 320 rmoveto
          8 4 4 11 12 vvcurveto
          11 -4 12 -8 4 vhcurveto
          -547 271 rlineto
          1 -2 -1 0 -2 hhcurveto
          -16 -18 -33 -23 -8 2 -6 6 -3 hvcurveto
          467 -226 -467 -226 rlineto
          -6 -3 -2 -6 -9 vvcurveto
          -22 18 -33 16 2 1 0 1 2 vhcurveto
          endchar
        </CharString>
        <CharString name="guillemotleft">
          -62 21 -21 hstem
          70 412 vstem
          330 429 rmoveto
          3 4 2 5 4 vvcurveto
          17 -23 15 -17 -6 -5 -2 -4 -4 vhcurveto
          -202 -213 rlineto
          -6 -6 -2 -7 -7 vvcurveto
          -7 2 -7 6 -6 vhcurveto
          202 -209 rlineto
          -4 3 6 -2 6 hhcurveto
          17 23 16 16 5 -2 4 -3 4 hvcurveto
          -149 190 rlineto
          298 144 rmoveto
          2 3 1 3 3 vvcurveto
          17 -25 12 -17 -4 -4 -2 -2 -2 vhcurveto
          -142 -164 rlineto
          -6 -7 -3 -8 -8 vvcurveto
          -7 3 -8 6 -7 vhcurveto
          142 -158 rlineto
          -3 2 4 -1 4 hhcurveto
          16 26 12 17 3 -1 3 -2 3 hvcurveto
          -101 146 rlineto
          endchar
        </CharString>
        <CharString name="guillemotright">
          -62 21 -21 hstem
          70 412 vstem
          371 235 rmoveto
          -149 -190 rlineto
          -3 -4 -2 -4 -5 vvcurveto
          -16 23 -16 17 6 6 2 4 3 vhcurveto
          202 209 rlineto
          6 6 2 7 7 vvcurveto
          7 -2 7 -6 6 vhcurveto
          -202 213 rlineto
          4 -4 -5 2 -6 hhcurveto
          -17 -23 -15 -17 -4 2 -5 3 -4 hvcurveto
          -48 -203 rmoveto
          -101 -146 rlineto
          -2 -3 -1 -3 -3 vvcurveto
          -17 26 -12 16 4 4 1 3 2 vhcurveto
          142 158 rlineto
          6 7 3 8 7 vvcurveto
          8 -3 8 -6 7 vhcurveto
          -142 164 rlineto
          2 -2 -4 2 -4 hhcurveto
          -17 -25 -12 -17 -3 1 -3 2 -3 hvcurveto
          endchar
        </CharString>
        <CharString name="guilsinglleft">
          -209 21 -21 hstem
          70 265 vstem
          330 429 rmoveto
          3 4 2 5 4 vvcurveto
          17 -23 15 -17 -6 -5 -2 -4 -4 vhcurveto
          -202 -213 rlineto
          -6 -6 -2 -7 -7 vvcurveto
          -7 2 -7 6 -6 vhcurveto
          202 -209 rlineto
          -4 3 6 -2 6 hhcurveto
          17 23 16 16 5 -2 4 -3 4 hvcurveto
          -149 190 rlineto
          endchar
        </CharString>
        <CharString name="guilsinglright">
          -209 21 -21 hstem
          70 265 vstem
          224 235 rmoveto
          -149 -190 rlineto
          -3 -4 -2 -4 -5 vvcurveto
          -16 23 -16 17 6 6 2 4 3 vhcurveto
          202 209 rlineto
          6 6 2 7 7 vvcurveto
          7 -2 7 -6 6 vhcurveto
          -202 213 rlineto
          4 -4 -5 2 -6 hhcurveto
          -17 -23 -15 -17 -4 2 -5 3 -4 hvcurveto
          endchar
        </CharString>
        <CharString name="h">
          -34 21 -21 435 67 hstem
          80 104 212 104 vstem
          184 678 rmoveto
          60 -20 22 -44 -32 -8 -17 -30 vhcurveto
          -666 vlineto
          -30 8 -17 32 44 20 11 60 vhcurveto
          239 vlineto
          65 71 60 56 46 39 -24 -79 vhcurveto
          -250 vlineto
          -60 20 -22 44 32 8 17 30 vhcurveto
          304 vlineto
          101 -47 50 -94 -83 -57 -49 -53 -33 vhcurveto
          -2 hlineto
          endchar
        </CharString>
        <CharString name="hungarumlaut">
          41 570 178 hstem
          170 315 vstem
          320 715 rmoveto
          2 2 1 4 3 vvcurveto
          14 -19 10 -30 -22 -23 -8 -18 -7 vhcurveto
          -50 -124 rlineto
          -2 -4 0 -2 -3 vvcurveto
          -12 11 -7 14 12 14 6 10 7 vhcurveto
          254 129 rmoveto
          2 2 1 4 3 vvcurveto
          14 -19 10 -30 -22 -23 -8 -18 -7 vhcurveto
          -50 -124 rlineto
          -2 -4 0 -2 -3 vvcurveto
          -12 11 -7 14 12 14 6 10 7 vhcurveto
          endchar
        </CharString>
        <CharString name="hyphen">
          -177 215 80 hstem
          50 337 vstem
          367 215 rmoveto
          13 7 20 20 20 -7 20 -13 hvcurveto
          -297 hlineto
          -14 -6 -20 -20 -20 6 -20 14 hvcurveto
          endchar
        </CharString>
        <CharString name="hyphenminus">
          86 313 80 hstem
          90 520 vstem
          590 313 rmoveto
          13 7 20 20 20 -7 20 -13 hvcurveto
          -480 hlineto
          -14 -6 -20 -20 -20 6 -20 14 hvcurveto
          endchar
        </CharString>
        <CharString name="i">
          21 -21 502 -20 85 124 hstemhm
          73 124 -112 104 hintmask 11101000
          189 434 rmoveto
          46 -20 22 -44 -32 -8 -17 -30 vhcurveto
          -408 vlineto
          -30 8 -17 32 44 20 8 60 vhcurveto
          hintmask 11110000
          -116 561 rmoveto
          -34 28 -28 34 34 28 28 34 34 -28 28 -34 -34 -28 -28 -34 vhcurveto
          endchar
        </CharString>
        <CharString name="iacute">
          21 -21 502 -20 hstem
          85 104 vstem
          189 435 rmoveto
          45 -20 22 -44 -32 -8 -17 -30 vhcurveto
          -408 vlineto
          -30 8 -17 32 44 20 8 60 vhcurveto
          58 648 rmoveto
          2 2 1 4 3 vvcurveto
          14 -21 10 -33 -24 -25 -8 -18 -8 vhcurveto
          -52 -125 rlineto
          -2 -4 0 -2 -3 vvcurveto
          -12 12 -7 15 14 15 6 10 8 vhcurveto
          endchar
        </CharString>
        <CharString name="icircumflex">
          21 -21 502 -20 hstem
          85 104 vstem
          189 587 rmoveto
          -22 21 24 -8 20 hhcurveto
          22 16 10 11 3 -1 3 -3 3 hvcurveto
          -102 106 rlineto
          12 -11 -19 6 -19 hhcurveto
          -19 -19 -6 -12 -11 hvcurveto
          -102 -106 rlineto
          -3 -3 -1 -3 -3 vvcurveto
          -11 16 -10 22 20 24 8 22 21 vhcurveto
          52 52 rlineto
          52 -204 rmoveto
          45 -20 22 -44 -32 -8 -17 -30 vhcurveto
          -408 vlineto
          -30 8 -17 32 44 20 8 60 vhcurveto
          endchar
        </CharString>
        <CharString name="idieresis">
          21 -21 502 -20 85 122 hstemhm
          -22 122 -15 104 -15 122 hintmask 11101000
          hintmask 11110100
          -22 628 rmoveto
          -33 28 -28 33 33 28 28 33 33 -28 28 -33 -33 -28 -28 -33 vhcurveto
          196 hmoveto
          -33 28 -28 33 33 28 28 33 33 -28 28 -33 -33 -28 -28 -33 vhcurveto
          hintmask 11101000
          15 -193 rmoveto
          45 -20 22 -44 -32 -8 -17 -30 vhcurveto
          -408 vlineto
          -30 8 -17 32 44 20 8 60 vhcurveto
          endchar
        </CharString>
        <CharString name="igrave">
          21 -21 502 -20 hstem
          85 104 vstem
          189 435 rmoveto
          45 -20 22 -44 -32 -8 -17 -30 vhcurveto
          -408 vlineto
          -30 8 -17 32 44 20 8 60 vhcurveto
          -63 518 rmoveto
          -10 8 15 -6 14 hhcurveto
          15 12 7 12 3 0 2 -2 4 hvcurveto
          -52 125 rlineto
          18 -8 -25 8 -24 hhcurveto
          -33 -21 -10 -14 -3 1 -4 2 -2 hvcurveto
          endchar
        </CharString>
        <CharString name="j">
          -199 -21 722 -20 85 124 hstemhm
          73 124 -112 104 hintmask 11101000
          85 455 rmoveto
          -411 vlineto
          -72 -4 -43 -11 -30 vhcurveto
          -14 -38 -31 -11 -19 -12 rrcurveto
          -15 -10 -8 -10 -17 vvcurveto
          -15 15 -6 15 14 15 7 10 14 vhcurveto
          34 24 28 42 13 21 rrcurveto
          39 66 19 77 94 vvcurveto
          313 vlineto
          46 -20 22 -44 -32 -8 -17 -30 vhcurveto
          hintmask 11110000
          -12 174 rmoveto
          -34 28 -28 34 34 28 28 34 34 -28 28 -34 -34 -28 -28 -34 vhcurveto
          endchar
        </CharString>
        <CharString name="k">
          -101 21 -21 502 -20 hstem
          80 104 vstem
          184 678 rmoveto
          60 -20 22 -44 -32 -8 -17 -30 vhcurveto
          -666 vlineto
          -30 8 -17 32 44 20 11 60 vhcurveto
          160 vlineto
          11 12 59 -70 59 -74 56 -68 rlinecurve
          -18 15 13 -13 48 hhcurveto
          44 4 9 10 9 -7 10 -11 13 hvcurveto
          -63 74 -77 88 -67 80 49 39 35 32 40 26 rrcurveto
          62 42 38 14 29 vvcurveto
          12 -5 15 -24 -47 -41 -49 -50 -55 vhcurveto
          -136 -124 rlineto
          endchar
        </CharString>
        <CharString name="l">
          21 -21 hstem
          85 104 vstem
          189 678 rmoveto
          60 -20 22 -44 -32 -8 -17 -30 vhcurveto
          -666 vlineto
          -30 8 -17 32 44 20 8 60 vhcurveto
          endchar
        </CharString>
        <CharString name="less">
          139 48 598 hstem
          55 598 vstem
          614 49 rmoveto
          -1 2 1 0 2 hhcurveto
          16 18 33 22 9 -2 6 -6 3 hvcurveto
          -467 226 467 226 rlineto
          6 3 2 6 8 vvcurveto
          23 -18 33 -16 -2 -1 0 -1 -2 vhcurveto
          -547 -271 rlineto
          -8 -4 -4 -12 -11 vvcurveto
          -12 4 -11 8 -4 vhcurveto
          endchar
        </CharString>
        <CharString name="logicalnot">
          156 318 75 hstem
          608 82 vstem
          79 393 rmoveto
          -13 -6 -19 -19 -18 6 -19 13 hvcurveto
          529 -157 hlineto
          -14 20 -6 21 20 21 6 14 vhcurveto
          198 vlineto
          16 -10 18 -22 vhcurveto
          endchar
        </CharString>
        <CharString name="lslash">
          -274 21 -21 hstem
          111 104 vstem
          9 296 rmoveto
          -6 -4 -3 -6 -7 vvcurveto
          -16 13 -16 15 3 4 1 2 3 vhcurveto
          73 45 rlineto
          -248 vlineto
          -30 8 -17 32 44 20 8 60 vhcurveto
          292 vlineto
          115 72 rlineto
          7 4 3 7 7 vvcurveto
          16 -14 15 -14 -3 -3 0 -2 -3 vhcurveto
          -88 -55 rlineto
          254 vlineto
          60 -20 22 -44 -32 -8 -17 -30 vhcurveto
          -354 vlineto
          endchar
        </CharString>
        <CharString name="m">
          215 21 -21 435 67 hstem
          80 103 180 103 180 103 cntrmask 00111000
          646 82 rmoveto
          -60 19 -22 44 32 8 17 30 vhcurveto
          304 vlineto
          98 -39 53 -89 -83 -41 -50 -53 -33 vhcurveto
          -2 hlineto
          67 -11 -41 36 -72 hhcurveto
          -83 -39 -40 -53 -33 hvcurveto
          -2 7 hlineto
          59 -22 27 -36 -30 -13 -11 -32 vhcurveto
          -412 vlineto
          -30 8 -17 32 44 19 11 60 vhcurveto
          249 vlineto
          65 59 50 48 46 27 -24 -79 vhcurveto
          -285 vlineto
          -30 8 -17 32 44 19 11 60 vhcurveto
          239 vlineto
          65 59 60 48 46 27 -24 -79 vhcurveto
          endchar
        </CharString>
        <CharString name="macron">
          -62 590 75 hstem
          130 292 vstem
          403 590 rmoveto
          12 7 19 18 19 -7 19 -12 hvcurveto
          -254 hlineto
          -13 -6 -19 -19 -18 6 -19 13 hvcurveto
          endchar
        </CharString>
        <CharString name="minus">
          86 309 80 hstem
          90 520 vstem
          590 309 rmoveto
          13 7 20 20 20 -7 20 -13 hvcurveto
          -480 hlineto
          -14 -6 -20 -20 -20 6 -20 14 hvcurveto
          endchar
        </CharString>
        <CharString name="mu">
          -34 -199 -21 220 77 425 -20 hstem
          80 104 212 104 vstem
          184 420 rmoveto
          60 -20 22 -44 -32 -8 -17 -30 vhcurveto
          -628 vlineto
          -30 8 -17 32 44 20 11 60 vhcurveto
          188 5 vlineto
          -27 19 29 -12 38 hhcurveto
          67 36 42 43 18 hvcurveto
          2 -7 hlineto
          -64 23 -14 36 30 13 11 32 vhcurveto
          412 vlineto
          30 -8 17 -32 -44 -20 -12 -60 vhcurveto
          -251 vlineto
          -65 -60 -37 -49 -44 -59 20 79 vhcurveto
          endchar
        </CharString>
        <CharString name="multiply">
          103 140 418 hstem
          150 417 vstem
          302 349 rmoveto
          -148 -148 rlineto
          -3 -3 -1 -3 -4 vvcurveto
          -20 31 -31 20 4 3 1 3 3 vhcurveto
          148 148 148 -148 rlineto
          -3 3 3 -1 4 hhcurveto
          20 30 30 21 4 -1 3 -2 3 hvcurveto
          -148 148 148 148 rlineto
          2 3 1 3 4 vvcurveto
          20 -30 30 -20 -4 -3 -1 -2 -3 vhcurveto
          -148 -148 -148 148 rlineto
          3 -3 -3 1 -4 hhcurveto
          -20 -31 -31 -20 -4 1 -3 3 -3 hvcurveto
          endchar
        </CharString>
        <CharString name="n">
          -34 21 -21 435 67 hstem
          80 104 212 104 vstem
          80 47 rmoveto
          -30 8 -17 32 44 20 11 60 vhcurveto
          249 vlineto
          65 71 50 56 46 39 -24 -79 vhcurveto
          -250 vlineto
          -60 20 -22 44 32 8 17 30 vhcurveto
          304 vlineto
          101 -47 50 -94 -83 -59 -40 -53 -33 vhcurveto
          -2 7 hlineto
          59 -23 27 -36 -30 -13 -11 -32 vhcurveto
          endchar
        </CharString>
        <CharString name="nbspace">
          -314 endchar
        </CharString>
        <CharString name="nine">
          -84 0 51 210 64 333 51 hstemhm
          40 109 -84 96 212 107 hintmask 11110100
          hintmask 11101100
          108 172 rmoveto
          -29 -14 -15 -33 hvcurveto
          -51 vlineto
          -33 22 -11 19 -7 vhcurveto
          -12 34 36 -10 51 hhcurveto
          130 123 80 321 163 -32 145 -189 hvcurveto
          hintmask 11110100
          -126 -93 -84 -146 -126 63 -92 121 54 63 22 66 32 hvcurveto
          -42 vlineto
          -194 -80 -62 -67 vhcurveto
          hintmask 11101100
          -20 -23 1 9 -22 hvcurveto
          49 vlineto
          46 -15 16 -38 vhcurveto
          hintmask 11110100
          145 153 rmoveto
          -63 -41 43 110 129 48 51 65 88 15 -104 -70 -103 -52 -56 -60 hvcurveto
          endchar
        </CharString>
        <CharString name="noBreak">
          -614 endchar
        </CharString>
        <CharString name="nonmarkingreturn">
          -614 endchar
        </CharString>
        <CharString name="ntilde">
          -34 21 -21 435 67 71 72 -39 72 hstemhm
          80 104 212 104 hintmask 11011100
          80 47 rmoveto
          -30 8 -17 32 44 20 11 60 vhcurveto
          249 vlineto
          65 71 50 56 46 39 -24 -79 vhcurveto
          -250 vlineto
          -60 20 -22 44 32 8 17 30 vhcurveto
          304 vlineto
          101 -47 50 -94 -83 -59 -40 -53 -33 vhcurveto
          -2 7 hlineto
          59 -23 27 -36 -30 -13 -11 -32 vhcurveto
          153 147 rmoveto
          13 15 -4 -12 32 hvcurveto
          hintmask 11101100
          -9 22 20 -8 27 hhcurveto
          30 33 17 50 22 hvcurveto
          4 8 3 10 9 vvcurveto
          10 -6 9 -16 -23 -3 -13 -11 -6 vhcurveto
          -9 -5 -7 -8 -18 hhcurveto
          -22 -18 9 9 -22 hvcurveto
          hintmask 11011100
          -33 12 -20 2 -10 1 rrcurveto
          -65 -35 -59 -35 -11 5 -9 23 hvcurveto
          37 -21 42 44 hhcurveto
          endchar
        </CharString>
        <CharString name="numbersign">
          -84 21 -21 182 73 173 75 hstem
          -59 648 vstem
          376 182 rmoveto
          138 hlineto
          16 12 30 21 12 -4 10 -9 hvcurveto
          -136 hlineto
          32 173 rlineto
          137 hlineto
          16 11 30 22 13 -4 10 -9 hvcurveto
          -137 hlineto
          32 159 rlineto
          12 -15 7 -21 -20 -21 -6 -13 -2 vhcurveto
          -29 -159 rlineto
          -134 hlineto
          29 159 rlineto
          13 -15 6 -21 -19 -22 -6 -13 -2 vhcurveto
          -28 -159 rlineto
          -137 hlineto
          -16 -11 -30 -22 -13 4 -10 9 hvcurveto
          136 hlineto
          -32 -173 rlineto
          -134 hlineto
          -16 -13 -31 -22 -11 3 -9 9 hvcurveto
          136 hlineto
          -30 -162 rlineto
          -13 14 -7 21 19 20 7 13 3 vhcurveto
          32 162 rlineto
          133 hlineto
          -30 -162 rlineto
          -13 14 -7 21 19 21 7 13 2 vhcurveto
          -168 235 rmoveto
          34 173 rlineto
          133 hlineto
          -32 -173 rlineto
          endchar
        </CharString>
        <CharString name="o">
          -56 0 40 422 40 hstem
          50 108 242 108 vstem
          279 hmoveto
          142 87 80 171 175 -92 76 -137 -136 -93 -76 -175 -171 87 -80 142 hvcurveto
          40 vmoveto
          -71 -50 42 169 169 55 42 66 68 53 -42 -169 -171 -50 -40 -71 hvcurveto
          endchar
        </CharString>
        <CharString name="oacute">
          -56 0 40 422 40 hstem
          50 108 242 108 vstem
          279 hmoveto
          142 87 80 171 175 -92 76 -137 -136 -93 -76 -175 -171 87 -80 142 hvcurveto
          40 vmoveto
          -71 -50 42 169 169 55 42 66 68 53 -42 -169 -171 -50 -40 -71 hvcurveto
          120 676 rmoveto
          2 2 1 4 3 vvcurveto
          14 -21 10 -33 -24 -25 -8 -18 -8 vhcurveto
          -52 -125 rlineto
          -2 -4 0 -2 -3 vvcurveto
          -12 12 -7 15 14 15 6 10 8 vhcurveto
          endchar
        </CharString>
        <CharString name="ocircumflex">
          -56 0 40 422 40 hstem
          50 108 242 108 vstem
          279 hmoveto
          142 87 80 171 175 -92 76 -137 -136 -93 -76 -175 -171 87 -80 142 hvcurveto
          40 vmoveto
          -71 -50 42 169 169 55 42 66 68 53 -42 -169 -171 -50 -40 -71 hvcurveto
          52 547 rmoveto
          -22 21 24 -8 20 hhcurveto
          22 16 10 11 3 -1 3 -3 3 hvcurveto
          -102 106 rlineto
          12 -11 -19 6 -19 hhcurveto
          -19 -19 -6 -12 -11 hvcurveto
          -102 -106 rlineto
          -3 -3 -1 -3 -3 vvcurveto
          -11 16 -10 22 20 24 8 22 21 vhcurveto
          52 52 rlineto
          endchar
        </CharString>
        <CharString name="odieresis">
          -56 0 40 422 40 65 122 hstemhm
          50 108 -38 122 74 122 -38 108 hintmask 11010010
          279 hmoveto
          142 87 80 171 175 -92 76 -137 -136 -93 -76 -175 -171 87 -80 142 hvcurveto
          40 vmoveto
          -71 -50 42 169 169 55 42 66 68 53 -42 -169 -171 -50 -40 -71 hvcurveto
          hintmask 11101100
          -159 588 rmoveto
          -33 28 -28 33 33 28 28 33 33 -28 28 -33 -33 -28 -28 -33 vhcurveto
          196 hmoveto
          -33 28 -28 33 33 28 28 33 33 -28 28 -33 -33 -28 -28 -33 vhcurveto
          endchar
        </CharString>
        <CharString name="oe">
          261 0 40 -40 44 208 42 168 40 hstemhm
          50 108 242 108 225 102 hintmask 10111110
          hintmask 01111110
          785 126 rmoveto
          -29 -24 -33 -53 -81 hhcurveto
          -99 -40 77 109 7 0 7 1 8 hvcurveto
          269 hlineto
          26 31 8 41 133 -83 68 -118 -80 -59 -25 -49 -39 hvcurveto
          50 -40 -62 24 -75 hhcurveto
          -136 -93 -76 -175 hvcurveto
          hintmask 10111110
          -171 87 -80 142 76 60 23 48 39 vhcurveto
          -46 38 60 -25 84 hhcurveto
          90 57 36 46 37 hvcurveto
          hintmask 01111110
          9 11 4 9 14 vvcurveto
          13 -12 8 -11 -10 -8 -3 -8 -7 vhcurveto
          hintmask 10111110
          -506 -86 rmoveto
          -71 -50 42 169 169 55 42 66 68 53 -42 -169 -171 -50 -40 -71 hvcurveto
          349 422 rmoveto
          51 54 -43 -96 -23 -12 -6 -22 hvcurveto
          -187 hlineto
          120 9 46 48 61 hhcurveto
          endchar
        </CharString>
        <CharString name="ogonek">
          -65 -189 49 hstem
          220 76 vstem
          320 20 rmoveto
          -65 -37 -35 -52 -38 vvcurveto
          -40 25 -42 72 42 65 18 34 11 -8 8 -11 -7 -5 -3 -5 -8 vhcurveto
          -12 -22 -1 -2 -24 hhcurveto
          -25 -17 18 25 32 19 37 58 48 hvcurveto
          endchar
        </CharString>
        <CharString name="ograve">
          -56 0 40 422 40 hstem
          50 108 242 108 vstem
          279 hmoveto
          142 87 80 171 175 -92 76 -137 -136 -93 -76 -175 -171 87 -80 142 hvcurveto
          40 vmoveto
          -71 -50 42 169 169 55 42 66 68 53 -42 -169 -171 -50 -40 -71 hvcurveto
          -22 546 rmoveto
          -10 8 15 -6 14 hhcurveto
          15 12 7 12 3 0 2 -2 4 hvcurveto
          -52 125 rlineto
          18 -8 -25 8 -24 hhcurveto
          -33 -21 -10 -14 -3 1 -4 2 -2 hvcurveto
          endchar
        </CharString>
        <CharString name="one">
          -84 0 53 656 -20 hstem
          236 106 vstem
          236 640 rmoveto
          -587 -86 vlineto
          -34 -6 -14 -15 -12 4 -12 26 hvcurveto
          298 hlineto
          26 4 12 12 15 -6 14 -34 hvcurveto
          -86 606 hlineto
          35 -15 15 -36 -15 -20 -3 -7 -19 vhcurveto
          -141 -55 rlineto
          -17 -6 -4 -8 -8 vvcurveto
          -13 8 -16 18 7 7 1 4 10 vhcurveto
          endchar
        </CharString>
        <CharString name="onehalf">
          186 0 40 268 40 16 37 308 -20 hstemhm
          130 83 274 75 96 88 -70 74 hintmask 11011101
          130 653 rmoveto
          -305 -36 vlineto
          -29 -5 -11 -10 -9 3 -10 26 hvcurveto
          166 hlineto
          26 3 10 9 10 -5 11 -29 hvcurveto
          -37 329 hlineto
          23 -10 9 -30 -10 -14 -2 -4 -10 vhcurveto
          -79 -31 rlineto
          -16 -6 -4 -10 -5 vvcurveto
          -9 9 -9 18 7 5 1 2 5 vhcurveto
          77 -622 rmoveto
          -1 -2 0 -1 -2 vvcurveto
          -13 25 -16 17 5 4 1 4 2 vhcurveto
          423 713 rlineto
          1 1 0 2 1 vvcurveto
          13 -26 15 -16 -5 -5 -1 -4 -2 vhcurveto
          hintmask 11111110
          -62 -452 rmoveto
          31 10 11 30 hvcurveto
          38 vlineto
          7 14 16 5 12 hhcurveto
          44 10 -44 -31 -30 -13 -76 -145 -135 hvcurveto
          -16 -15 -3 -8 -6 vvcurveto
          -11 8 -8 17 vhcurveto
          hintmask 11011101
          199 hlineto
          30 15 5 16 hvcurveto
          56 vlineto
          21 -9 10 -24 -27 -14 -11 -29 vhcurveto
          -28 -123 vlineto
          hintmask 11111110
          146 120 47 71 66 vvcurveto
          54 -34 50 -87 -44 -35 -11 -25 -41 vhcurveto
          -14 -9 -4 -4 -13 vvcurveto
          -34 vlineto
          -23 10 -9 24 vhcurveto
          endchar
        </CharString>
        <CharString name="onequarter">
          186 0 40 59 38 171 40 361 -20 hstem
          140 83 367 82 vstem
          140 653 rmoveto
          -305 -36 vlineto
          -29 -5 -11 -10 -9 3 -10 26 hvcurveto
          166 hlineto
          26 3 10 9 10 -5 11 -29 hvcurveto
          -37 329 hlineto
          23 -10 9 -30 -10 -14 -2 -4 -10 vhcurveto
          -79 -31 rlineto
          -16 -6 -4 -10 -5 vvcurveto
          -9 9 -9 18 7 5 1 2 5 vhcurveto
          77 -622 rmoveto
          -1 -2 0 -1 -2 vvcurveto
          -13 25 -16 17 5 4 1 4 2 vhcurveto
          423 713 rlineto
          1 1 0 2 1 vvcurveto
          13 -26 15 -16 -5 -5 -1 -4 -2 vhcurveto
          -32 -685 rmoveto
          -29 -8 -11 -10 -9 7 -10 24 hvcurveto
          143 hlineto
          26 3 10 9 10 -5 11 -29 hvcurveto
          -21 59 29 hlineto
          26 3 9 8 11 -3 10 -30 hvcurveto
          -25 232 hlineto
          23 -11 9 -28 -20 -19 -6 -17 -11 vhcurveto
          -166 -246 rlineto
          -5 -7 -1 -6 -3 vvcurveto
          -9 5 -8 23 vhcurveto
          151 -59 hlineto
          97 vmoveto
          -111 hlineto
          111 169 rlineto
          endchar
        </CharString>
        <CharString name="onesuperior">
          -254 308 40 361 -20 hstem
          151 83 vstem
          151 653 rmoveto
          -305 -36 vlineto
          -29 -5 -11 -10 -9 3 -10 26 hvcurveto
          166 hlineto
          26 3 10 9 10 -5 11 -29 hvcurveto
          -37 329 hlineto
          23 -10 9 -30 -10 -14 -2 -4 -10 vhcurveto
          -79 -31 rlineto
          -16 -6 -4 -10 -5 vvcurveto
          -9 9 -9 18 7 5 1 2 5 vhcurveto
          endchar
        </CharString>
        <CharString name="ordfeminine">
          -202 348 52 136 36 102 35 hstem
          35 88 146 88 vstem
          321 348 rmoveto
          30 6 13 24 hvcurveto
          192 vlineto
          86 -29 46 -111 -32 -45 -6 -13 -32 vhcurveto
          -25 -11 -19 -12 -21 vvcurveto
          -14 9 -12 24 18 17 10 15 14 vhcurveto
          12 13 22 17 22 hhcurveto
          44 22 -22 -63 hvcurveto
          -17 -47 vlineto
          -150 -37 -61 -63 -58 37 -42 79 51 39 18 37 31 hvcurveto
          -36 4 13 -19 32 hhcurveto
          -52 188 rmoveto
          -55 vlineto
          -55 -59 -26 -31 -32 -24 14 42 45 25 35 86 vhcurveto
          endchar
        </CharString>
        <CharString name="ordmasculine">
          -202 348 35 291 35 hstem
          35 93 157 92 vstem
          206 348 rmoveto
          106 65 58 122 127 -69 54 -102 -102 -69 -54 -127 -122 65 -58 106 hvcurveto
          35 vmoveto
          -45 -33 27 118 119 35 27 43 44 35 -27 -119 -118 -33 -27 -46 hvcurveto
          endchar
        </CharString>
        <CharString name="oslash">
          -56 0 40 422 40 hstem
          50 108 242 108 vstem
          470 537 rmoveto
          1 2 0 1 2 vvcurveto
          14 -24 15 -18 -6 -5 -2 -4 -2 vhcurveto
          -44 -78 rlineto
          10 -28 -31 5 -34 hhcurveto
          -136 -93 -76 -175 -94 26 -66 47 -41 hvcurveto
          -54 -95 rlineto
          -1 -2 0 -1 -2 vvcurveto
          -13 22 -14 17 5 5 2 4 2 vhcurveto
          52 91 rlineto
          -14 31 36 -6 41 hhcurveto
          142 87 80 171 101 -31 68 -52 39 hvcurveto
          -146 -419 rmoveto
          -31 -27 8 23 -20 hvcurveto
          181 314 rlineto
          11 -32 7 -43 -59 vvcurveto
          -171 -50 -40 -71 vhcurveto
          -121 211 rmoveto
          169 55 42 66 25 22 -6 -15 19 vhcurveto
          -175 -309 rlineto
          -8 30 -4 39 50 vvcurveto
          endchar
        </CharString>
        <CharString name="otilde">
          -56 0 40 422 40 71 72 -39 72 hstemhm
          50 108 242 108 hintmask 11011100
          279 hmoveto
          142 87 80 171 175 -92 76 -137 -136 -93 -76 -175 -171 87 -80 142 hvcurveto
          40 vmoveto
          -71 -50 42 169 169 55 42 66 68 53 -42 -169 -171 -50 -40 -71 hvcurveto
          -67 566 rmoveto
          13 15 -4 -12 32 hvcurveto
          hintmask 11101100
          -9 22 20 -8 27 hhcurveto
          30 33 17 50 22 hvcurveto
          4 8 3 10 9 vvcurveto
          10 -6 9 -16 -23 -3 -13 -11 -6 vhcurveto
          -9 -5 -7 -8 -18 hhcurveto
          -22 -18 9 9 -22 hvcurveto
          hintmask 11011100
          -33 12 -20 2 -10 1 rrcurveto
          -65 -35 -59 -35 -11 5 -9 23 hvcurveto
          37 -21 42 44 hhcurveto
          endchar
        </CharString>
        <CharString name="p">
          -48 -199 -21 220 40 395 67 hstem
          80 103 222 108 vstem
          80 -173 rmoveto
          -30 8 -17 32 44 20 11 60 vhcurveto
          168 vlineto
          -12 26 33 -7 32 hhcurveto
          146 92 89 187 182 -83 44 -88 -83 -44 -41 -53 -32 hvcurveto
          -1 8 hlineto
          60 -1 -20 26 -42 hhcurveto
          -23 -16 -10 -33 hvcurveto
          325 -191 rmoveto
          -173 -52 -55 -78 -60 -32 34 27 vhcurveto
          217 vlineto
          59 64 58 55 57 46 -31 -136 vhcurveto
          endchar
        </CharString>
        <CharString name="paragraph">
          -142 709 -20 hstem
          189 69 65 69 vstem
          258 709 rmoveto
          -69 hlineto
          -116 -53 -80 -79 -79 53 -75 116 -5 hvcurveto
          -551 vlineto
          -12 17 -5 17 18 17 5 12 vhcurveto
          134 819 rmoveto
          35 -15 15 -31 vhcurveto
          -23 -869 hlineto
          -12 17 -5 17 18 17 5 12 vhcurveto
          endchar
        </CharString>
        <CharString name="parenleft">
          -235 -148 910 hstem
          80 112 vstem
          259 -140 rmoveto
          -5 4 7 -3 8 hhcurveto
          15 16 11 14 3 -1 4 -1 3 hvcurveto
          -13 27 rlineto
          -84 173 -18 131 89 vvcurveto
          89 18 131 84 173 vhcurveto
          13 27 rlineto
          1 3 1 4 3 vvcurveto
          14 -16 11 -15 -8 -7 -3 -5 -4 vhcurveto
          -16 -19 rlineto
          -64 -77 -99 -150 -201 vvcurveto
          -201 99 -150 64 -77 vhcurveto
          endchar
        </CharString>
        <CharString name="parenright">
          -235 -148 910 hstem
          187 112 vstem
          136 -121 rmoveto
          64 77 99 150 201 vvcurveto
          201 -99 150 -64 77 vhcurveto
          -16 19 rlineto
          5 -4 -7 3 -8 hhcurveto
          -15 -16 -11 -14 -3 1 -4 1 -3 hvcurveto
          13 -27 rlineto
          84 -173 18 -131 -89 vvcurveto
          -89 -18 -131 -84 -173 vhcurveto
          -13 -27 rlineto
          -1 -3 -1 -4 -3 vvcurveto
          -14 16 -11 15 8 7 3 5 4 vhcurveto
          endchar
        </CharString>
        <CharString name="percent">
          287 -15 43 279 43 10 43 279 43 hstemhm
          60 86 150 85 139 86 150 85 hintmask 10111111
          702 731 rmoveto
          hintmask 11111111
          1 2 0 1 2 vvcurveto
          15 -29 17 -19 -5 -5 -2 -4 -2 vhcurveto
          hintmask 10111111
          -456 -813 rlineto
          hintmask 11111111
          -1 -2 0 -1 -2 vvcurveto
          -14 27 -13 18 6 5 2 4 3 vhcurveto
          -185 593 rmoveto
          -166 96 -43 65 vhcurveto
          hintmask 10111111
          65 95 43 166 166 -95 43 -65 -65 -96 -43 -166 hvcurveto
          86 hmoveto
          140 43 26 32 32 43 -26 -140 -140 -43 -26 -32 -32 -43 26 140 vhcurveto
          374 -322 rmoveto
          -166 96 -43 65 65 95 43 166 166 -95 43 -65 -65 -96 -43 -166 vhcurveto
          86 hmoveto
          140 43 26 32 32 43 -26 -140 -140 -43 -26 -32 -32 -43 26 140 vhcurveto
          endchar
        </CharString>
        <CharString name="period">
          -342 0 156 hstem
          60 152 vstem
          60 77 rmoveto
          -44 34 -33 42 43 33 33 44 46 -33 33 -43 -42 -34 -32 -47 vhcurveto
          endchar
        </CharString>
        <CharString name="periodcentered">
          -282 177 156 hstem
          90 152 vstem
          90 254 rmoveto
          -44 34 -33 42 43 33 33 44 46 -33 33 -43 -42 -34 -32 -47 vhcurveto
          endchar
        </CharString>
        <CharString name="perthousand">
          675 -15 43 279 43 10 43 279 43 hstemhm
          60 86 150 85 139 86 150 85 67 86 150 85 hintmask 1011111111000000
          702 731 rmoveto
          hintmask 0101110000000000
          1 2 0 1 2 vvcurveto
          15 -29 17 -19 -5 -5 -2 -4 -2 vhcurveto
          hintmask 1011111111000000
          -456 -813 rlineto
          hintmask 0101110000000000
          -1 -2 0 -1 -2 vvcurveto
          -14 27 -13 18 6 5 2 4 3 vhcurveto
          -185 593 rmoveto
          -166 96 -43 65 vhcurveto
          hintmask 1010001111000000
          65 95 43 166 166 -95 43 -65 -65 -96 -43 -166 hvcurveto
          86 hmoveto
          140 43 26 32 32 43 -26 -140 -140 -43 -26 -32 -32 -43 26 140 vhcurveto
          374 -322 rmoveto
          -166 96 -43 65 65 95 43 166 166 -95 43 -65 -65 -96 -43 -166 vhcurveto
          86 hmoveto
          140 43 26 32 32 43 -26 -140 -140 -43 -26 -32 -32 -43 26 140 vhcurveto
          302 hmoveto
          -166 96 -43 65 65 95 43 166 166 -95 43 -65 -65 -96 -43 -166 vhcurveto
          86 hmoveto
          140 43 26 32 32 43 -26 -140 -140 -43 -26 -32 -32 -43 26 140 vhcurveto
          endchar
        </CharString>
        <CharString name="plus">
          106 309 80 hstem
          320 80 vstem
          320 309 rmoveto
          -210 vlineto
          -14 20 -6 20 20 20 6 14 vhcurveto
          210 210 vlineto
          13 7 20 20 20 -7 20 -13 hvcurveto
          -210 210 hlineto
          13 -20 7 -20 -20 -20 -7 -13 vhcurveto
          -210 -210 vlineto
          -14 -6 -20 -20 -20 6 -20 14 hvcurveto
          endchar
        </CharString>
</ttFont>
